Hack-Bold.ufo
<glyph name="exclam" format="1">
  <advance width="1233"/>
  <unicode hex="0021"/>
  <outline>
    <contour>
      <point x="470" y="1052" type="line" name="ih01"/>
      <point x="470" y="1508" type="line" name="at01"/>
      <point x="755" y="1508" type="line"/>
      <point x="755" y="1052" type="line" name="sh01"/>
      <point x="687" y="476" type="line"/>
      <point x="548" y="476" type="line"/>
    </contour>
    <contour>
      <point x="615" y="-72" type="curve" smooth="yes" name="dv01"/>
      <point x="564.333" y="-72"/>
      <point x="521.667" y="-51.6667"/>
      <point x="491" y="-21" type="curve" smooth="yes"/>
      <point x="457.667" y="12.3333"/>
      <point x="441" y="57"/>
      <point x="441" y="113" type="curve" smooth="yes" name="dh01"/>
      <point x="441" y="167.667"/>
      <point x="457.667" y="211.333"/>
      <point x="491" y="244" type="curve" smooth="yes"/>
      <point x="505.667" y="258.667"/>
      <point x="506.667" y="258.667"/>
      <point x="512" y="264" type="curve" smooth="yes"/>
      <point x="517.333" y="268"/>
      <point x="525.667" y="274"/>
      <point x="535" y="278" type="curve" smooth="yes"/>
      <point x="537.667" y="279.333"/>
      <point x="552" y="285.333"/>
      <point x="560" y="288" type="curve"/>
      <point x="586" y="294" type="line" smooth="yes"/>
      <point x="594" y="295.333"/>
      <point x="606.333" y="296"/>
      <point x="617" y="296" type="curve" smooth="yes" name="dv02"/>
      <point x="662.333" y="296"/>
      <point x="708" y="278.333"/>
      <point x="740" y="245" type="curve" smooth="yes"/>
      <point x="773.333" y="211.667"/>
      <point x="789" y="166.667"/>
      <point x="789" y="112" type="curve" smooth="yes" name="dh02"/>
      <point x="789" y="96"/>
      <point x="787.333" y="79.6667"/>
      <point x="784" y="63" type="curve" smooth="yes"/>
      <point x="781.333" y="45.6667"/>
      <point x="777.667" y="36.6667"/>
      <point x="767" y="18" type="curve" smooth="yes" name="hr01"/>
      <point x="759" y="3.33333"/>
      <point x="755" y="-2.66667"/>
      <point x="739" y="-20" type="curve" smooth="yes"/>
      <point x="720.333" y="-40"/>
      <point x="705.667" y="-49.6667"/>
      <point x="683" y="-59" type="curve" smooth="yes"/>
      <point x="660.333" y="-69.6667"/>
      <point x="637.667" y="-72"/>
    </contour>
  </outline>
</glyph>
<glyph name="dollar" format="1">
  <advance width="1233"/>
  <unicode hex="0024"/>
  <outline>
    <contour>
      <point x="512" y="0" type="line" name="sh01"/>
      <point x="482" y="2"/>
      <point x="434.667" y="10.6667"/>
      <point x="370" y="26" type="curve" smooth="yes"/>
      <point x="306.667" y="40.6667"/>
      <point x="240.667" y="62.6667"/>
      <point x="172" y="92" type="curve" name="sh02"/>
      <point x="172" y="354" type="line" name="ih01"/>
      <point x="240.667" y="313.333"/>
      <point x="307.333" y="282"/>
      <point x="372" y="260" type="curve" smooth="yes"/>
      <point x="440" y="237.333"/>
      <point x="497" y="227.333"/>
      <point x="553" y="226" type="curve" name="dh03"/>
      <point x="553" y="555" type="line"/>
      <point x="421.667" y="581"/>
      <point x="324" y="626"/>
      <point x="260" y="690" type="curve" smooth="yes"/>
      <point x="196" y="752.667"/>
      <point x="164" y="837"/>
      <point x="164" y="943" type="curve" smooth="yes" name="dh01"/>
      <point x="164" y="1053.67"/>
      <point x="198" y="1142"/>
      <point x="266" y="1208" type="curve" smooth="yes"/>
      <point x="334" y="1274"/>
      <point x="416.333" y="1311"/>
      <point x="513" y="1319" type="curve" name="sh03"/>
      <point x="513" y="1556" type="line" name="hr01"/>
      <point x="734" y="1556" type="line" name="sh05"/>
      <point x="735" y="1319" type="line"/>
      <point x="756.333" y="1315.67"/>
      <point x="792.333" y="1309.67"/>
      <point x="843" y="1301" type="curve" smooth="yes"/>
      <point x="888.333" y="1293"/>
      <point x="939" y="1280.67"/>
      <point x="999" y="1262" type="curve"/>
      <point x="999" y="1006" type="line" name="sh06"/>
      <point x="955" y="1035.33"/>
      <point x="906.333" y="1055.33"/>
      <point x="861" y="1070" type="curve" smooth="yes" name="hr02"/>
      <point x="809" y="1086"/>
      <point x="755.333" y="1096"/>
      <point x="694" y="1100" type="curve" name="sh07"/>
      <point x="694" y="793" type="line"/>
      <point x="826.667" y="771.667"/>
      <point x="926" y="727"/>
      <point x="992" y="659" type="curve" smooth="yes" name="hr03"/>
      <point x="1060" y="589.667"/>
      <point x="1092" y="496.667"/>
      <point x="1092" y="386" type="curve" smooth="yes" name="dh06"/>
      <point x="1092" y="271.333"/>
      <point x="1056" y="184.667"/>
      <point x="984" y="114" type="curve" smooth="yes"/>
      <point x="902.667" y="35.3333"/>
      <point x="789.667" y="6.66667"/>
      <point x="735" y="0" type="curve" name="sh08"/>
      <point x="734" y="-301" type="line" name="hr04"/>
      <point x="513" y="-301" type="line" name="sh09"/>
    </contour>
    <contour>
      <point x="553" y="1100" type="line" name="sh04"/>
      <point x="512.333" y="1095.33"/>
      <point x="481.333" y="1081.67"/>
      <point x="460" y="1059" type="curve" smooth="yes"/>
      <point x="441.333" y="1040.33"/>
      <point x="428" y="1009.67"/>
      <point x="428" y="967" type="curve" smooth="yes" name="dh02"/>
      <point x="428" y="929"/>
      <point x="438.667" y="897.333"/>
      <point x="460" y="872" type="curve" smooth="yes"/>
      <point x="482" y="846"/>
      <point x="513" y="827.667"/>
      <point x="553" y="817" type="curve" name="hr05"/>
    </contour>
    <contour>
      <point x="694" y="226" type="line" name="dh04"/>
      <point x="742" y="232.667"/>
      <point x="770.667" y="251"/>
      <point x="792" y="275" type="curve" smooth="yes"/>
      <point x="815.333" y="301.667"/>
      <point x="827" y="335.333"/>
      <point x="827" y="376" type="curve" smooth="yes" name="dh05"/>
      <point x="827" y="416.667"/>
      <point x="815.667" y="450.333"/>
      <point x="793" y="477" type="curve" smooth="yes"/>
      <point x="771.667" y="501"/>
      <point x="740.667" y="518.667"/>
      <point x="694" y="528" type="curve"/>
    </contour>
  </outline>
</glyph>
<glyph name="percent" format="1">
  <advance width="1233"/>
  <unicode hex="0025"/>
  <outline>
    <contour>
      <point x="352" y="793" type="curve" smooth="yes" name="dv05"/>
      <point x="263.333" y="793"/>
      <point x="188" y="824"/>
      <point x="126" y="886" type="curve" smooth="yes"/>
      <point x="66" y="946"/>
      <point x="33" y="1018.67"/>
      <point x="33" y="1112" type="curve" smooth="yes" name="dh01"/>
      <point x="33" y="1201.33"/>
      <point x="64" y="1277"/>
      <point x="126" y="1339" type="curve" smooth="yes"/>
      <point x="188" y="1401"/>
      <point x="263.333" y="1432"/>
      <point x="352" y="1432" type="curve" smooth="yes" name="dv02"/>
      <point x="531.186" y="1432"/>
      <point x="672" y="1291.19"/>
      <point x="672" y="1112" type="curve" smooth="yes" name="dh03"/>
      <point x="672" y="1023.33"/>
      <point x="641" y="948"/>
      <point x="579" y="886" type="curve" smooth="yes"/>
      <point x="519" y="826"/>
      <point x="444" y="793"/>
    </contour>
    <contour>
      <point x="352" y="975" type="curve" smooth="yes" name="dv06"/>
      <point x="390.667" y="975"/>
      <point x="423.333" y="988.333"/>
      <point x="450" y="1015" type="curve" smooth="yes"/>
      <point x="476" y="1041"/>
      <point x="489" y="1073.33"/>
      <point x="489" y="1112" type="curve" smooth="yes" name="dh02"/>
      <point x="489" y="1188"/>
      <point x="428" y="1249"/>
      <point x="352" y="1249" type="curve" smooth="yes" name="dv01"/>
      <point x="314" y="1249"/>
      <point x="281.667" y="1236"/>
      <point x="255" y="1210" type="curve" smooth="yes"/>
      <point x="228.333" y="1183.33"/>
      <point x="215" y="1150.67"/>
      <point x="215" y="1112" type="curve" smooth="yes" name="hr01"/>
      <point x="215" y="1068"/>
      <point x="231" y="1039"/>
      <point x="255" y="1015" type="curve" smooth="yes" name="hr02"/>
      <point x="281.667" y="988.333"/>
      <point x="314" y="975"/>
    </contour>
    <contour>
      <point x="48" y="561" type="line" name="hr03"/>
      <point x="1191" y="997" type="line" name="ih01"/>
      <point x="1191" y="883" type="line"/>
      <point x="52" y="451" type="line" name="ih02"/>
    </contour>
    <contour>
      <point x="898" y="0" type="curve" smooth="yes" name="ab01"/>
      <point x="803.333" y="0"/>
      <point x="724" y="40"/>
      <point x="672" y="92" type="curve" smooth="yes"/>
      <point x="608" y="156"/>
      <point x="580" y="238.333"/>
      <point x="580" y="321" type="curve" smooth="yes" name="ih03"/>
      <point x="580" y="405"/>
      <point x="610.667" y="483.333"/>
      <point x="672" y="546" type="curve" smooth="yes"/>
      <point x="729.333" y="604.667"/>
      <point x="807.333" y="639"/>
      <point x="898" y="639" type="curve" smooth="yes" name="dv04"/>
      <point x="988.667" y="639"/>
      <point x="1065" y="605.667"/>
      <point x="1125" y="547" type="curve" smooth="yes"/>
      <point x="1182.33" y="491"/>
      <point x="1219" y="412"/>
      <point x="1219" y="320" type="curve" smooth="yes" name="dh05"/>
      <point x="1219" y="233.333"/>
      <point x="1186" y="153"/>
      <point x="1126" y="93" type="curve" smooth="yes"/>
      <point x="1070" y="37"/>
      <point x="988.667" y="0"/>
    </contour>
    <contour>
      <point x="898" y="182" type="curve" smooth="yes" name="sv01"/>
      <point x="975.333" y="182"/>
      <point x="1036" y="243"/>
      <point x="1036" y="319" type="curve" smooth="yes" name="dh04"/>
      <point x="1036" y="357"/>
      <point x="1022.33" y="389.667"/>
      <point x="995" y="417" type="curve" smooth="yes"/>
      <point x="968.333" y="443.667"/>
      <point x="934" y="457"/>
      <point x="898" y="457" type="curve" smooth="yes" name="dv03"/>
      <point x="860" y="457"/>
      <point x="827.667" y="443.667"/>
      <point x="801" y="417" type="curve" smooth="yes"/>
      <point x="774.333" y="390.333"/>
      <point x="762" y="355"/>
      <point x="762" y="319" type="curve" smooth="yes" name="sh01"/>
      <point x="762" y="279"/>
      <point x="778.333" y="243.667"/>
      <point x="801" y="221" type="curve" smooth="yes"/>
      <point x="827" y="195"/>
      <point x="859.333" y="182"/>
    </contour>
  </outline>
</glyph>
<glyph name="ampersand" format="1">
  <advance width="1233"/>
  <unicode hex="0026"/>
  <outline>
    <contour>
      <point x="537" y="-29" type="curve" smooth="yes" name="dv01"/>
      <point x="389.667" y="-29"/>
      <point x="269.333" y="14.6667"/>
      <point x="176" y="102" type="curve" smooth="yes"/>
      <point x="83.3333" y="188.667"/>
      <point x="37" y="302"/>
      <point x="37" y="442" type="curve" smooth="yes" name="dh01"/>
      <point x="37" y="546"/>
      <point x="61.3333" y="628.667"/>
      <point x="108" y="706" type="curve" smooth="yes"/>
      <point x="156" y="786"/>
      <point x="223.667" y="853"/>
      <point x="317" y="913" type="curve"/>
      <point x="281" y="970.333"/>
      <point x="257.667" y="1018"/>
      <point x="243" y="1058" type="curve" smooth="yes"/>
      <point x="227" y="1102"/>
      <point x="219" y="1142.33"/>
      <point x="219" y="1189" type="curve" smooth="yes" name="ih01"/>
      <point x="219" y="1290.33"/>
      <point x="254.667" y="1374.33"/>
      <point x="328" y="1433" type="curve" smooth="yes"/>
      <point x="400.667" y="1491"/>
      <point x="505.667" y="1520"/>
      <point x="643" y="1520" type="curve" smooth="yes" name="at01"/>
      <point x="693.667" y="1520"/>
      <point x="739.333" y="1515.67"/>
      <point x="786" y="1509" type="curve" smooth="yes" name="at02"/>
      <point x="839.333" y="1501"/>
      <point x="877.333" y="1491.67"/>
      <point x="924" y="1477" type="curve"/>
      <point x="924" y="1221" type="line" name="ih02"/>
      <point x="837.88" y="1270.21"/>
      <point x="755.559" y="1294"/>
      <point x="663" y="1294" type="curve" smooth="yes" name="hr01"/>
      <point x="612.333" y="1294"/>
      <point x="569.667" y="1284.67"/>
      <point x="543" y="1266" type="curve" smooth="yes"/>
      <point x="515.667" y="1246.67"/>
      <point x="502" y="1220"/>
      <point x="502" y="1186" type="curve" smooth="yes" name="sh01"/>
      <point x="502" y="1159.33"/>
      <point x="510.333" y="1130.33"/>
      <point x="533" y="1085" type="curve" smooth="yes"/>
      <point x="554.333" y="1042.33"/>
      <point x="583" y="993.333"/>
      <point x="631" y="920" type="curve" smooth="yes"/>
      <point x="944" y="440" type="line" name="ih03"/>
      <point x="958.667" y="466"/>
      <point x="969.333" y="495"/>
      <point x="976" y="527" type="curve" smooth="yes"/>
      <point x="983.333" y="561.667"/>
      <point x="987" y="597"/>
      <point x="987" y="633" type="curve" smooth="yes" name="sh02"/>
      <point x="987" y="651.667"/>
      <point x="986.333" y="674.667"/>
      <point x="985" y="692" type="curve" smooth="yes" name="dh03"/>
      <point x="983.667" y="712"/>
      <point x="983" y="722.333"/>
      <point x="979" y="745" type="curve" name="sh03"/>
      <point x="1214" y="745" type="line"/>
      <point x="1214" y="694" type="line" smooth="yes" name="dh04"/>
      <point x="1214" y="596"/>
      <point x="1202.67" y="511.667"/>
      <point x="1180" y="441" type="curve" smooth="yes"/>
      <point x="1156.67" y="367"/>
      <point x="1121" y="302"/>
      <point x="1073" y="246" type="curve"/>
      <point x="1235" y="0" type="line" name="ab01"/>
      <point x="918" y="0" type="line"/>
      <point x="870" y="72" type="line"/>
      <point x="818" y="37.3333"/>
      <point x="769.667" y="15.6667"/>
      <point x="711" y="-3" type="curve" smooth="yes" name="ab02"/>
      <point x="655" y="-20.3333"/>
      <point x="603.667" y="-29"/>
    </contour>
    <contour>
      <point x="580" y="207" type="curve" smooth="yes" name="dv02"/>
      <point x="600" y="207"/>
      <point x="613.333" y="208.667"/>
      <point x="636" y="214" type="curve" smooth="yes"/>
      <point x="654.667" y="218"/>
      <point x="669" y="221.333"/>
      <point x="693" y="232" type="curve" smooth="yes"/>
      <point x="701" y="236" type="line" smooth="yes"/>
      <point x="728.235" y="249.618"/>
      <point x="731.932" y="251.288"/>
      <point x="748" y="262" type="curve"/>
      <point x="440" y="731" type="line"/>
      <point x="396" y="701.667"/>
      <point x="363" y="667.667"/>
      <point x="341" y="629" type="curve" smooth="yes"/>
      <point x="318.333" y="589.667"/>
      <point x="307" y="544.667"/>
      <point x="307" y="494" type="curve" smooth="yes" name="dh02"/>
      <point x="307" y="406"/>
      <point x="339.667" y="339"/>
      <point x="385" y="291" type="curve" smooth="yes" name="hr02"/>
      <point x="437.667" y="235"/>
      <point x="502.667" y="207"/>
    </contour>
  </outline>
</glyph>
<glyph name="parenleft" format="1">
  <advance width="1233"/>
  <unicode hex="0028"/>
  <outline>
    <contour>
      <point x="596" y="-270" type="line" name="hr00"/>
      <point x="497.333" y="-127.333"/>
      <point x="416" y="23.3333"/>
      <point x="360" y="186" type="curve" smooth="yes"/>
      <point x="308.667" y="336"/>
      <point x="283" y="488.333"/>
      <point x="283" y="643" type="curve" smooth="yes" name="dh01"/>
      <point x="283" y="797"/>
      <point x="309" y="949.667"/>
      <point x="361" y="1101" type="curve" smooth="yes"/>
      <point x="411.667" y="1247.67"/>
      <point x="484" y="1392.67"/>
      <point x="596" y="1554" type="curve" name="at01"/>
      <point x="824" y="1554" type="line"/>
      <point x="738.667" y="1399.33"/>
      <point x="672" y="1244.33"/>
      <point x="628" y="1091" type="curve" smooth="yes"/>
      <point x="585.333" y="943"/>
      <point x="564" y="793.667"/>
      <point x="564" y="643" type="curve" smooth="yes" name="dh02"/>
      <point x="564" y="493.667"/>
      <point x="585.333" y="344.667"/>
      <point x="628" y="196" type="curve" smooth="yes"/>
      <point x="671.333" y="44.6667"/>
      <point x="736.667" y="-110.667"/>
      <point x="824" y="-270" type="curve" name="av01"/>
    </contour>
  </outline>
</glyph>
<glyph name="parenright" format="1">
  <advance width="1233"/>
  <unicode hex="0029"/>
  <outline>
    <contour>
      <point x="409" y="-270" type="line" name="hr00"/>
      <point x="496.333" y="-110.667"/>
      <point x="561.667" y="44.6667"/>
      <point x="605" y="196" type="curve" smooth="yes"/>
      <point x="647.667" y="344.667"/>
      <point x="669" y="493.667"/>
      <point x="669" y="643" type="curve" smooth="yes" name="dh01"/>
      <point x="669" y="793.667"/>
      <point x="647.667" y="943"/>
      <point x="605" y="1091" type="curve" smooth="yes"/>
      <point x="562.333" y="1237.67"/>
      <point x="498.333" y="1392.67"/>
      <point x="409" y="1554" type="curve" name="at01"/>
      <point x="637" y="1554" type="line"/>
      <point x="743" y="1401.33"/>
      <point x="821.667" y="1250.33"/>
      <point x="873" y="1101" type="curve" smooth="yes"/>
      <point x="925" y="949"/>
      <point x="950" y="791.667"/>
      <point x="950" y="641" type="curve" smooth="yes" name="dh02"/>
      <point x="950" y="487.667"/>
      <point x="924.333" y="336"/>
      <point x="873" y="186" type="curve" smooth="yes"/>
      <point x="819.667" y="30"/>
      <point x="742.333" y="-116.667"/>
      <point x="637" y="-270" type="curve" name="av01"/>
    </contour>
  </outline>
</glyph>
<glyph name="comma" format="1">
  <advance width="1233"/>
  <unicode hex="002C"/>
  <outline>
    <contour>
      <point x="380" y="-275" type="line" name="hr00"/>
      <point x="394" y="-269" type="line" smooth="yes"/>
      <point x="530" y="-210.333"/>
      <point x="625.333" y="-106"/>
      <point x="636" y="34" type="curve" name="sh01"/>
      <point x="626.667" y="32.6667"/>
      <point x="621" y="32"/>
      <point x="609" y="32" type="curve" smooth="yes"/>
      <point x="566.333" y="32"/>
      <point x="524" y="45.6667"/>
      <point x="492" y="75" type="curve" smooth="yes"/>
      <point x="461.333" y="101.667"/>
      <point x="443" y="138.667"/>
      <point x="443" y="196" type="curve" smooth="yes" name="dh01"/>
      <point x="443" y="214.667"/>
      <point x="445" y="229.333"/>
      <point x="449" y="244" type="curve" smooth="yes"/>
      <point x="458.855" y="278.492"/>
      <point x="466.446" y="296.957"/>
      <point x="494" y="319" type="curve" smooth="yes"/>
      <point x="512.667" y="335"/>
      <point x="528.333" y="345"/>
      <point x="551" y="353" type="curve" smooth="yes" name="av02"/>
      <point x="571" y="359.667"/>
      <point x="591.333" y="364"/>
      <point x="618" y="364" type="curve" smooth="yes" name="av03"/>
      <point x="640.667" y="364"/>
      <point x="657.333" y="361.333"/>
      <point x="676" y="356" type="curve" smooth="yes" name="av04"/>
      <point x="694" y="350.667"/>
      <point x="710.667" y="342.333"/>
      <point x="726" y="331" type="curve" smooth="yes"/>
      <point x="742" y="319"/>
      <point x="753.333" y="306.333"/>
      <point x="764" y="289" type="curve"/>
      <point x="797.333" y="242.333"/>
      <point x="813" y="174.333"/>
      <point x="813" y="93" type="curve" smooth="yes" name="dh02"/>
      <point x="813" y="34.3333"/>
      <point x="805" y="-20.3333"/>
      <point x="789" y="-71" type="curve" smooth="yes"/>
      <point x="774.333" y="-117.667"/>
      <point x="752.667" y="-164.333"/>
      <point x="718" y="-211" type="curve" smooth="yes" name="hr01"/>
      <point x="652.667" y="-300.333"/>
      <point x="564.333" y="-358.333"/>
      <point x="451" y="-401" type="curve" smooth="yes"/>
      <point x="438" y="-406" type="line" name="av01"/>
    </contour>
  </outline>
</glyph>
<glyph name="period" format="1">
  <advance width="1233"/>
  <unicode hex="002E"/>
  <outline>
    <contour>
      <point x="612" y="-42" type="curve" smooth="yes" name="hr00"/>
      <point x="560" y="-42"/>
      <point x="521.333" y="-23.3333"/>
      <point x="488" y="10" type="curve" smooth="yes"/>
      <point x="453.333" y="44.6667"/>
      <point x="436" y="88.3333"/>
      <point x="436" y="141" type="curve" smooth="yes" name="dh01"/>
      <point x="436" y="195.667"/>
      <point x="453.333" y="240.333"/>
      <point x="488" y="275" type="curve" smooth="yes"/>
      <point x="522" y="309"/>
      <point x="563.667" y="326"/>
      <point x="613" y="326" type="curve" smooth="yes" name="dv01"/>
      <point x="661" y="326"/>
      <point x="704.333" y="309.667"/>
      <point x="739" y="275" type="curve" smooth="yes"/>
      <point x="773" y="241"/>
      <point x="790" y="196.333"/>
      <point x="790" y="141" type="curve" smooth="yes" name="dh02"/>
      <point x="790" y="87.6667"/>
      <point x="773" y="44"/>
      <point x="739" y="10" type="curve" smooth="yes"/>
      <point x="704.333" y="-24.6667"/>
      <point x="662" y="-42"/>
    </contour>
  </outline>
</glyph>
<glyph name="zero" format="1">
  <advance width="1233"/>
  <unicode hex="0030"/>
  <outline>
    <contour>
      <point x="617" y="-29" type="curve" smooth="yes" name="hr00"/>
      <point x="451.667" y="-29"/>
      <point x="328" y="35.6667"/>
      <point x="246" y="165" type="curve" smooth="yes"/>
      <point x="164" y="293.667"/>
      <point x="123" y="487"/>
      <point x="123" y="745" type="curve" smooth="yes" name="sh01"/>
      <point x="123" y="1003.67"/>
      <point x="164" y="1197.67"/>
      <point x="246" y="1327" type="curve" smooth="yes"/>
      <point x="328" y="1455.67"/>
      <point x="451.333" y="1520"/>
      <point x="616" y="1520" type="curve" smooth="yes" name="at01"/>
      <point x="781.333" y="1520"/>
      <point x="905" y="1455.67"/>
      <point x="987" y="1327" type="curve" smooth="yes"/>
      <point x="1069" y="1197.67"/>
      <point x="1110" y="1003.67"/>
      <point x="1110" y="745" type="curve" smooth="yes" name="sh04"/>
      <point x="1110" y="227.667"/>
      <point x="946.333" y="-29"/>
    </contour>
    <contour>
      <point x="616" y="221" type="curve" smooth="yes" name="dv01"/>
      <point x="684.667" y="221"/>
      <point x="734.667" y="262.667"/>
      <point x="766" y="346" type="curve" smooth="yes"/>
      <point x="797.333" y="430"/>
      <point x="813" y="563"/>
      <point x="813" y="745" type="curve" smooth="yes" name="sh03"/>
      <point x="813" y="927.667"/>
      <point x="797.333" y="1061"/>
      <point x="766" y="1145" type="curve" smooth="yes"/>
      <point x="734.667" y="1228.33"/>
      <point x="684.667" y="1270"/>
      <point x="616" y="1270" type="curve" smooth="yes" name="sv01"/>
      <point x="548" y="1270"/>
      <point x="498.333" y="1228.33"/>
      <point x="467" y="1145" type="curve" smooth="yes"/>
      <point x="435.667" y="1061"/>
      <point x="420" y="927.667"/>
      <point x="420" y="745" type="curve" smooth="yes" name="sh05"/>
      <point x="420" y="563"/>
      <point x="435.667" y="430"/>
      <point x="467" y="346" type="curve" smooth="yes"/>
      <point x="498.333" y="262.667"/>
      <point x="548" y="221"/>
    </contour>
    <contour>
      <point x="617" y="460" type="curve" smooth="yes"/>
      <point x="594.828" y="460"/>
      <point x="583.863" y="517.716"/>
      <point x="576" y="578" type="curve" name="sh06"/>
      <point x="570.616" y="629.143"/>
      <point x="564" y="712.349"/>
      <point x="564" y="749" type="curve" smooth="yes" name="sh02"/>
      <point x="564" y="775.19"/>
      <point x="566.072" y="854.222"/>
      <point x="574" y="915" type="curve" name="sh07"/>
      <point x="582.667" y="993"/>
      <point x="596.333" y="1032"/>
      <point x="615" y="1032" type="curve" smooth="yes"/>
      <point x="635" y="1032"/>
      <point x="650" y="982.333"/>
      <point x="658" y="913" type="curve" name="sh09"/>
      <point x="663.294" y="857.416"/>
      <point x="669" y="779.443"/>
      <point x="669" y="743" type="curve" smooth="yes" name="sh08"/>
      <point x="669" y="720.21"/>
      <point x="667.979" y="645.488"/>
      <point x="660" y="579" type="curve" smooth="yes" name="sh10"/>
      <point x="650.667" y="499"/>
      <point x="635.667" y="460"/>
    </contour>
  </outline>
</glyph>
<glyph name="two" format="1">
  <advance width="1233"/>
  <unicode hex="0032"/>
  <outline>
    <contour>
      <point x="115" y="216" type="line" smooth="yes" name="hr00"/>
      <point x="115" y="241.333"/>
      <point x="122.667" y="259.333"/>
      <point x="140" y="278" type="curve" smooth="yes"/>
      <point x="275" y="422" type="line" smooth="yes"/>
      <point x="498.386" y="661.342"/>
      <point x="560.213" y="727.285"/>
      <point x="621" y="796" type="curve" smooth="yes"/>
      <point x="670.333" y="853.333"/>
      <point x="706.333" y="897.667"/>
      <point x="729" y="947" type="curve"/>
      <point x="751" y="991.667"/>
      <point x="762" y="1036.67"/>
      <point x="762" y="1082" type="curve" smooth="yes" name="dh01"/>
      <point x="762" y="1209.5"/>
      <point x="676.84" y="1288"/>
      <point x="530" y="1288" type="curve" smooth="yes" name="sv01"/>
      <point x="476" y="1288"/>
      <point x="417" y="1277.67"/>
      <point x="353" y="1257" type="curve" smooth="yes"/>
      <point x="287.667" y="1236.33"/>
      <point x="219" y="1205.67"/>
      <point x="147" y="1165" type="curve" name="iv01"/>
      <point x="147" y="1440" type="line"/>
      <point x="227" y="1469.33"/>
      <point x="301" y="1489.33"/>
      <point x="357" y="1500" type="curve" smooth="yes"/>
      <point x="423.667" y="1513.33"/>
      <point x="490.333" y="1520"/>
      <point x="557" y="1520" type="curve" smooth="yes" name="at01"/>
      <point x="702.333" y="1520"/>
      <point x="831.333" y="1486"/>
      <point x="926" y="1410" type="curve" smooth="yes"/>
      <point x="1011.33" y="1340.67"/>
      <point x="1061" y="1242.67"/>
      <point x="1061" y="1104" type="curve" smooth="yes" name="sh01"/>
      <point x="1061" y="1045.33"/>
      <point x="1052.33" y="997.667"/>
      <point x="1031" y="943" type="curve" smooth="yes"/>
      <point x="1008.33" y="887"/>
      <point x="974" y="828"/>
      <point x="930" y="772" type="curve"/>
      <point x="882.517" y="713.966"/>
      <point x="802.183" y="629.183"/>
      <point x="639" y="466" type="curve"/>
      <point x="492.427" y="316.762"/>
      <point x="455.118" y="313.809"/>
      <point x="404" y="260" type="curve" name="sv02"/>
      <point x="1063" y="260" type="line" name="dh02"/>
      <point x="1063" y="0" type="line" name="ab01"/>
      <point x="115" y="0" type="line"/>
    </contour>
  </outline>
</glyph>
<glyph name="three" format="1">
  <advance width="1233"/>
  <unicode hex="0033"/>
  <outline>
    <contour>
      <point x="555" y="-29" type="curve" smooth="yes" name="dv01"/>
      <point x="484.333" y="-29"/>
      <point x="408.333" y="-23.3333"/>
      <point x="335" y="-10" type="curve" smooth="yes"/>
      <point x="267" y="2"/>
      <point x="195.667" y="19.6667"/>
      <point x="125" y="45" type="curve"/>
      <point x="125" y="319" type="line"/>
      <point x="186.333" y="288.333"/>
      <point x="253.333" y="264"/>
      <point x="328" y="248" type="curve" smooth="yes"/>
      <point x="404" y="230.667"/>
      <point x="479.667" y="223"/>
      <point x="541" y="223" type="curve" smooth="yes" name="dv02"/>
      <point x="629" y="223"/>
      <point x="698.667" y="239.333"/>
      <point x="748" y="278" type="curve" smooth="yes" name="hr01"/>
      <point x="796" y="316.667"/>
      <point x="817" y="371"/>
      <point x="817" y="435" type="curve" smooth="yes" name="dh01"/>
      <point x="817" y="503"/>
      <point x="793.667" y="563.333"/>
      <point x="747" y="606" type="curve" smooth="yes"/>
      <point x="703" y="644.667"/>
      <point x="637" y="668"/>
      <point x="549" y="668" type="curve" smooth="yes" name="dv03"/>
      <point x="391" y="668" type="line"/>
      <point x="391" y="928" type="line"/>
      <point x="549" y="928" type="line" smooth="yes" name="dv04"/>
      <point x="621.667" y="928"/>
      <point x="678.667" y="942.667"/>
      <point x="720" y="972" type="curve" smooth="yes"/>
      <point x="762.667" y="1002.67"/>
      <point x="780" y="1044.33"/>
      <point x="780" y="1095" type="curve" smooth="yes" name="sh01"/>
      <point x="780" y="1149.67"/>
      <point x="760" y="1192.67"/>
      <point x="720" y="1224" type="curve" smooth="yes"/>
      <point x="681.333" y="1254.67"/>
      <point x="625.667" y="1270"/>
      <point x="547" y="1270" type="curve" smooth="yes" name="sv01"/>
      <point x="495" y="1270"/>
      <point x="433" y="1263.67"/>
      <point x="369" y="1249" type="curve" smooth="yes"/>
      <point x="309" y="1235.67"/>
      <point x="239.333" y="1214.67"/>
      <point x="170" y="1188" type="curve"/>
      <point x="170" y="1456" type="line"/>
      <point x="240" y="1477.33"/>
      <point x="307.667" y="1493.33"/>
      <point x="373" y="1504" type="curve" smooth="yes"/>
      <point x="441" y="1514.67"/>
      <point x="504" y="1520"/>
      <point x="564" y="1520" type="curve" smooth="yes" name="at01"/>
      <point x="722.667" y="1520"/>
      <point x="845.667" y="1485.67"/>
      <point x="933" y="1417" type="curve" smooth="yes" name="hr02"/>
      <point x="1021" y="1347.67"/>
      <point x="1065" y="1253"/>
      <point x="1065" y="1133" type="curve" smooth="yes" name="ih01"/>
      <point x="1065" y="1047.67"/>
      <point x="1043.67" y="976"/>
      <point x="989" y="916" type="curve" smooth="yes"/>
      <point x="937.667" y="858.667"/>
      <point x="865.333" y="821.667"/>
      <point x="772" y="805" type="curve" name="iv01"/>
      <point x="878.667" y="786.333"/>
      <point x="960" y="744"/>
      <point x="1016" y="678" type="curve" smooth="yes"/>
      <point x="1072" y="612.667"/>
      <point x="1100" y="527.333"/>
      <point x="1100" y="414" type="curve" smooth="yes" name="dh02"/>
      <point x="1100" y="128.606"/>
      <point x="913.173" y="-29"/>
    </contour>
  </outline>
</glyph>
<glyph name="five" format="1">
  <advance width="1233"/>
  <unicode hex="0035"/>
  <outline>
    <contour>
      <point x="533" y="-29" type="curve" smooth="yes" name="hr00"/>
      <point x="475.667" y="-29"/>
      <point x="408.333" y="-23.6667"/>
      <point x="343" y="-13" type="curve" smooth="yes"/>
      <point x="276.333" y="-2.33333"/>
      <point x="208.333" y="15"/>
      <point x="143" y="35" type="curve"/>
      <point x="143" y="301" type="line"/>
      <point x="203" y="271.667"/>
      <point x="252.667" y="254.667"/>
      <point x="314" y="240" type="curve" smooth="yes"/>
      <point x="374" y="225.333"/>
      <point x="428" y="219"/>
      <point x="488" y="219" type="curve" smooth="yes" name="dv01"/>
      <point x="593.333" y="219"/>
      <point x="672.667" y="241.333"/>
      <point x="726" y="286" type="curve" smooth="yes"/>
      <point x="780" y="330.667"/>
      <point x="807" y="393.667"/>
      <point x="807" y="475" type="curve" smooth="yes" name="ah01"/>
      <point x="807" y="643.502"/>
      <point x="697.255" y="737"/>
      <point x="508" y="737" type="curve" smooth="yes" name="dv02"/>
      <point x="461.333" y="737"/>
      <point x="407.333" y="731.333"/>
      <point x="354" y="718" type="curve" smooth="yes"/>
      <point x="299.333" y="704.667"/>
      <point x="239.667" y="681.667"/>
      <point x="193" y="659" type="curve" name="sh01"/>
      <point x="193" y="1493" type="line" name="at01"/>
      <point x="1004" y="1493" type="line"/>
      <point x="1004" y="1233" type="line" name="sv01"/>
      <point x="432" y="1233" type="line"/>
      <point x="432" y="956" type="line" name="sh02"/>
      <point x="445.333" y="961.333"/>
      <point x="478.333" y="971.667"/>
      <point x="509" y="977" type="curve" smooth="yes"/>
      <point x="533" y="981"/>
      <point x="570" y="983"/>
      <point x="598" y="983" type="curve" smooth="yes" name="dv03"/>
      <point x="739.333" y="983"/>
      <point x="867.667" y="934.667"/>
      <point x="957" y="844" type="curve" smooth="yes"/>
      <point x="1043.67" y="756"/>
      <point x="1094" y="630.333"/>
      <point x="1094" y="477" type="curve" smooth="yes" name="sh03"/>
      <point x="1094" y="163.494"/>
      <point x="887.641" y="-29"/>
    </contour>
  </outline>
</glyph>
<glyph name="six" format="1">
  <advance width="1233"/>
  <unicode hex="0036"/>
  <outline>
    <contour>
      <point x="644" y="-31" type="curve" smooth="yes" name="dv01"/>
      <point x="469.333" y="-31"/>
      <point x="341.333" y="26.3333"/>
      <point x="256" y="153" type="curve" smooth="yes"/>
      <point x="168" y="282.333"/>
      <point x="131" y="476"/>
      <point x="131" y="724" type="curve" smooth="yes" name="dh01"/>
      <point x="131" y="988"/>
      <point x="174" y="1188.67"/>
      <point x="282" y="1326" type="curve" smooth="yes"/>
      <point x="383.333" y="1454"/>
      <point x="536.333" y="1518"/>
      <point x="731" y="1518" type="curve" smooth="yes" name="at01"/>
      <point x="785.667" y="1518"/>
      <point x="829.333" y="1513.67"/>
      <point x="880" y="1503" type="curve" smooth="yes"/>
      <point x="928.667" y="1493"/>
      <point x="978.667" y="1478"/>
      <point x="1030" y="1458" type="curve"/>
      <point x="1030" y="1190" type="line" name="ih01"/>
      <point x="976.667" y="1220.67"/>
      <point x="927" y="1243.33"/>
      <point x="879" y="1258" type="curve" smooth="yes"/>
      <point x="831" y="1272.67"/>
      <point x="784" y="1280"/>
      <point x="738" y="1280" type="curve" smooth="yes" name="sv01"/>
      <point x="526" y="1280"/>
      <point x="414.667" y="1136.33"/>
      <point x="408" y="855" type="curve" name="dh02"/>
      <point x="438.667" y="897.667"/>
      <point x="481.333" y="933"/>
      <point x="528" y="953" type="curve" smooth="yes"/>
      <point x="570.667" y="971.667"/>
      <point x="628.667" y="985"/>
      <point x="702" y="985" type="curve" smooth="yes" name="dv04"/>
      <point x="834" y="985"/>
      <point x="940" y="943"/>
      <point x="1012" y="859" type="curve" smooth="yes"/>
      <point x="1084" y="776.333"/>
      <point x="1122" y="653.667"/>
      <point x="1122" y="495" type="curve" smooth="yes" name="hr01"/>
      <point x="1122" y="333.667"/>
      <point x="1081.67" y="198"/>
      <point x="999" y="106" type="curve" smooth="yes"/>
      <point x="915" y="12.6667"/>
      <point x="796" y="-31"/>
    </contour>
    <contour>
      <point x="643" y="207" type="curve" smooth="yes" name="dv02"/>
      <point x="703" y="207"/>
      <point x="755" y="227.667"/>
      <point x="791" y="277" type="curve" smooth="yes"/>
      <point x="825" y="323"/>
      <point x="842" y="389.667"/>
      <point x="842" y="477" type="curve" smooth="yes" name="dh03"/>
      <point x="842" y="563.667"/>
      <point x="825" y="630.667"/>
      <point x="791" y="678" type="curve" smooth="yes"/>
      <point x="759" y="722"/>
      <point x="710" y="748"/>
      <point x="642" y="748" type="curve" smooth="yes" name="dv03"/>
      <point x="575.333" y="748"/>
      <point x="529" y="723"/>
      <point x="497" y="679" type="curve" smooth="yes"/>
      <point x="463" y="631.667"/>
      <point x="446" y="564.667"/>
      <point x="446" y="478" type="curve" smooth="yes" name="sh01"/>
      <point x="446" y="386"/>
      <point x="465" y="320"/>
      <point x="497" y="276" type="curve" smooth="yes"/>
      <point x="531.667" y="228"/>
      <point x="583" y="207"/>
    </contour>
  </outline>
</glyph>
<glyph name="eight" format="1">
  <advance width="1233"/>
  <unicode hex="0038"/>
  <outline>
    <contour>
      <point x="617" y="-29" type="curve" smooth="yes" name="dv01"/>
      <point x="453" y="-29"/>
      <point x="336" y="13.3333"/>
      <point x="256" y="88" type="curve" smooth="yes"/>
      <point x="170.667" y="166.667"/>
      <point x="129" y="279.333"/>
      <point x="129" y="414" type="curve" smooth="yes" name="dh01"/>
      <point x="129" y="515.333"/>
      <point x="153.333" y="590.667"/>
      <point x="200" y="656" type="curve" smooth="yes"/>
      <point x="247.333" y="720.667"/>
      <point x="313" y="765.667"/>
      <point x="397" y="791" type="curve" name="ih02"/>
      <point x="321.667" y="817"/>
      <point x="264.333" y="858"/>
      <point x="225" y="914" type="curve" smooth="yes"/>
      <point x="186.333" y="970"/>
      <point x="166" y="1035.67"/>
      <point x="166" y="1121" type="curve" smooth="yes" name="ih01"/>
      <point x="166" y="1242.33"/>
      <point x="205.667" y="1340"/>
      <point x="287" y="1412" type="curve" smooth="yes"/>
      <point x="367.667" y="1484"/>
      <point x="477.333" y="1520"/>
      <point x="616" y="1520" type="curve" smooth="yes" name="at01"/>
      <point x="754.667" y="1520"/>
      <point x="864.667" y="1484"/>
      <point x="946" y="1412" type="curve" smooth="yes"/>
      <point x="1026.67" y="1340"/>
      <point x="1067" y="1242.67"/>
      <point x="1067" y="1120" type="curve" smooth="yes" name="dh04"/>
      <point x="1067" y="1038"/>
      <point x="1047.67" y="969.667"/>
      <point x="1009" y="915" type="curve" smooth="yes" name="hr01"/>
      <point x="970.333" y="859"/>
      <point x="914" y="817.667"/>
      <point x="840" y="791" type="curve" name="ih03"/>
      <point x="921.333" y="766.333"/>
      <point x="986" y="721"/>
      <point x="1034" y="655" type="curve" smooth="yes"/>
      <point x="1080.67" y="589.667"/>
      <point x="1104" y="514"/>
      <point x="1104" y="414" type="curve" smooth="yes" name="sh02"/>
      <point x="1104" y="279.333"/>
      <point x="1062.33" y="166.667"/>
      <point x="977" y="88" type="curve" smooth="yes"/>
      <point x="891.667" y="10"/>
      <point x="771.667" y="-29"/>
    </contour>
    <contour>
      <point x="616" y="903" type="curve" smooth="yes" name="dv03"/>
      <point x="674.667" y="903"/>
      <point x="721" y="920.333"/>
      <point x="755" y="955" type="curve" smooth="yes"/>
      <point x="788.333" y="989.667"/>
      <point x="805" y="1035.67"/>
      <point x="805" y="1093" type="curve" smooth="yes" name="dh03"/>
      <point x="805" y="1152.33"/>
      <point x="788.333" y="1198.67"/>
      <point x="755" y="1232" type="curve" smooth="yes"/>
      <point x="724.333" y="1262.67"/>
      <point x="677.333" y="1282"/>
      <point x="616" y="1282" type="curve" smooth="yes" name="hr02"/>
      <point x="501.333" y="1282"/>
      <point x="428" y="1209"/>
      <point x="428" y="1093" type="curve" smooth="yes" name="sh01"/>
      <point x="428" y="1035.67"/>
      <point x="445" y="989.667"/>
      <point x="479" y="955" type="curve" smooth="yes"/>
      <point x="515" y="917.667"/>
      <point x="560" y="903"/>
    </contour>
    <contour>
      <point x="616" y="209" type="curve" smooth="yes" name="hr03"/>
      <point x="680" y="209"/>
      <point x="735.667" y="229.333"/>
      <point x="777" y="272" type="curve" smooth="yes"/>
      <point x="815.667" y="310.667"/>
      <point x="838" y="369.333"/>
      <point x="838" y="440" type="curve" smooth="yes" name="ih04"/>
      <point x="838" y="506.667"/>
      <point x="818.333" y="561.333"/>
      <point x="777" y="604" type="curve" smooth="yes"/>
      <point x="739.667" y="642.667"/>
      <point x="686.667" y="666"/>
      <point x="616" y="666" type="curve" smooth="yes" name="dv02"/>
      <point x="552" y="666"/>
      <point x="497.333" y="646.667"/>
      <point x="456" y="604" type="curve" smooth="yes"/>
      <point x="415.333" y="562.667"/>
      <point x="395" y="507.667"/>
      <point x="395" y="439" type="curve" smooth="yes" name="dh02"/>
      <point x="395" y="371"/>
      <point x="414.667" y="313.667"/>
      <point x="456" y="271" type="curve" smooth="yes"/>
      <point x="492" y="233.667"/>
      <point x="548" y="209"/>
    </contour>
  </outline>
</glyph>
<glyph name="nine" format="1">
  <advance width="1233"/>
  <unicode hex="0039"/>
  <outline>
    <contour>
      <point x="502" y="-39" type="curve" smooth="yes" name="dv01"/>
      <point x="448.667" y="-39"/>
      <point x="403.333" y="-34.6667"/>
      <point x="354" y="-24" type="curve" smooth="yes"/>
      <point x="303.333" y="-13.3333"/>
      <point x="253.667" y="1.33333"/>
      <point x="203" y="20" type="curve"/>
      <point x="203" y="289" type="line" name="ih01"/>
      <point x="256.333" y="258.333"/>
      <point x="305.667" y="235.667"/>
      <point x="355" y="221" type="curve" smooth="yes"/>
      <point x="401.667" y="206.333"/>
      <point x="448.333" y="199"/>
      <point x="495" y="199" type="curve" smooth="yes" name="dv02"/>
      <point x="596.333" y="199"/>
      <point x="679.667" y="232.667"/>
      <point x="737" y="306" type="curve" smooth="yes"/>
      <point x="790.333" y="374"/>
      <point x="822.333" y="478.667"/>
      <point x="825" y="624" type="curve" name="sh01"/>
      <point x="761.676" y="537.879"/>
      <point x="665.504" y="494"/>
      <point x="533" y="494" type="curve" smooth="yes" name="dv03"/>
      <point x="399.667" y="494"/>
      <point x="293.333" y="536.667"/>
      <point x="220" y="622" type="curve" smooth="yes"/>
      <point x="148" y="706"/>
      <point x="111" y="827"/>
      <point x="111" y="983" type="curve" smooth="yes" name="dh01"/>
      <point x="111" y="1145.67"/>
      <point x="151.667" y="1278"/>
      <point x="233" y="1370" type="curve" smooth="yes"/>
      <point x="314.333" y="1461.33"/>
      <point x="433.333" y="1507"/>
      <point x="590" y="1507" type="curve" smooth="yes" name="at01"/>
      <point x="775.333" y="1507"/>
      <point x="897" y="1441.33"/>
      <point x="977" y="1324" type="curve" smooth="yes"/>
      <point x="1067.67" y="1190.67"/>
      <point x="1102" y="993.333"/>
      <point x="1102" y="756" type="curve" smooth="yes" name="dh03"/>
      <point x="1102" y="462.456"/>
      <point x="1048.14" y="277.841"/>
      <point x="952" y="155" type="curve" smooth="yes"/>
      <point x="848" y="21.6667"/>
      <point x="691.333" y="-39"/>
    </contour>
    <contour>
      <point x="589" y="741" type="curve" smooth="yes" name="dv04"/>
      <point x="653" y="741"/>
      <point x="702" y="764.333"/>
      <point x="736" y="811" type="curve" smooth="yes"/>
      <point x="769.333" y="857.667"/>
      <point x="786" y="924.333"/>
      <point x="786" y="1011" type="curve" smooth="yes" name="hr01"/>
      <point x="786" y="1103"/>
      <point x="766.667" y="1170.33"/>
      <point x="736" y="1213" type="curve" smooth="yes"/>
      <point x="701.333" y="1259.67"/>
      <point x="651.667" y="1282"/>
      <point x="589" y="1282" type="curve" smooth="yes" name="sv01"/>
      <point x="521" y="1282"/>
      <point x="475" y="1255.67"/>
      <point x="443" y="1213" type="curve" smooth="yes"/>
      <point x="408.333" y="1166.33"/>
      <point x="391" y="1099.33"/>
      <point x="391" y="1012" type="curve" smooth="yes" name="dh02"/>
      <point x="391" y="924.667"/>
      <point x="408.333" y="857.667"/>
      <point x="443" y="811" type="curve" smooth="yes"/>
      <point x="477.667" y="764.333"/>
      <point x="523.667" y="741"/>
    </contour>
  </outline>
</glyph>
<glyph name="colon" format="1">
  <advance width="1233"/>
  <unicode hex="003A"/>
  <outline>
    <contour>
      <point x="619" y="752" type="curve" smooth="yes" name="hr00"/>
      <point x="567" y="752"/>
      <point x="524.333" y="773.667"/>
      <point x="495" y="803" type="curve" smooth="yes"/>
      <point x="459" y="839"/>
      <point x="443" y="885.333"/>
      <point x="443" y="936" type="curve" smooth="yes" name="dh01"/>
      <point x="443" y="993.333"/>
      <point x="463.333" y="1038.33"/>
      <point x="494" y="1069" type="curve" smooth="yes"/>
      <point x="528.667" y="1103.67"/>
      <point x="574.333" y="1120"/>
      <point x="621" y="1120" type="curve" smooth="yes" name="dv01"/>
      <point x="667.667" y="1120"/>
      <point x="711.333" y="1103.67"/>
      <point x="746" y="1069" type="curve" smooth="yes"/>
      <point x="776.667" y="1038.33"/>
      <point x="797" y="993"/>
      <point x="797" y="937" type="curve" smooth="yes" name="dh02"/>
      <point x="797" y="825.476"/>
      <point x="720.697" y="752"/>
    </contour>
    <contour>
      <point x="620" y="36" type="curve" smooth="yes" name="ab01"/>
      <point x="570.667" y="36"/>
      <point x="529" y="53"/>
      <point x="495" y="87" type="curve" smooth="yes"/>
      <point x="460.333" y="121.667"/>
      <point x="443" y="166"/>
      <point x="443" y="220" type="curve" smooth="yes" name="sh01"/>
      <point x="443" y="274"/>
      <point x="460.333" y="318.333"/>
      <point x="495" y="353" type="curve" smooth="yes"/>
      <point x="529" y="387"/>
      <point x="570.667" y="404"/>
      <point x="620" y="404" type="curve" smooth="yes" name="sv01"/>
      <point x="668" y="404"/>
      <point x="711.333" y="387.667"/>
      <point x="746" y="353" type="curve" smooth="yes"/>
      <point x="776.667" y="322.333"/>
      <point x="797" y="277.333"/>
      <point x="797" y="220" type="curve" smooth="yes" name="sh02"/>
      <point x="797" y="164"/>
      <point x="778" y="119"/>
      <point x="746" y="87" type="curve" smooth="yes"/>
      <point x="711.333" y="52.3333"/>
      <point x="668" y="36"/>
    </contour>
  </outline>
</glyph>
<glyph name="semicolon" format="1">
  <advance width="1233"/>
  <unicode hex="003B"/>
  <outline>
    <contour>
      <point x="609" y="695" type="curve" smooth="yes" name="dv01"/>
      <point x="554.333" y="695"/>
      <point x="509.667" y="717.333"/>
      <point x="479" y="748" type="curve" smooth="yes"/>
      <point x="440.333" y="786.667"/>
      <point x="425" y="836"/>
      <point x="425" y="888" type="curve" smooth="yes" name="dh01"/>
      <point x="425" y="948"/>
      <point x="447.333" y="996"/>
      <point x="478" y="1028" type="curve"/>
      <point x="514" y="1062.67"/>
      <point x="561.333" y="1081"/>
      <point x="612" y="1081" type="curve" smooth="yes" name="dv02"/>
      <point x="662.667" y="1081"/>
      <point x="706.333" y="1063.33"/>
      <point x="743" y="1028" type="curve"/>
      <point x="775" y="994.667"/>
      <point x="796" y="949"/>
      <point x="796" y="889" type="curve" smooth="yes" name="dh02"/>
      <point x="796" y="829"/>
      <point x="775" y="781.333"/>
      <point x="743" y="748" type="curve"/>
      <point x="709.667" y="716"/>
      <point x="662.333" y="695"/>
    </contour>
    <contour>
      <point x="373" y="-346" type="line"/>
      <point x="388" y="-339" type="line" smooth="yes"/>
      <point x="461.333" y="-308.333"/>
      <point x="528.333" y="-260.333"/>
      <point x="571" y="-207" type="curve" smooth="yes"/>
      <point x="609.667" y="-159"/>
      <point x="636.667" y="-94.3333"/>
      <point x="642" y="-21" type="curve" name="ih01"/>
      <point x="635.333" y="-22.3333"/>
      <point x="631" y="-23"/>
      <point x="629" y="-23" type="curve" name="ab01"/>
      <point x="619" y="-23" type="line" smooth="yes"/>
      <point x="572.333" y="-23"/>
      <point x="523.333" y="-8.66667"/>
      <point x="490" y="22" type="curve" smooth="yes"/>
      <point x="455.333" y="52.6667"/>
      <point x="439" y="96.6667"/>
      <point x="439" y="150" type="curve" smooth="yes" name="sh01"/>
      <point x="439" y="204"/>
      <point x="457" y="246.667"/>
      <point x="493" y="278" type="curve" smooth="yes"/>
      <point x="511.667" y="294"/>
      <point x="530.333" y="304.667"/>
      <point x="553" y="314" type="curve" smooth="yes"/>
      <point x="571.667" y="320.667"/>
      <point x="596" y="325"/>
      <point x="624" y="325" type="curve" smooth="yes" name="sv01"/>
      <point x="654.667" y="325"/>
      <point x="684.333" y="319.667"/>
      <point x="711" y="305" type="curve"/>
      <point x="737.667" y="292.333"/>
      <point x="759.333" y="273"/>
      <point x="776" y="247" type="curve" smooth="yes" name="hr01"/>
      <point x="794.667" y="219"/>
      <point x="807" y="191.667"/>
      <point x="815" y="157" type="curve"/>
      <point x="824.333" y="122.333"/>
      <point x="828" y="83.6667"/>
      <point x="828" y="41" type="curve" smooth="yes" name="sh02"/>
      <point x="828" y="-84.3333"/>
      <point x="793" y="-191.333"/>
      <point x="729" y="-278" type="curve" smooth="yes"/>
      <point x="667" y="-364"/>
      <point x="573.333" y="-430.667"/>
      <point x="448" y="-478" type="curve" smooth="yes"/>
      <point x="434" y="-483" type="line" name="av01"/>
    </contour>
  </outline>
</glyph>
<glyph name="question" format="1">
  <advance width="1233"/>
  <unicode hex="003F"/>
  <outline>
    <contour>
      <point x="479" y="583" type="line" smooth="yes" name="ih01"/>
      <point x="479" y="638.333"/>
      <point x="489.333" y="689"/>
      <point x="510" y="735" type="curve" smooth="yes"/>
      <point x="532.667" y="784.333"/>
      <point x="568" y="832.333"/>
      <point x="628" y="891" type="curve" smooth="yes"/>
      <point x="718" y="980" type="line" smooth="yes"/>
      <point x="732.667" y="994.667"/>
      <point x="754.333" y="1016.33"/>
      <point x="769" y="1035" type="curve" smooth="yes"/>
      <point x="784.333" y="1053"/>
      <point x="795" y="1067.67"/>
      <point x="801" y="1079" type="curve" smooth="yes"/>
      <point x="807.667" y="1089.67"/>
      <point x="814" y="1106.33"/>
      <point x="818" y="1121" type="curve" smooth="yes"/>
      <point x="820.667" y="1129"/>
      <point x="823" y="1147.67"/>
      <point x="823" y="1165" type="curve" smooth="yes"/>
      <point x="823" y="1175.67"/>
      <point x="822.667" y="1194.33"/>
      <point x="820" y="1205" type="curve" smooth="yes"/>
      <point x="818.667" y="1210.33"/>
      <point x="814.333" y="1229.33"/>
      <point x="809" y="1240" type="curve" smooth="yes"/>
      <point x="799.324" y="1261.77"/>
      <point x="784.215" y="1279.14"/>
      <point x="763" y="1298" type="curve"/>
      <point x="744.333" y="1312.67"/>
      <point x="730" y="1320.67"/>
      <point x="718" y="1326" type="curve" smooth="yes"/>
      <point x="711.333" y="1328.67"/>
      <point x="685.667" y="1339"/>
      <point x="663" y="1343" type="curve" smooth="yes" name="hr01"/>
      <point x="643" y="1347"/>
      <point x="621.667" y="1349"/>
      <point x="599" y="1349" type="curve" smooth="yes"/>
      <point x="562.321" y="1349"/>
      <point x="533.706" y="1345.85"/>
      <point x="493" y="1335" type="curve" smooth="yes"/>
      <point x="474.333" y="1329.67"/>
      <point x="449.333" y="1321.33"/>
      <point x="436" y="1316" type="curve" smooth="yes"/>
      <point x="384" y="1296"/>
      <point x="317" y="1260.33"/>
      <point x="253" y="1215" type="curve" smooth="yes"/>
      <point x="229" y="1198" type="line" name="iv01"/>
      <point x="229" y="1423" type="line"/>
      <point x="236" y="1428" type="line" smooth="yes"/>
      <point x="300" y="1466.67"/>
      <point x="364.667" y="1495.67"/>
      <point x="430" y="1515" type="curve" smooth="yes"/>
      <point x="494" y="1533.67"/>
      <point x="561.333" y="1543"/>
      <point x="632" y="1543" type="curve" smooth="yes" name="av01"/>
      <point x="697.333" y="1543"/>
      <point x="755" y="1534.67"/>
      <point x="805" y="1518" type="curve" smooth="yes"/>
      <point x="855.667" y="1500.67"/>
      <point x="900.667" y="1475.67"/>
      <point x="940" y="1443" type="curve" smooth="yes"/>
      <point x="976" y="1412.33"/>
      <point x="1006" y="1372.67"/>
      <point x="1026" y="1326" type="curve" smooth="yes"/>
      <point x="1045.33" y="1280"/>
      <point x="1055" y="1230.33"/>
      <point x="1055" y="1177" type="curve" smooth="yes"/>
      <point x="1055" y="1122.33"/>
      <point x="1043" y="1072"/>
      <point x="1019" y="1026" type="curve" smooth="yes"/>
      <point x="996.333" y="983.333"/>
      <point x="961" y="935.667"/>
      <point x="889" y="865" type="curve" smooth="yes"/>
      <point x="802" y="779" type="line" smooth="yes"/>
      <point x="772.667" y="751"/>
      <point x="763" y="739.667"/>
      <point x="747" y="721" type="curve" smooth="yes"/>
      <point x="733.667" y="705"/>
      <point x="723.667" y="686.667"/>
      <point x="717" y="676" type="curve"/>
      <point x="706.333" y="654.667"/>
      <point x="699" y="621.667"/>
      <point x="699" y="599" type="curve" smooth="yes" name="sh01"/>
      <point x="699" y="457" type="line"/>
      <point x="479" y="457" type="line"/>
    </contour>
    <contour>
      <point x="592" y="-50" type="curve" smooth="yes" name="av02"/>
      <point x="502.667" y="-50"/>
      <point x="431" y="19.6667"/>
      <point x="431" y="117" type="curve" smooth="yes" name="dh01"/>
      <point x="431" y="166.333"/>
      <point x="447.333" y="208.333"/>
      <point x="478" y="239" type="curve" smooth="yes"/>
      <point x="510" y="269.667"/>
      <point x="552" y="284"/>
      <point x="592" y="284" type="curve" smooth="yes"/>
      <point x="602.667" y="284"/>
      <point x="613.667" y="283"/>
      <point x="625" y="281" type="curve" smooth="yes"/>
      <point x="630.333" y="279.667"/>
      <point x="643.333" y="277.333"/>
      <point x="654" y="272" type="curve" smooth="yes"/>
      <point x="678.537" y="261.484"/>
      <point x="684.056" y="258.944"/>
      <point x="706" y="237" type="curve" smooth="yes"/>
      <point x="719.333" y="223.667"/>
      <point x="731.667" y="206.667"/>
      <point x="741" y="184" type="curve" smooth="yes"/>
      <point x="749" y="164"/>
      <point x="753" y="142"/>
      <point x="753" y="118" type="curve" smooth="yes" name="dh02"/>
      <point x="753" y="19.3333"/>
      <point x="681.333" y="-50"/>
    </contour>
  </outline>
</glyph>
<glyph name="at" format="1">
  <advance width="1233"/>
  <unicode hex="0040"/>
  <outline>
    <contour>
      <point x="767" y="-319" type="curve" smooth="yes" name="hr00"/>
      <point x="539" y="-319"/>
      <point x="354" y="-242"/>
      <point x="214" y="-86" type="curve" smooth="yes"/>
      <point x="75.3333" y="68.6667"/>
      <point x="6" y="279.333"/>
      <point x="6" y="546" type="curve" name="dh01"/>
      <point x="-4.41176" y="1048.22"/>
      <point x="290.588" y="1405.88"/>
      <point x="683" y="1395" type="curve" name="dv03"/>
      <point x="840.333" y="1395"/>
      <point x="953" y="1348"/>
      <point x="1033" y="1264" type="curve" smooth="yes"/>
      <point x="1117" y="1176"/>
      <point x="1159" y="1056.33"/>
      <point x="1159" y="905" type="curve" smooth="yes"/>
      <point x="1159" y="135" type="line" name="dh06"/>
      <point x="963" y="135" type="line" name="dh05"/>
      <point x="963" y="217" type="line" name="iv01"/>
      <point x="933.667" y="177"/>
      <point x="904.667" y="154.667"/>
      <point x="874" y="140" type="curve" smooth="yes"/>
      <point x="840" y="123.333"/>
      <point x="798.333" y="115"/>
      <point x="749" y="115" type="curve" smooth="yes" name="dv04"/>
      <point x="640.333" y="115"/>
      <point x="552.667" y="154.333"/>
      <point x="486" y="233" type="curve" smooth="yes"/>
      <point x="418.667" y="312.333"/>
      <point x="385" y="416.667"/>
      <point x="385" y="546" type="curve" smooth="yes" name="dh03"/>
      <point x="385" y="678"/>
      <point x="419.667" y="780"/>
      <point x="485" y="856" type="curve" smooth="yes"/>
      <point x="551.667" y="934"/>
      <point x="639.333" y="973"/>
      <point x="748" y="973" type="curve" smooth="yes" name="dv07"/>
      <point x="793.333" y="973"/>
      <point x="837.667" y="966.333"/>
      <point x="875" y="949" type="curve" smooth="yes"/>
      <point x="909.667" y="933"/>
      <point x="941.667" y="906.333"/>
      <point x="963" y="877" type="curve" name="sh01"/>
      <point x="963" y="918" type="line" smooth="yes"/>
      <point x="963" y="1008.67"/>
      <point x="938.333" y="1078.67"/>
      <point x="889" y="1128" type="curve" smooth="yes"/>
      <point x="838.333" y="1177.33"/>
      <point x="768.333" y="1202"/>
      <point x="679" y="1202" type="curve" smooth="yes" name="dv02"/>
      <point x="535" y="1202"/>
      <point x="418.667" y="1136"/>
      <point x="336" y="1020" type="curve" smooth="yes"/>
      <point x="254.667" y="906.667"/>
      <point x="205" y="742.667"/>
      <point x="205" y="544" type="curve" smooth="yes" name="dh02"/>
      <point x="205" y="329.333"/>
      <point x="264" y="164.667"/>
      <point x="356" y="54" type="curve" smooth="yes"/>
      <point x="460" y="-70"/>
      <point x="603.667" y="-127"/>
      <point x="757" y="-127" type="curve" smooth="yes" name="dv01"/>
      <point x="810.333" y="-127"/>
      <point x="866.333" y="-120"/>
      <point x="917" y="-104" type="curve" smooth="yes"/>
      <point x="965" y="-89.3333"/>
      <point x="1014.33" y="-63.6667"/>
      <point x="1061" y="-33" type="curve"/>
      <point x="1153" y="-209" type="line"/>
      <point x="1097" y="-247.667"/>
      <point x="1033" y="-276"/>
      <point x="977" y="-292" type="curve" smooth="yes"/>
      <point x="918.333" y="-309.333"/>
      <point x="848.333" y="-319"/>
    </contour>
    <contour>
      <point x="782" y="303" type="curve" smooth="yes" name="dv05"/>
      <point x="900.667" y="303"/>
      <point x="973" y="393"/>
      <point x="973" y="545" type="curve" smooth="yes" name="sh02"/>
      <point x="973" y="619.667"/>
      <point x="956" y="678.667"/>
      <point x="922" y="722" type="curve" smooth="yes"/>
      <point x="888" y="764.667"/>
      <point x="841.333" y="786"/>
      <point x="782" y="786" type="curve" smooth="yes" name="dv06"/>
      <point x="715.333" y="786"/>
      <point x="673.667" y="760.667"/>
      <point x="643" y="722" type="curve" smooth="yes"/>
      <point x="609" y="678.667"/>
      <point x="592" y="619.667"/>
      <point x="592" y="545" type="curve" smooth="yes" name="dh04"/>
      <point x="592" y="469"/>
      <point x="609" y="409.667"/>
      <point x="643" y="367" type="curve" smooth="yes"/>
      <point x="673.667" y="328.333"/>
      <point x="715.333" y="303"/>
    </contour>
  </outline>
</glyph>
<glyph name="B" format="1">
  <advance width="1233"/>
  <unicode hex="0042"/>
  <outline>
    <contour>
      <point x="125" y="1495" type="line" name="dh01"/>
      <point x="606" y="1495" type="line" smooth="yes"/>
      <point x="772.667" y="1495"/>
      <point x="897.667" y="1463.67"/>
      <point x="981" y="1401" type="curve" smooth="yes"/>
      <point x="1064.33" y="1337.67"/>
      <point x="1106" y="1243.33"/>
      <point x="1106" y="1118" type="curve" smooth="yes" name="dh04"/>
      <point x="1106" y="1022.67"/>
      <point x="1081.33" y="947.667"/>
      <point x="1032" y="893" type="curve" smooth="yes"/>
      <point x="983.333" y="839.667"/>
      <point x="911" y="808.333"/>
      <point x="815" y="799" type="curve" name="ih01"/>
      <point x="932.333" y="788.333"/>
      <point x="1017" y="748"/>
      <point x="1073" y="684" type="curve" smooth="yes"/>
      <point x="1130.33" y="618.667"/>
      <point x="1159" y="527"/>
      <point x="1159" y="409" type="curve" smooth="yes" name="sh01"/>
      <point x="1159" y="122.333"/>
      <point x="996.667" y="0"/>
      <point x="606" y="0" type="curve" smooth="yes" name="ab01"/>
      <point x="125" y="0" type="line"/>
    </contour>
    <contour>
      <point x="606" y="913" type="line" smooth="yes" name="hr01"/>
      <point x="686" y="913"/>
      <point x="734" y="926"/>
      <point x="766" y="954" type="curve" smooth="yes"/>
      <point x="796.667" y="980.667"/>
      <point x="813" y="1018.33"/>
      <point x="813" y="1085" type="curve" smooth="yes" name="dh03"/>
      <point x="813" y="1143.67"/>
      <point x="799.667" y="1187.33"/>
      <point x="765" y="1218" type="curve" smooth="yes"/>
      <point x="737" y="1242"/>
      <point x="692.667" y="1260"/>
      <point x="606" y="1260" type="curve" smooth="yes" name="sv01"/>
      <point x="410" y="1260" type="line" name="dh02"/>
      <point x="410" y="913" type="line" name="hr02"/>
    </contour>
    <contour>
      <point x="606" y="236" type="line" smooth="yes" name="sv02"/>
      <point x="700" y="236"/>
      <point x="766" y="252"/>
      <point x="804" y="284" type="curve" smooth="yes"/>
      <point x="841.333" y="316"/>
      <point x="860" y="371.667"/>
      <point x="860" y="451" type="curve" smooth="yes" name="ih02"/>
      <point x="860" y="612.333"/>
      <point x="787.333" y="678"/>
      <point x="606" y="678" type="curve" smooth="yes" name="dv01"/>
      <point x="410" y="678" type="line" name="sh02"/>
      <point x="410" y="236" type="line"/>
    </contour>
  </outline>
</glyph>
<glyph name="D" format="1">
  <advance width="1233"/>
  <unicode hex="0044"/>
  <outline>
    <contour>
      <point x="137" y="1493" type="line" name="hr00"/>
      <point x="453" y="1493" type="line" smooth="yes"/>
      <point x="697" y="1493"/>
      <point x="872.667" y="1435"/>
      <point x="980" y="1319" type="curve" smooth="yes"/>
      <point x="1085.33" y="1204.33"/>
      <point x="1141" y="1017.67"/>
      <point x="1141" y="747" type="curve" smooth="yes" name="sh01"/>
      <point x="1141" y="483.667"/>
      <point x="1087.33" y="293.333"/>
      <point x="980" y="176" type="curve" smooth="yes"/>
      <point x="872.667" y="58.6667"/>
      <point x="697" y="0"/>
      <point x="453" y="0" type="curve" smooth="yes" name="ab01"/>
      <point x="137" y="0" type="line"/>
    </contour>
    <contour>
      <point x="512" y="266" type="line" smooth="yes" name="sv01"/>
      <point x="744" y="266"/>
      <point x="834" y="398.667"/>
      <point x="834" y="748" type="curve" smooth="yes" name="ah01"/>
      <point x="834" y="921.333"/>
      <point x="809.333" y="1044.67"/>
      <point x="760" y="1118" type="curve" smooth="yes"/>
      <point x="711.333" y="1190.67"/>
      <point x="628.667" y="1227"/>
      <point x="512" y="1227" type="curve" smooth="yes" name="sv02"/>
      <point x="432" y="1227" type="line" name="sh02"/>
      <point x="432" y="266" type="line"/>
    </contour>
  </outline>
</glyph>
<glyph name="G" format="1">
  <advance width="1233"/>
  <unicode hex="0047"/>
  <outline>
    <contour>
      <point x="720" y="-29" type="curve" smooth="yes" name="dv01"/>
      <point x="529.333" y="-29"/>
      <point x="379" y="38.6667"/>
      <point x="275" y="172" type="curve" smooth="yes"/>
      <point x="175" y="300"/>
      <point x="117" y="487"/>
      <point x="117" y="747" type="curve" smooth="yes" name="dh01"/>
      <point x="117" y="995"/>
      <point x="169" y="1187.67"/>
      <point x="277" y="1321" type="curve" smooth="yes"/>
      <point x="383.667" y="1453.67"/>
      <point x="535.333" y="1520"/>
      <point x="732" y="1520" type="curve" smooth="yes" name="at01"/>
      <point x="800" y="1520"/>
      <point x="855.333" y="1512.33"/>
      <point x="914" y="1495" type="curve" smooth="yes"/>
      <point x="970.667" y="1478.33"/>
      <point x="1025" y="1453.67"/>
      <point x="1077" y="1421" type="curve" name="hr01"/>
      <point x="1077" y="1094" type="line" name="ih01"/>
      <point x="1035.67" y="1147.33"/>
      <point x="988.333" y="1187.67"/>
      <point x="935" y="1215" type="curve" smooth="yes"/>
      <point x="881.667" y="1241.67"/>
      <point x="823" y="1255"/>
      <point x="759" y="1255" type="curve" smooth="yes" name="sv01"/>
      <point x="645.667" y="1255"/>
      <point x="561.667" y="1213"/>
      <point x="507" y="1129" type="curve" smooth="yes"/>
      <point x="451.667" y="1043.67"/>
      <point x="424" y="916.333"/>
      <point x="424" y="747" type="curve" smooth="yes" name="dh02"/>
      <point x="424" y="580.333"/>
      <point x="450.667" y="453"/>
      <point x="504" y="365" type="curve" smooth="yes"/>
      <point x="554.667" y="282.333"/>
      <point x="630" y="236"/>
      <point x="738" y="236" type="curve" smooth="yes" name="dv02"/>
      <point x="764.667" y="236"/>
      <point x="794.333" y="238.333"/>
      <point x="817" y="245" type="curve"/>
      <point x="846.333" y="251.667"/>
      <point x="857.333" y="259.333"/>
      <point x="872" y="270" type="curve" name="sh01"/>
      <point x="872" y="555" type="line"/>
      <point x="670" y="555" type="line" name="dv03"/>
      <point x="670" y="803" type="line" name="dh03"/>
      <point x="1130" y="803" type="line" name="dh04"/>
      <point x="1130" y="119" type="line"/>
      <point x="1074" y="71"/>
      <point x="1011.67" y="34.3333"/>
      <point x="943" y="9" type="curve" smooth="yes"/>
      <point x="873.667" y="-16.3333"/>
      <point x="804" y="-29"/>
    </contour>
  </outline>
</glyph>
<glyph name="J" format="1">
  <advance width="1233"/>
  <unicode hex="004A"/>
  <outline>
    <contour>
      <point x="524" y="-29" type="curve" smooth="yes" name="hr00"/>
      <point x="446.667" y="-29"/>
      <point x="387.333" y="-20.3333"/>
      <point x="318" y="-3" type="curve" smooth="yes"/>
      <point x="250" y="14.3333"/>
      <point x="183.667" y="38"/>
      <point x="109" y="74" type="curve"/>
      <point x="109" y="416" type="line"/>
      <point x="166.333" y="356"/>
      <point x="227.667" y="312.667"/>
      <point x="293" y="282" type="curve" smooth="yes"/>
      <point x="357" y="251.333"/>
      <point x="422.667" y="236"/>
      <point x="490" y="236" type="curve" smooth="yes" name="dv01"/>
      <point x="643.333" y="236"/>
      <point x="713" y="309.667"/>
      <point x="713" y="479" type="curve" smooth="yes" name="dh01"/>
      <point x="713" y="1233" type="line" name="sv01"/>
      <point x="352" y="1233" type="line"/>
      <point x="352" y="1493" type="line" name="at01"/>
      <point x="1008" y="1493" type="line"/>
      <point x="1008" y="479" type="line" smooth="yes" name="dh02"/>
      <point x="1008" y="297"/>
      <point x="970" y="167"/>
      <point x="894" y="89" type="curve" smooth="yes"/>
      <point x="816.667" y="9"/>
      <point x="685.333" y="-29"/>
    </contour>
  </outline>
</glyph>
<glyph name="Q" format="1">
  <advance width="1233"/>
  <unicode hex="0051"/>
  <outline>
    <contour>
      <point x="656" y="-23" type="line" name="hr00"/>
      <point x="633" y="-28" type="line" smooth="yes"/>
      <point x="626.333" y="-29.3333"/>
      <point x="624.667" y="-29"/>
      <point x="622" y="-29" type="curve" smooth="yes" name="dv01"/>
      <point x="439.333" y="-29"/>
      <point x="311.667" y="40.3333"/>
      <point x="225" y="167" type="curve" smooth="yes"/>
      <point x="136.333" y="297.667"/>
      <point x="92" y="490"/>
      <point x="92" y="744" type="curve" smooth="yes" name="sh01"/>
      <point x="92" y="1000"/>
      <point x="135.667" y="1191.67"/>
      <point x="225" y="1325" type="curve" smooth="yes"/>
      <point x="318.333" y="1462.33"/>
      <point x="453.333" y="1520"/>
      <point x="616" y="1520" type="curve" smooth="yes" name="at01"/>
      <point x="790.667" y="1520"/>
      <point x="921" y="1453.33"/>
      <point x="1009" y="1324" type="curve" smooth="yes"/>
      <point x="1097" y="1192.67"/>
      <point x="1141" y="999.667"/>
      <point x="1141" y="745" type="curve" smooth="yes" name="sh02"/>
      <point x="1141" y="394.333"/>
      <point x="1055" y="153.667"/>
      <point x="895" y="51" type="curve"/>
      <point x="1181" y="-281" type="line" name="av01"/>
      <point x="839" y="-281" type="line" name="sh03"/>
    </contour>
    <contour>
      <point x="616" y="236" type="curve" smooth="yes" name="dv02"/>
      <point x="692" y="236"/>
      <point x="747.333" y="276.333"/>
      <point x="782" y="357" type="curve" smooth="yes"/>
      <point x="816.667" y="436.333"/>
      <point x="834" y="566"/>
      <point x="834" y="746" type="curve" smooth="yes" name="ah01"/>
      <point x="834" y="925.333"/>
      <point x="816.667" y="1054.67"/>
      <point x="782" y="1134" type="curve" smooth="yes"/>
      <point x="747.333" y="1214.67"/>
      <point x="692" y="1255"/>
      <point x="616" y="1255" type="curve" smooth="yes" name="sv01"/>
      <point x="537.333" y="1255"/>
      <point x="485.667" y="1214"/>
      <point x="451" y="1134" type="curve" smooth="yes"/>
      <point x="416.333" y="1054.67"/>
      <point x="399" y="925.333"/>
      <point x="399" y="746" type="curve" smooth="yes" name="sh04"/>
      <point x="399" y="566"/>
      <point x="416.333" y="436.333"/>
      <point x="451" y="357" type="curve" smooth="yes"/>
      <point x="485.667" y="276.333"/>
      <point x="540.667" y="236"/>
    </contour>
  </outline>
</glyph>
<glyph name="R" format="1">
  <advance width="1233"/>
  <unicode hex="0052"/>
  <outline>
    <contour>
      <point x="133" y="1493" type="line" name="hr00"/>
      <point x="559" y="1493" type="line" smooth="yes"/>
      <point x="751" y="1493"/>
      <point x="889" y="1459"/>
      <point x="973" y="1391" type="curve" smooth="yes"/>
      <point x="1057" y="1323"/>
      <point x="1098" y="1209.33"/>
      <point x="1098" y="1064" type="curve" smooth="yes" name="sh01"/>
      <point x="1098" y="952"/>
      <point x="1073.67" y="875.333"/>
      <point x="1023" y="814" type="curve" smooth="yes"/>
      <point x="975" y="755.333"/>
      <point x="907" y="718.333"/>
      <point x="807" y="705" type="curve" name="sh02"/>
      <point x="837.667" y="698.333"/>
      <point x="865.333" y="682.667"/>
      <point x="884" y="664" type="curve" smooth="yes"/>
      <point x="904" y="644"/>
      <point x="929.667" y="603.667"/>
      <point x="963" y="537" type="curve" smooth="yes"/>
      <point x="1233" y="0" type="line" name="ab01"/>
      <point x="909" y="0" type="line"/>
      <point x="729" y="377" type="line"/>
      <point x="708" y="421" type="line" smooth="yes"/>
      <point x="652" y="535.667"/>
      <point x="596.667" y="590"/>
      <point x="522" y="590" type="curve" smooth="yes" name="dv01"/>
      <point x="428" y="590" type="line" name="sh04"/>
      <point x="428" y="0" type="line" name="ab02"/>
      <point x="133" y="0" type="line"/>
    </contour>
    <contour>
      <point x="567" y="838" type="line" smooth="yes" name="dv02"/>
      <point x="647.667" y="838"/>
      <point x="705.667" y="854"/>
      <point x="741" y="886" type="curve" smooth="yes"/>
      <point x="773" y="915.333"/>
      <point x="793" y="962"/>
      <point x="793" y="1042" type="curve" smooth="yes" name="ah01"/>
      <point x="793" y="1115.33"/>
      <point x="775.667" y="1167.33"/>
      <point x="741" y="1198" type="curve" smooth="yes"/>
      <point x="705.667" y="1229.33"/>
      <point x="647.667" y="1245"/>
      <point x="567" y="1245" type="curve" smooth="yes" name="sv01"/>
      <point x="428" y="1245" type="line" name="sh03"/>
      <point x="428" y="838" type="line"/>
    </contour>
  </outline>
</glyph>
<glyph name="a" format="1">
  <advance width="1233"/>
  <unicode hex="0061"/>
  <outline>
    <contour>
      <point x="494" y="-29" type="curve" smooth="yes" name="dv01"/>
      <point x="372.667" y="-29"/>
      <point x="274" y="4"/>
      <point x="202" y="72" type="curve" smooth="yes"/>
      <point x="130.667" y="139.333"/>
      <point x="95" y="233.333"/>
      <point x="95" y="354" type="curve" smooth="yes" name="sh01"/>
      <point x="95" y="482"/>
      <point x="134" y="580"/>
      <point x="222" y="644" type="curve" smooth="yes"/>
      <point x="306.667" y="706"/>
      <point x="437.667" y="737"/>
      <point x="615" y="737" type="curve" smooth="yes"/>
      <point x="818" y="737" type="line" name="ah01"/>
      <point x="818" y="786" type="line" smooth="yes"/>
      <point x="818" y="835.333"/>
      <point x="799" y="871.333"/>
      <point x="767" y="894" type="curve" smooth="yes"/>
      <point x="732.333" y="919.333"/>
      <point x="679.333" y="930"/>
      <point x="610" y="930" type="curve" smooth="yes" name="dv03"/>
      <point x="546" y="930"/>
      <point x="477.333" y="921.333"/>
      <point x="412" y="904" type="curve" smooth="yes" name="sh03"/>
      <point x="348" y="886.667"/>
      <point x="278" y="857.667"/>
      <point x="206" y="819" type="curve" name="ih01"/>
      <point x="206" y="1069" type="line"/>
      <point x="262" y="1091.67"/>
      <point x="336.333" y="1116"/>
      <point x="403" y="1128" type="curve" smooth="yes" name="sh04"/>
      <point x="457.667" y="1138.67"/>
      <point x="540" y="1148"/>
      <point x="628" y="1148" type="curve" smooth="yes" name="hr01"/>
      <point x="814.925" y="1148"/>
      <point x="927.16" y="1102.15"/>
      <point x="997" y="1035" type="curve"/>
      <point x="1069.39" y="962.615"/>
      <point x="1109" y="852.114"/>
      <point x="1109" y="644" type="curve" smooth="yes" name="sh05"/>
      <point x="1109" y="569.831"/>
      <point x="1104" y="322.547"/>
      <point x="1104" y="274" type="curve" smooth="yes" name="sh06"/>
      <point x="1104" y="246"/>
      <point x="1104.67" y="215.667"/>
      <point x="1106" y="197" type="curve" smooth="yes" name="sh07"/>
      <point x="1108.67" y="170.333"/>
      <point x="1110.33" y="142.333"/>
      <point x="1113" y="125" type="curve" smooth="yes" name="sh08"/>
      <point x="1117" y="98.3333"/>
      <point x="1123" y="71.3333"/>
      <point x="1127" y="58" type="curve" smooth="yes"/>
      <point x="1133.67" y="38"/>
      <point x="1144.33" y="14.6667"/>
      <point x="1155" y="0" type="curve" name="ab01"/>
      <point x="865" y="0" type="line"/>
      <point x="853" y="20"/>
      <point x="842.333" y="43.3333"/>
      <point x="837" y="58" type="curve" smooth="yes"/>
      <point x="833" y="71.3333"/>
      <point x="826.667" y="98.3333"/>
      <point x="824" y="125" type="curve" name="sh09"/>
      <point x="787.333" y="76.3333"/>
      <point x="740" y="38.3333"/>
      <point x="682" y="11" type="curve" smooth="yes" name="ab02"/>
      <point x="626" y="-15.6667"/>
      <point x="570" y="-29"/>
    </contour>
    <contour>
      <point x="576" y="174" type="curve" smooth="yes" name="dv02"/>
      <point x="650.667" y="174"/>
      <point x="711.333" y="202"/>
      <point x="754" y="262" type="curve"/>
      <point x="796.667" y="319.333"/>
      <point x="818" y="400.667"/>
      <point x="818" y="506" type="curve" smooth="yes" name="sh10"/>
      <point x="818" y="526" type="line" name="dv04"/>
      <point x="701" y="526" type="line" smooth="yes"/>
      <point x="591" y="526"/>
      <point x="514.667" y="512"/>
      <point x="472" y="484" type="curve" smooth="yes"/>
      <point x="428.667" y="456"/>
      <point x="407" y="408.667"/>
      <point x="407" y="342" type="curve" smooth="yes" name="sh02"/>
      <point x="407" y="287.333"/>
      <point x="421.333" y="249.667"/>
      <point x="452" y="219" type="curve" smooth="yes"/>
      <point x="482" y="189"/>
      <point x="523.333" y="174"/>
    </contour>
  </outline>
</glyph>
<glyph name="b" format="1">
  <advance width="1233"/>
  <unicode hex="0062"/>
  <outline>
    <contour>
      <point x="740" y="-29" type="curve" smooth="yes" name="dv01"/>
      <point x="671.333" y="-29"/>
      <point x="612.333" y="-12.6667"/>
      <point x="563" y="20" type="curve" smooth="yes"/>
      <point x="513" y="52.6667"/>
      <point x="472.667" y="101.333"/>
      <point x="442" y="166" type="curve" name="sh02"/>
      <point x="413" y="0" type="line" name="ab01"/>
      <point x="150" y="0" type="line" name="sh01"/>
      <point x="150" y="1556" type="line" name="at01"/>
      <point x="442" y="1556" type="line" name="sh03"/>
      <point x="442" y="961" type="line" name="ih01"/>
      <point x="478" y="1023.67"/>
      <point x="520" y="1070.33"/>
      <point x="568" y="1101" type="curve" smooth="yes"/>
      <point x="614.667" y="1131.67"/>
      <point x="667" y="1147"/>
      <point x="735" y="1147" type="curve" smooth="yes" name="at02"/>
      <point x="863" y="1147"/>
      <point x="965.333" y="1095"/>
      <point x="1036" y="995" type="curve" smooth="yes"/>
      <point x="1104" y="899"/>
      <point x="1143" y="754.667"/>
      <point x="1143" y="560" type="curve" smooth="yes" name="sh04"/>
      <point x="1143" y="377.333"/>
      <point x="1109" y="228"/>
      <point x="1037" y="124" type="curve" smooth="yes"/>
      <point x="965" y="21.3333"/>
      <point x="865.333" y="-29"/>
    </contour>
    <contour>
      <point x="647" y="211" type="curve" smooth="yes" name="dv02"/>
      <point x="710.333" y="211"/>
      <point x="760" y="241.667"/>
      <point x="796" y="303" type="curve" smooth="yes"/>
      <point x="832" y="363.667"/>
      <point x="850" y="448.333"/>
      <point x="850" y="557" type="curve" smooth="yes" name="ah01"/>
      <point x="850" y="773"/>
      <point x="773.667" y="903"/>
      <point x="647" y="903" type="curve" smooth="yes" name="sv01"/>
      <point x="584.333" y="903"/>
      <point x="534.333" y="872.333"/>
      <point x="497" y="811" type="curve" smooth="yes" name="hr01"/>
      <point x="460.333" y="750.333"/>
      <point x="442" y="665.667"/>
      <point x="442" y="557" type="curve" smooth="yes" name="sh05"/>
      <point x="442" y="448.333"/>
      <point x="460.333" y="363.667"/>
      <point x="497" y="303" type="curve" smooth="yes"/>
      <point x="534.333" y="241.667"/>
      <point x="584.333" y="211"/>
    </contour>
  </outline>
</glyph>
<glyph name="g" format="1">
  <advance width="1233"/>
  <unicode hex="0067"/>
  <outline>
    <contour>
      <point x="578" y="-424" type="curve" smooth="yes" name="ab01"/>
      <point x="519.333" y="-424"/>
      <point x="458" y="-420.333"/>
      <point x="398" y="-411" type="curve" smooth="yes" name="sh02"/>
      <point x="338" y="-402.333"/>
      <point x="277" y="-388.333"/>
      <point x="215" y="-369" type="curve"/>
      <point x="215" y="-100" type="line" name="ih01"/>
      <point x="271" y="-130.667"/>
      <point x="329.333" y="-153.333"/>
      <point x="384" y="-168" type="curve" smooth="yes" name="sh03"/>
      <point x="441.333" y="-182.667"/>
      <point x="501.333" y="-190"/>
      <point x="556" y="-190" type="curve" smooth="yes" name="sv01"/>
      <point x="646.667" y="-190"/>
      <point x="705.333" y="-170.667"/>
      <point x="744" y="-132" type="curve" smooth="yes"/>
      <point x="783.333" y="-92.6667"/>
      <point x="803" y="-31.6667"/>
      <point x="803" y="51" type="curve" smooth="yes" name="ah01"/>
      <point x="803" y="172" type="line" name="iv01"/>
      <point x="773.667" y="118.667"/>
      <point x="735.667" y="79"/>
      <point x="689" y="53" type="curve" smooth="yes"/>
      <point x="641.667" y="27"/>
      <point x="584.333" y="14"/>
      <point x="517" y="14" type="curve" smooth="yes" name="dv03"/>
      <point x="387.667" y="14"/>
      <point x="285.667" y="64"/>
      <point x="211" y="164" type="curve" smooth="yes"/>
      <point x="135" y="264"/>
      <point x="98" y="398.333"/>
      <point x="98" y="573" type="curve" smooth="yes" name="hr01"/>
      <point x="98" y="748.333"/>
      <point x="135.667" y="888.333"/>
      <point x="211" y="993" type="curve" smooth="yes"/>
      <point x="287" y="1097"/>
      <point x="386.667" y="1149"/>
      <point x="512" y="1149" type="curve" smooth="yes" name="dv02"/>
      <point x="642.667" y="1149"/>
      <point x="745.667" y="1086.33"/>
      <point x="803" y="977" type="curve" name="hr02"/>
      <point x="832" y="1120" type="line" name="at01"/>
      <point x="1096" y="1120" type="line"/>
      <point x="1096" y="84" type="line" smooth="yes" name="sh04"/>
      <point x="1096" y="-95.3333"/>
      <point x="1055.67" y="-225"/>
      <point x="975" y="-305" type="curve" smooth="yes"/>
      <point x="893.667" y="-384.333"/>
      <point x="761.333" y="-424"/>
    </contour>
    <contour>
      <point x="596" y="246" type="curve" smooth="yes" name="dv04"/>
      <point x="658" y="246"/>
      <point x="708" y="276.333"/>
      <point x="746" y="337" type="curve" smooth="yes"/>
      <point x="783.333" y="397"/>
      <point x="803" y="473"/>
      <point x="803" y="577" type="curve" smooth="yes" name="sh05"/>
      <point x="803" y="675.667"/>
      <point x="784.667" y="756.333"/>
      <point x="746" y="819" type="curve" smooth="yes"/>
      <point x="708" y="879"/>
      <point x="658" y="909"/>
      <point x="596" y="909" type="curve" smooth="yes" name="dv01"/>
      <point x="534.667" y="909"/>
      <point x="485.333" y="879"/>
      <point x="448" y="819" type="curve" smooth="yes"/>
      <point x="410" y="759"/>
      <point x="391" y="678.667"/>
      <point x="391" y="578" type="curve" smooth="yes" name="sh01"/>
      <point x="391" y="476.667"/>
      <point x="410" y="396"/>
      <point x="448" y="336" type="curve" smooth="yes"/>
      <point x="485.333" y="276"/>
      <point x="534.667" y="246"/>
    </contour>
  </outline>
</glyph>
<glyph name="i" format="1">
  <advance width="1233"/>
  <unicode hex="0069"/>
  <outline>
    <contour>
      <point x="451" y="1253" type="line" smooth="yes" name="hr00"/>
      <point x="431" y="1253"/>
      <point x="421" y="1263"/>
      <point x="421" y="1283" type="curve" smooth="yes" name="dh01"/>
      <point x="421" y="1565" type="line" smooth="yes"/>
      <point x="421" y="1585"/>
      <point x="431" y="1595"/>
      <point x="451" y="1595" type="curve" smooth="yes" name="dv01"/>
      <point x="684" y="1595" type="line" smooth="yes"/>
      <point x="704" y="1595"/>
      <point x="714" y="1585"/>
      <point x="714" y="1565" type="curve" smooth="yes"/>
      <point x="714" y="1283" type="line" smooth="yes" name="dh02"/>
      <point x="714" y="1263"/>
      <point x="704" y="1253"/>
      <point x="684" y="1253" type="curve" smooth="yes"/>
    </contour>
    <contour>
      <point x="812" y="-12" type="line" smooth="yes" name="ab01"/>
      <point x="672.667" y="-12"/>
      <point x="572.667" y="24"/>
      <point x="512" y="96" type="curve" smooth="yes"/>
      <point x="451.333" y="167.333"/>
      <point x="421" y="287"/>
      <point x="421" y="455" type="curve" smooth="yes" name="sh01"/>
      <point x="421" y="895" type="line" name="sv01"/>
      <point x="184" y="895" type="line"/>
      <point x="184" y="1120" type="line" name="at01"/>
      <point x="714" y="1120" type="line" name="sh02"/>
      <point x="714" y="455" type="line" smooth="yes"/>
      <point x="714" y="367.667"/>
      <point x="727.667" y="305.333"/>
      <point x="755" y="268" type="curve" smooth="yes"/>
      <point x="781.667" y="231.333"/>
      <point x="828" y="213"/>
      <point x="894" y="213" type="curve" smooth="yes" name="sv02"/>
      <point x="1128" y="213" type="line"/>
      <point x="1128" y="-12" type="line"/>
    </contour>
  </outline>
</glyph>
<glyph name="j" format="1">
  <advance width="1233"/>
  <unicode hex="006A"/>
  <outline>
    <contour>
      <point x="614" y="1253" type="line" smooth="yes" name="hr00"/>
      <point x="594" y="1253"/>
      <point x="584" y="1263"/>
      <point x="584" y="1283" type="curve" smooth="yes" name="dh01"/>
      <point x="584" y="1565" type="line" smooth="yes"/>
      <point x="584" y="1585"/>
      <point x="594" y="1595"/>
      <point x="614" y="1595" type="curve" smooth="yes" name="dv01"/>
      <point x="847" y="1595" type="line" smooth="yes"/>
      <point x="867" y="1595"/>
      <point x="877" y="1585"/>
      <point x="877" y="1565" type="curve" smooth="yes"/>
      <point x="877" y="1283" type="line" smooth="yes" name="dh02"/>
      <point x="877" y="1263"/>
      <point x="867" y="1253"/>
      <point x="847" y="1253" type="curve" smooth="yes"/>
    </contour>
    <contour>
      <point x="170" y="-199" type="line" name="sv01"/>
      <point x="404" y="-199" type="line" smooth="yes"/>
      <point x="470" y="-199"/>
      <point x="516.333" y="-180.667"/>
      <point x="543" y="-144" type="curve" smooth="yes"/>
      <point x="570.333" y="-106.667"/>
      <point x="584" y="-44.3333"/>
      <point x="584" y="43" type="curve" smooth="yes" name="sh01"/>
      <point x="584" y="895" type="line" name="sv02"/>
      <point x="287" y="895" type="line"/>
      <point x="287" y="1120" type="line" name="at01"/>
      <point x="877" y="1120" type="line" name="sh02"/>
      <point x="877" y="43" type="line" smooth="yes"/>
      <point x="877" y="-125"/>
      <point x="847" y="-245"/>
      <point x="787" y="-317" type="curve" smooth="yes"/>
      <point x="728.333" y="-386.333"/>
      <point x="628.667" y="-424"/>
      <point x="486" y="-424" type="curve" smooth="yes" name="ab01"/>
      <point x="170" y="-424" type="line"/>
    </contour>
  </outline>
</glyph>
<glyph name="l" format="1">
  <advance width="1233"/>
  <unicode hex="006C"/>
  <outline>
    <contour>
      <point x="788" y="-8" type="line" smooth="yes" name="hr00"/>
      <point x="648.667" y="-8"/>
      <point x="548.667" y="28"/>
      <point x="488" y="100" type="curve" smooth="yes"/>
      <point x="427.333" y="171.333"/>
      <point x="397" y="291"/>
      <point x="397" y="459" type="curve" smooth="yes" name="dh01"/>
      <point x="397" y="1331" type="line" name="sv01"/>
      <point x="100" y="1331" type="line"/>
      <point x="100" y="1556" type="line" name="at01"/>
      <point x="690" y="1556" type="line"/>
      <point x="690" y="459" type="line" smooth="yes" name="dh02"/>
      <point x="690" y="371.667"/>
      <point x="703.667" y="309.333"/>
      <point x="731" y="272" type="curve" smooth="yes"/>
      <point x="757.667" y="235.333"/>
      <point x="804" y="217"/>
      <point x="870" y="217" type="curve" smooth="yes" name="sv02"/>
      <point x="1104" y="217" type="line" name="sv03"/>
      <point x="1104" y="-8" type="line" name="ab01"/>
    </contour>
  </outline>
</glyph>
<glyph name="m" format="1">
  <advance width="1233"/>
  <unicode hex="006D"/>
  <outline>
    <contour>
      <point x="82" y="1120" type="line" name="sh01"/>
      <point x="266" y="1120" type="line"/>
      <point x="295" y="1004" type="line" name="ih01"/>
      <point x="312.333" y="1048.67"/>
      <point x="339" y="1083.67"/>
      <point x="375" y="1109" type="curve" smooth="yes" name="at01"/>
      <point x="408.333" y="1131.67"/>
      <point x="451" y="1147"/>
      <point x="499" y="1147" type="curve" smooth="yes" name="sh03"/>
      <point x="544.333" y="1147"/>
      <point x="585.333" y="1133.67"/>
      <point x="622" y="1107" type="curve" smooth="yes" name="at02"/>
      <point x="659.333" y="1079.67"/>
      <point x="682" y="1046.67"/>
      <point x="690" y="1008" type="curve" name="ih02"/>
      <point x="712" y="1054.67"/>
      <point x="740" y="1089.67"/>
      <point x="774" y="1113" type="curve" smooth="yes" name="at03"/>
      <point x="807.333" y="1135.67"/>
      <point x="850" y="1147"/>
      <point x="902" y="1147" type="curve" smooth="yes" name="sh05"/>
      <point x="999.333" y="1147"/>
      <point x="1065.33" y="1111"/>
      <point x="1100" y="1047" type="curve" smooth="yes"/>
      <point x="1138.67" y="976.333"/>
      <point x="1155" y="839"/>
      <point x="1155" y="631" type="curve" smooth="yes"/>
      <point x="1155" y="0" type="line" name="sh06"/>
      <point x="915" y="0" type="line" name="sh04"/>
      <point x="915" y="719" type="line" smooth="yes"/>
      <point x="915" y="807"/>
      <point x="909.333" y="855.667"/>
      <point x="896" y="885" type="curve" smooth="yes"/>
      <point x="883.333" y="913.667"/>
      <point x="860.333" y="928"/>
      <point x="827" y="928" type="curve" smooth="yes" name="sv01"/>
      <point x="788.333" y="928"/>
      <point x="769" y="910.667"/>
      <point x="757" y="884" type="curve" smooth="yes"/>
      <point x="743.667" y="856"/>
      <point x="737" y="803"/>
      <point x="737" y="719" type="curve" smooth="yes"/>
      <point x="737" y="0" type="line" name="sh07"/>
      <point x="500" y="0" type="line" name="sh02"/>
      <point x="500" y="719" type="line" smooth="yes"/>
      <point x="500" y="799.667"/>
      <point x="493.333" y="855"/>
      <point x="480" y="885" type="curve" smooth="yes"/>
      <point x="467.333" y="913.667"/>
      <point x="444" y="928"/>
      <point x="410" y="928" type="curve" smooth="yes" name="sv02"/>
      <point x="376.667" y="928"/>
      <point x="353.667" y="914"/>
      <point x="341" y="886" type="curve" smooth="yes"/>
      <point x="328.333" y="858.667"/>
      <point x="322" y="803"/>
      <point x="322" y="719" type="curve" smooth="yes" name="sh08"/>
      <point x="322" y="0" type="line" name="hr01"/>
      <point x="82" y="0" type="line"/>
    </contour>
  </outline>
</glyph>
<glyph name="n" format="1">
  <advance width="1233"/>
  <unicode hex="006E"/>
  <outline>
    <contour>
      <point x="172" y="1120" type="line" name="sh01"/>
      <point x="434" y="1120" type="line"/>
      <point x="463" y="952" type="line" name="sh02"/>
      <point x="484.333" y="1014"/>
      <point x="519.667" y="1062"/>
      <point x="569" y="1096" type="curve" smooth="yes"/>
      <point x="619" y="1130"/>
      <point x="679.667" y="1147"/>
      <point x="751" y="1147" type="curve" smooth="yes" name="at01"/>
      <point x="856.333" y="1147"/>
      <point x="936" y="1112"/>
      <point x="990" y="1042" type="curve" smooth="yes"/>
      <point x="1044" y="970.667"/>
      <point x="1071" y="865.667"/>
      <point x="1071" y="727" type="curve" smooth="yes"/>
      <point x="1071" y="0" type="line" name="sh03"/>
      <point x="780" y="0" type="line" name="ah01"/>
      <point x="780" y="682" type="line" smooth="yes"/>
      <point x="780" y="764"/>
      <point x="768.667" y="822.333"/>
      <point x="746" y="857" type="curve" smooth="yes"/>
      <point x="723.333" y="891.667"/>
      <point x="684" y="909"/>
      <point x="636" y="909" type="curve" smooth="yes" name="sv01"/>
      <point x="578.667" y="909"/>
      <point x="539.667" y="884.667"/>
      <point x="509" y="838" type="curve" smooth="yes"/>
      <point x="479.667" y="792.667"/>
      <point x="463" y="733"/>
      <point x="463" y="641" type="curve" smooth="yes" name="sh04"/>
      <point x="463" y="0" type="line" name="hr01"/>
      <point x="172" y="0" type="line"/>
    </contour>
  </outline>
</glyph>
<glyph name="p" format="1">
  <advance width="1233"/>
  <unicode hex="0070"/>
  <outline>
    <contour>
      <point x="150" y="1120" type="line" name="sh01"/>
      <point x="413" y="1120" type="line"/>
      <point x="442" y="952" type="line" name="sh02"/>
      <point x="472.667" y="1016.67"/>
      <point x="513" y="1065.33"/>
      <point x="563" y="1098" type="curve" smooth="yes"/>
      <point x="612.333" y="1130.67"/>
      <point x="671.333" y="1147"/>
      <point x="740" y="1147" type="curve" smooth="yes" name="at01"/>
      <point x="865.333" y="1147"/>
      <point x="965" y="1096.67"/>
      <point x="1037" y="994" type="curve" smooth="yes"/>
      <point x="1109" y="890"/>
      <point x="1143" y="740.667"/>
      <point x="1143" y="558" type="curve" smooth="yes" name="sh03"/>
      <point x="1143" y="363.333"/>
      <point x="1104" y="219"/>
      <point x="1036" y="123" type="curve" smooth="yes"/>
      <point x="962.667" y="19"/>
      <point x="856.333" y="-29"/>
      <point x="735" y="-29" type="curve" smooth="yes" name="dv01"/>
      <point x="672.333" y="-29"/>
      <point x="617.667" y="-16.6667"/>
      <point x="567" y="18" type="curve" smooth="yes"/>
      <point x="524.333" y="46"/>
      <point x="476.667" y="94"/>
      <point x="442" y="158" type="curve" name="sh04"/>
      <point x="442" y="-426" type="line" name="ab01"/>
      <point x="150" y="-426" type="line"/>
    </contour>
    <contour>
      <point x="647" y="215" type="curve" smooth="yes" name="dv02"/>
      <point x="710.333" y="215"/>
      <point x="760" y="245.667"/>
      <point x="796" y="307" type="curve" smooth="yes"/>
      <point x="832" y="367.667"/>
      <point x="850" y="452.333"/>
      <point x="850" y="561" type="curve" smooth="yes" name="ah01"/>
      <point x="850" y="777"/>
      <point x="773.667" y="907"/>
      <point x="647" y="907" type="curve" smooth="yes" name="sv01"/>
      <point x="584.333" y="907"/>
      <point x="534.333" y="876.333"/>
      <point x="497" y="815" type="curve" smooth="yes"/>
      <point x="460.333" y="754.333"/>
      <point x="442" y="669.667"/>
      <point x="442" y="561" type="curve" smooth="yes" name="sh05"/>
      <point x="442" y="452.333"/>
      <point x="460.333" y="367.667"/>
      <point x="497" y="307" type="curve" smooth="yes" name="hr01"/>
      <point x="534.333" y="245.667"/>
      <point x="584.333" y="215"/>
    </contour>
  </outline>
</glyph>
<glyph name="q" format="1">
  <advance width="1233"/>
  <unicode hex="0071"/>
  <outline>
    <contour>
      <point x="791" y="158" type="line" name="iv01"/>
      <point x="755.667" y="96.6667"/>
      <point x="714" y="50"/>
      <point x="666" y="18" type="curve" smooth="yes"/>
      <point x="618" y="-14"/>
      <point x="567" y="-29"/>
      <point x="499" y="-29" type="curve" smooth="yes" name="dv01"/>
      <point x="375" y="-29"/>
      <point x="272.667" y="19"/>
      <point x="198" y="123" type="curve" smooth="yes"/>
      <point x="126" y="224.333"/>
      <point x="90" y="370"/>
      <point x="90" y="558" type="curve" smooth="yes" name="sh01"/>
      <point x="90" y="746.667"/>
      <point x="125.333" y="892"/>
      <point x="196" y="994" type="curve" smooth="yes"/>
      <point x="268" y="1096.67"/>
      <point x="368" y="1147"/>
      <point x="492" y="1147" type="curve" smooth="yes" name="at02"/>
      <point x="561.333" y="1147"/>
      <point x="620.667" y="1130.67"/>
      <point x="670" y="1098" type="curve" smooth="yes"/>
      <point x="718" y="1066"/>
      <point x="760.333" y="1017.33"/>
      <point x="791" y="952" type="curve" name="sh02"/>
      <point x="820" y="1120" type="line" name="at01"/>
      <point x="1083" y="1120" type="line"/>
      <point x="1083" y="-426" type="line" name="hr01"/>
      <point x="791" y="-426" type="line" name="ah01"/>
    </contour>
    <contour>
      <point x="586" y="215" type="curve" smooth="yes" name="dv02"/>
      <point x="648.667" y="215"/>
      <point x="698.667" y="245.667"/>
      <point x="736" y="307" type="curve" smooth="yes"/>
      <point x="772.667" y="367.667"/>
      <point x="791" y="452.333"/>
      <point x="791" y="561" type="curve" smooth="yes" name="hr02"/>
      <point x="791" y="669.667"/>
      <point x="772.667" y="754.333"/>
      <point x="736" y="815" type="curve" smooth="yes"/>
      <point x="698.667" y="876.333"/>
      <point x="648.667" y="907"/>
      <point x="586" y="907" type="curve" smooth="yes" name="sv01"/>
      <point x="459.333" y="907"/>
      <point x="383" y="777"/>
      <point x="383" y="561" type="curve" smooth="yes" name="sh03"/>
      <point x="383" y="452.333"/>
      <point x="401" y="367.667"/>
      <point x="437" y="307" type="curve" smooth="yes"/>
      <point x="473" y="245.667"/>
      <point x="522.667" y="215"/>
    </contour>
  </outline>
</glyph>
<glyph name="r" format="1">
  <advance width="1233"/>
  <unicode hex="0072"/>
  <outline>
    <contour>
      <point x="241" y="1120" type="line" name="dh01"/>
      <point x="505" y="1120" type="line"/>
      <point x="534" y="946" type="line" name="dh02"/>
      <point x="563.333" y="1010.67"/>
      <point x="607.333" y="1060.33"/>
      <point x="666" y="1095" type="curve" smooth="yes"/>
      <point x="726" y="1129.67"/>
      <point x="796.333" y="1147"/>
      <point x="871" y="1147" type="curve" smooth="yes" name="at02"/>
      <point x="911" y="1147"/>
      <point x="956" y="1142.33"/>
      <point x="992" y="1133" type="curve" smooth="yes" name="at01"/>
      <point x="1030.67" y="1122.33"/>
      <point x="1071.67" y="1106"/>
      <point x="1101" y="1090" type="curve"/>
      <point x="1101" y="811" type="line" name="iv01"/>
      <point x="1069" y="840.333"/>
      <point x="1031.67" y="862.333"/>
      <point x="989" y="877" type="curve" smooth="yes"/>
      <point x="946.333" y="891.667"/>
      <point x="898.667" y="899"/>
      <point x="848" y="899" type="curve" smooth="yes" name="sv01"/>
      <point x="785.333" y="899"/>
      <point x="731" y="888.333"/>
      <point x="685" y="867" type="curve" smooth="yes"/>
      <point x="638.333" y="845.667"/>
      <point x="602.333" y="814.333"/>
      <point x="577" y="773" type="curve" smooth="yes"/>
      <point x="563.667" y="751.667"/>
      <point x="550.667" y="721.333"/>
      <point x="544" y="680" type="curve" smooth="yes"/>
      <point x="537.333" y="641.333"/>
      <point x="534" y="594.667"/>
      <point x="534" y="516" type="curve" smooth="yes" name="sh01"/>
      <point x="534" y="0" type="line" name="hr01"/>
      <point x="241" y="0" type="line"/>
    </contour>
  </outline>
</glyph>
<glyph name="s" format="1">
  <advance width="1233"/>
  <unicode hex="0073"/>
  <outline>
    <contour>
      <point x="616" y="-29" type="curve" smooth="yes" name="hr00"/>
      <point x="472.801" y="-29"/>
      <point x="339.712" y="-5.27468"/>
      <point x="190" y="41" type="curve"/>
      <point x="190" y="297" type="line" name="ih01"/>
      <point x="255.333" y="259.667"/>
      <point x="321.333" y="231.667"/>
      <point x="388" y="213" type="curve" smooth="yes"/>
      <point x="456" y="194.333"/>
      <point x="517" y="184"/>
      <point x="585" y="184" type="curve" smooth="yes" name="dv01"/>
      <point x="651" y="184"/>
      <point x="702" y="194"/>
      <point x="738" y="214" type="curve" smooth="yes"/>
      <point x="772.667" y="234"/>
      <point x="791" y="260.333"/>
      <point x="791" y="307" type="curve" smooth="yes" name="ah01"/>
      <point x="791" y="366.476"/>
      <point x="758.05" y="410.621"/>
      <point x="575" y="451" type="curve" smooth="yes"/>
      <point x="494" y="469" type="line" smooth="yes"/>
      <point x="382" y="494.333"/>
      <point x="300.333" y="534"/>
      <point x="249" y="588" type="curve" smooth="yes"/>
      <point x="197.667" y="642.667"/>
      <point x="172" y="714.333"/>
      <point x="172" y="803" type="curve" smooth="yes" name="sh01"/>
      <point x="172" y="1021.67"/>
      <point x="335" y="1147"/>
      <point x="619" y="1147" type="curve" smooth="yes" name="at01"/>
      <point x="753.378" y="1147"/>
      <point x="866.473" y="1129.47"/>
      <point x="991" y="1085" type="curve"/>
      <point x="991" y="829" type="line" name="ih02"/>
      <point x="876.939" y="901.331"/>
      <point x="774.553" y="934"/>
      <point x="643" y="934" type="curve" smooth="yes" name="sv01"/>
      <point x="583" y="934"/>
      <point x="534.667" y="926"/>
      <point x="500" y="906" type="curve" smooth="yes"/>
      <point x="465.333" y="887.333"/>
      <point x="449" y="856.667"/>
      <point x="449" y="826" type="curve" smooth="yes" name="sh02"/>
      <point x="449" y="766"/>
      <point x="513.667" y="725.667"/>
      <point x="663" y="691" type="curve" smooth="yes"/>
      <point x="674" y="688" type="line"/>
      <point x="758" y="668" type="line" smooth="yes"/>
      <point x="971.351" y="616.688"/>
      <point x="1067" y="508.62"/>
      <point x="1067" y="317" type="curve" smooth="yes" name="sh03"/>
      <point x="1067" y="201.667"/>
      <point x="1029.33" y="115.333"/>
      <point x="954" y="58" type="curve" smooth="yes"/>
      <point x="878" y="-0.666667"/>
      <point x="762.667" y="-29"/>
    </contour>
  </outline>
</glyph>
<glyph name="u" format="1">
  <advance width="1233"/>
  <unicode hex="0075"/>
  <outline>
    <contour>
      <point x="481" y="-29" type="curve" smooth="yes" name="dv01"/>
      <point x="381" y="-29"/>
      <point x="299.333" y="2.33333"/>
      <point x="242" y="77" type="curve" smooth="yes"/>
      <point x="187.333" y="147.667"/>
      <point x="160" y="252.333"/>
      <point x="160" y="391" type="curve" smooth="yes" name="sh01"/>
      <point x="160" y="1120" type="line" name="hr01"/>
      <point x="453" y="1120" type="line"/>
      <point x="453" y="436" type="line" smooth="yes" name="sh02"/>
      <point x="453" y="355.333"/>
      <point x="464.333" y="297.667"/>
      <point x="487" y="263" type="curve" smooth="yes"/>
      <point x="509.667" y="228.333"/>
      <point x="548.667" y="211"/>
      <point x="598" y="211" type="curve" smooth="yes" name="dv02"/>
      <point x="648.667" y="211"/>
      <point x="692" y="230.333"/>
      <point x="724" y="281" type="curve" smooth="yes"/>
      <point x="753.333" y="328.333"/>
      <point x="768" y="393.667"/>
      <point x="768" y="477" type="curve" smooth="yes" name="hr02"/>
      <point x="768" y="1120" type="line" name="at01"/>
      <point x="1061" y="1120" type="line"/>
      <point x="1061" y="0" type="line" name="sh03"/>
      <point x="797" y="0" type="line"/>
      <point x="768" y="166" type="line" name="ah01"/>
      <point x="746.667" y="104"/>
      <point x="711.667" y="56"/>
      <point x="663" y="22" type="curve" smooth="yes"/>
      <point x="613" y="-12"/>
      <point x="552.333" y="-29"/>
    </contour>
  </outline>
</glyph>
<glyph name="y" format="1">
  <advance width="1233"/>
  <unicode hex="0079"/>
  <outline>
    <contour>
      <point x="137" y="-201" type="line" name="hr00"/>
      <point x="256" y="-201" type="line" smooth="yes"/>
      <point x="312" y="-201"/>
      <point x="360" y="-192.333"/>
      <point x="388" y="-171" type="curve" smooth="yes"/>
      <point x="418.667" y="-148.333"/>
      <point x="450.333" y="-89"/>
      <point x="473" y="-29" type="curve" smooth="yes"/>
      <point x="495" y="31" type="line"/>
      <point x="69" y="1120" type="line" name="at01"/>
      <point x="377" y="1120" type="line"/>
      <point x="633" y="393" type="line" name="iv01"/>
      <point x="878" y="1120" type="line" name="at02"/>
      <point x="1186" y="1120" type="line"/>
      <point x="721" y="-121" type="line"/>
      <point x="630.346" y="-344.405"/>
      <point x="550.124" y="-415.183"/>
      <point x="379" y="-424" type="curve" name="ab01"/>
      <point x="137" y="-424" type="line"/>
    </contour>
  </outline>
</glyph>
<glyph name="braceleft" format="1">
  <advance width="1233"/>
  <unicode hex="007B"/>
  <outline>
    <contour>
      <point x="853" y="-334" type="line" smooth="yes" name="hr00"/>
      <point x="687.667" y="-334"/>
      <point x="576.667" y="-309.333"/>
      <point x="520" y="-260" type="curve" smooth="yes"/>
      <point x="463.333" y="-211.333"/>
      <point x="435" y="-113"/>
      <point x="435" y="35" type="curve" smooth="yes" name="dh01"/>
      <point x="435" y="250" type="line" smooth="yes"/>
      <point x="435" y="343.333"/>
      <point x="419.333" y="419"/>
      <point x="382" y="459" type="curve" smooth="yes"/>
      <point x="346" y="497.667"/>
      <point x="277.333" y="516"/>
      <point x="188" y="516" type="curve" smooth="yes" name="dv02"/>
      <point x="96" y="516" type="line"/>
      <point x="96" y="707" type="line"/>
      <point x="188" y="707" type="line" smooth="yes" name="dv03"/>
      <point x="281.333" y="707"/>
      <point x="346" y="726"/>
      <point x="382" y="764" type="curve" smooth="yes"/>
      <point x="417.333" y="802.667"/>
      <point x="435" y="872.333"/>
      <point x="435" y="973" type="curve" smooth="yes" name="sh01"/>
      <point x="435" y="1188" type="line" smooth="yes"/>
      <point x="435" y="1336"/>
      <point x="463.333" y="1434.33"/>
      <point x="520" y="1483" type="curve" smooth="yes"/>
      <point x="575.333" y="1531.67"/>
      <point x="686.333" y="1556"/>
      <point x="853" y="1556" type="curve" smooth="yes" name="at01"/>
      <point x="1003" y="1556" type="line"/>
      <point x="1003" y="1366" type="line" name="sv01"/>
      <point x="880" y="1366" type="line" smooth="yes"/>
      <point x="810" y="1366"/>
      <point x="763.667" y="1352"/>
      <point x="741" y="1324" type="curve" smooth="yes"/>
      <point x="717.667" y="1295.33"/>
      <point x="706" y="1233.67"/>
      <point x="706" y="1139" type="curve" smooth="yes" name="sh02"/>
      <point x="706" y="930" type="line" smooth="yes"/>
      <point x="706" y="820"/>
      <point x="689.667" y="742.667"/>
      <point x="657" y="698" type="curve" smooth="yes"/>
      <point x="624.333" y="654"/>
      <point x="566" y="625.333"/>
      <point x="482" y="612" type="curve" name="ih01"/>
      <point x="565.333" y="598"/>
      <point x="623.667" y="568.333"/>
      <point x="657" y="523" type="curve" smooth="yes"/>
      <point x="689.667" y="478.333"/>
      <point x="706" y="401"/>
      <point x="706" y="291" type="curve" smooth="yes"/>
      <point x="706" y="86" type="line" smooth="yes" name="dh02"/>
      <point x="706" y="-9.33333"/>
      <point x="717.667" y="-71.6667"/>
      <point x="741" y="-101" type="curve" smooth="yes"/>
      <point x="763.667" y="-129"/>
      <point x="810" y="-143"/>
      <point x="880" y="-143" type="curve" smooth="yes" name="dv01"/>
      <point x="1003" y="-143" type="line"/>
      <point x="1003" y="-334" type="line" name="sv02"/>
    </contour>
  </outline>
</glyph>
<glyph name="braceright" format="1">
  <advance width="1233"/>
  <unicode hex="007D"/>
  <outline>
    <contour>
      <point x="230" y="-143" type="line" name="hr00"/>
      <point x="351" y="-143" type="line" smooth="yes" name="dv02"/>
      <point x="420.333" y="-143"/>
      <point x="467" y="-128.667"/>
      <point x="491" y="-100" type="curve" smooth="yes"/>
      <point x="515" y="-71.3333"/>
      <point x="527" y="-9.33333"/>
      <point x="527" y="86" type="curve" smooth="yes" name="dh01"/>
      <point x="527" y="291" type="line" smooth="yes"/>
      <point x="527" y="401"/>
      <point x="543.333" y="478.333"/>
      <point x="576" y="523" type="curve" smooth="yes"/>
      <point x="610.667" y="569.667"/>
      <point x="671.333" y="598.667"/>
      <point x="750" y="612" type="curve" name="ih01"/>
      <point x="665.333" y="625.333"/>
      <point x="607.333" y="654"/>
      <point x="576" y="698" type="curve" smooth="yes"/>
      <point x="543.333" y="742.667"/>
      <point x="527" y="820"/>
      <point x="527" y="930" type="curve" smooth="yes" name="sh01"/>
      <point x="527" y="1139" type="line" smooth="yes"/>
      <point x="527" y="1232.33"/>
      <point x="515.333" y="1293.67"/>
      <point x="492" y="1323" type="curve" smooth="yes"/>
      <point x="466.667" y="1353.67"/>
      <point x="415" y="1366"/>
      <point x="351" y="1366" type="curve" smooth="yes" name="sv01"/>
      <point x="230" y="1366" type="line"/>
      <point x="230" y="1556" type="line" name="at01"/>
      <point x="380" y="1556" type="line" smooth="yes"/>
      <point x="546" y="1556"/>
      <point x="656.667" y="1531.67"/>
      <point x="712" y="1483" type="curve" smooth="yes"/>
      <point x="767.333" y="1433.67"/>
      <point x="795" y="1335.33"/>
      <point x="795" y="1188" type="curve" smooth="yes" name="sh02"/>
      <point x="795" y="973" type="line"/>
      <point x="804.268" y="760.699"/>
      <point x="846.712" y="716.477"/>
      <point x="1045" y="707" type="curve"/>
      <point x="1137" y="707" type="line" name="dv04"/>
      <point x="1137" y="516" type="line" name="dv03"/>
      <point x="1045" y="516" type="line" smooth="yes"/>
      <point x="951" y="516"/>
      <point x="886" y="496.667"/>
      <point x="850" y="458" type="curve" smooth="yes"/>
      <point x="813.333" y="419.333"/>
      <point x="795" y="350"/>
      <point x="795" y="250" type="curve" smooth="yes"/>
      <point x="795" y="35" type="line" smooth="yes" name="dh02"/>
      <point x="795" y="-112.333"/>
      <point x="767.333" y="-210.667"/>
      <point x="712" y="-260" type="curve" smooth="yes"/>
      <point x="655.333" y="-309.333"/>
      <point x="544.667" y="-334"/>
      <point x="380" y="-334" type="curve" smooth="yes" name="dv01"/>
      <point x="230" y="-334" type="line"/>
    </contour>
  </outline>
</glyph>
<glyph name="cent" format="1">
  <advance width="1233"/>
  <unicode hex="00A2"/>
  <outline>
    <contour>
      <point x="655" y="-25" type="line" name="dh03"/>
      <point x="498.333" y="-10.3333"/>
      <point x="374.667" y="49.3333"/>
      <point x="284" y="154" type="curve" smooth="yes"/>
      <point x="192.667" y="259.333"/>
      <point x="147" y="395.333"/>
      <point x="147" y="562" type="curve" smooth="yes" name="dh01"/>
      <point x="147" y="735.333"/>
      <point x="194.667" y="870.333"/>
      <point x="284" y="973" type="curve" smooth="yes"/>
      <point x="374.667" y="1077"/>
      <point x="498.333" y="1134.33"/>
      <point x="655" y="1145" type="curve" name="sh01"/>
      <point x="655" y="1432" type="line" name="av01"/>
      <point x="797" y="1432" type="line" name="sh02"/>
      <point x="797" y="1145" type="line"/>
      <point x="837.667" y="1141.67"/>
      <point x="877.667" y="1134.67"/>
      <point x="917" y="1124" type="curve" smooth="yes"/>
      <point x="963.667" y="1110.67"/>
      <point x="997.333" y="1095.67"/>
      <point x="1036" y="1077" type="curve" name="hr01"/>
      <point x="1036" y="809" type="line" name="iv01"/>
      <point x="997.333" y="838.333"/>
      <point x="952" y="862.667"/>
      <point x="920" y="876" type="curve" smooth="yes"/>
      <point x="885.333" y="890.667"/>
      <point x="839.667" y="901.667"/>
      <point x="797" y="907" type="curve" name="hr02"/>
      <point x="797" y="215" type="line"/>
      <point x="841" y="217.667"/>
      <point x="883.667" y="229.333"/>
      <point x="921" y="244" type="curve" smooth="yes"/>
      <point x="959.667" y="260"/>
      <point x="998.667" y="281.667"/>
      <point x="1036" y="311" type="curve" name="hr03"/>
      <point x="1036" y="43" type="line" name="sh03"/>
      <point x="997.333" y="21.6667"/>
      <point x="964" y="7.66667"/>
      <point x="924" y="-3" type="curve" smooth="yes"/>
      <point x="882" y="-15"/>
      <point x="839.667" y="-22.3333"/>
      <point x="797" y="-25" type="curve" name="hr04"/>
      <point x="797" y="-313" type="line" name="av02"/>
      <point x="655" y="-313" type="line"/>
    </contour>
    <contour>
      <point x="655" y="907" type="line" name="sh04"/>
      <point x="579.667" y="898.333"/>
      <point x="521.333" y="864"/>
      <point x="480" y="804" type="curve" smooth="yes"/>
      <point x="440" y="745.333"/>
      <point x="418" y="665.333"/>
      <point x="418" y="560" type="curve" smooth="yes" name="dh02"/>
      <point x="418" y="460"/>
      <point x="438.333" y="378"/>
      <point x="481" y="314" type="curve" smooth="yes"/>
      <point x="523" y="252"/>
      <point x="581" y="219"/>
      <point x="655" y="215" type="curve"/>
    </contour>
  </outline>
</glyph>
<glyph name="sterling" format="1">
  <advance width="1233"/>
  <unicode hex="00A3"/>
  <outline>
    <contour>
      <point x="119" y="260" type="line" name="hr00"/>
      <point x="354" y="260" type="line" name="dh01"/>
      <point x="354" y="594" type="line" name="dv01"/>
      <point x="156" y="594" type="line"/>
      <point x="156" y="819" type="line"/>
      <point x="354" y="819" type="line" name="sh01"/>
      <point x="354" y="1016" type="line" smooth="yes"/>
      <point x="354" y="1186"/>
      <point x="391.667" y="1312.67"/>
      <point x="467" y="1396" type="curve" smooth="yes"/>
      <point x="541.667" y="1478.67"/>
      <point x="656" y="1520"/>
      <point x="810" y="1520" type="curve" smooth="yes" name="at01"/>
      <point x="935.741" y="1520"/>
      <point x="1000.95" y="1505.31"/>
      <point x="1102" y="1462" type="curve"/>
      <point x="1102" y="1188" type="line" name="iv01"/>
      <point x="1062" y="1217.33"/>
      <point x="1013.33" y="1240.33"/>
      <point x="980" y="1251" type="curve" smooth="yes"/>
      <point x="937.333" y="1265.67"/>
      <point x="890.667" y="1272"/>
      <point x="848" y="1272" type="curve" smooth="yes" name="sv01"/>
      <point x="773.333" y="1272"/>
      <point x="724.333" y="1250"/>
      <point x="691" y="1206" type="curve" smooth="yes"/>
      <point x="657.667" y="1160.67"/>
      <point x="641" y="1090.33"/>
      <point x="641" y="995" type="curve" smooth="yes" name="sh02"/>
      <point x="641" y="819" type="line" name="sv02"/>
      <point x="977" y="819" type="line"/>
      <point x="977" y="594" type="line" name="sv03"/>
      <point x="641" y="594" type="line"/>
      <point x="641" y="260" type="line" name="dh02"/>
      <point x="1122" y="260" type="line" name="sv04"/>
      <point x="1122" y="0" type="line" name="ab01"/>
      <point x="119" y="0" type="line"/>
    </contour>
  </outline>
</glyph>
<glyph name="section" format="1">
  <advance width="1233"/>
  <unicode hex="00A7"/>
  <outline>
    <contour>
      <point x="602" y="-195" type="curve" smooth="yes" name="dv01"/>
      <point x="487.942" y="-195"/>
      <point x="370.968" y="-175.574"/>
      <point x="258" y="-137" type="curve"/>
      <point x="258" y="92" type="line" name="ih01"/>
      <point x="318" y="70.6667"/>
      <point x="369.333" y="57.6667"/>
      <point x="424" y="47" type="curve" smooth="yes"/>
      <point x="476" y="36.3333"/>
      <point x="524.333" y="31"/>
      <point x="571" y="31" type="curve" smooth="yes" name="dv02"/>
      <point x="685.753" y="31"/>
      <point x="737" y="75.6883"/>
      <point x="737" y="134" type="curve" smooth="yes" name="dh03"/>
      <point x="737" y="189.513"/>
      <point x="676.761" y="241.166"/>
      <point x="523" y="326" type="curve" smooth="yes"/>
      <point x="486" y="346" type="line" smooth="yes"/>
      <point x="265.576" y="465.507"/>
      <point x="170" y="573.763"/>
      <point x="170" y="696" type="curve" smooth="yes" name="dh01"/>
      <point x="170" y="746.667"/>
      <point x="187.333" y="805.333"/>
      <point x="222" y="852" type="curve" smooth="yes" name="hr01"/>
      <point x="254" y="894.667"/>
      <point x="304.333" y="931.333"/>
      <point x="371" y="954" type="curve" name="ih02"/>
      <point x="323" y="987.333"/>
      <point x="288.667" y="1024"/>
      <point x="268" y="1064" type="curve" smooth="yes"/>
      <point x="246.667" y="1104.67"/>
      <point x="236" y="1151.67"/>
      <point x="236" y="1205" type="curve" smooth="yes" name="ih03"/>
      <point x="236" y="1395.67"/>
      <point x="386.333" y="1520"/>
      <point x="617" y="1520" type="curve" smooth="yes" name="at01"/>
      <point x="665" y="1520"/>
      <point x="715.667" y="1515"/>
      <point x="769" y="1505" type="curve" smooth="yes"/>
      <point x="826.333" y="1494.33"/>
      <point x="876.667" y="1478.67"/>
      <point x="930" y="1460" type="curve"/>
      <point x="930" y="1235" type="line" name="ih04"/>
      <point x="872.667" y="1255"/>
      <point x="822.333" y="1270"/>
      <point x="779" y="1280" type="curve" smooth="yes"/>
      <point x="737.667" y="1289.33"/>
      <point x="691.667" y="1294"/>
      <point x="657" y="1294" type="curve" smooth="yes" name="sv01"/>
      <point x="608.333" y="1294"/>
      <point x="569.667" y="1284.33"/>
      <point x="541" y="1265" type="curve" smooth="yes"/>
      <point x="510.333" y="1243.67"/>
      <point x="498" y="1214.67"/>
      <point x="498" y="1188" type="curve" smooth="yes" name="sh01"/>
      <point x="498" y="1127.8"/>
      <point x="562.979" y="1078.32"/>
      <point x="701" y="1004" type="curve" smooth="yes"/>
      <point x="725.598" y="990.334"/>
      <point x="717.182" y="996.091"/>
      <point x="729" y="989" type="curve" smooth="yes"/>
      <point x="881.243" y="906.201"/>
      <point x="953.351" y="865.757"/>
      <point x="1002" y="809" type="curve" smooth="yes"/>
      <point x="1041.33" y="761.667"/>
      <point x="1061" y="704.667"/>
      <point x="1061" y="638" type="curve" smooth="yes" name="sh02"/>
      <point x="1061" y="518"/>
      <point x="1001.33" y="435.667"/>
      <point x="864" y="373" type="curve" name="ih06"/>
      <point x="910.667" y="340.333"/>
      <point x="945" y="303.333"/>
      <point x="967" y="262" type="curve" smooth="yes"/>
      <point x="988.333" y="221.333"/>
      <point x="999" y="173.333"/>
      <point x="999" y="118" type="curve" smooth="yes" name="dh04"/>
      <point x="999" y="23.3333"/>
      <point x="965.667" y="-56"/>
      <point x="895" y="-112" type="curve" smooth="yes" name="hr03"/>
      <point x="828.333" y="-165.333"/>
      <point x="731.333" y="-195"/>
    </contour>
    <contour>
      <point x="711" y="473" type="curve"/>
      <point x="747" y="495.667"/>
      <point x="776.333" y="524"/>
      <point x="791" y="544" type="curve" smooth="yes"/>
      <point x="807" y="566.667"/>
      <point x="815" y="594.333"/>
      <point x="815" y="613" type="curve" smooth="yes" name="ih05"/>
      <point x="815" y="674.333"/>
      <point x="724.667" y="752"/>
      <point x="550" y="840" type="curve" smooth="yes"/>
      <point x="518" y="856" type="line"/>
      <point x="446" y="809.333"/>
      <point x="414" y="764"/>
      <point x="414" y="712" type="curve" smooth="yes" name="dh02"/>
      <point x="414" y="674.667"/>
      <point x="430.333" y="641.667"/>
      <point x="463" y="613" type="curve" smooth="yes"/>
      <point x="493.606" y="584.945"/>
      <point x="560.418" y="544.328"/>
    </contour>
  </outline>
</glyph>
<glyph name="copyright" format="1">
  <advance width="1233"/>
  <unicode hex="00A9"/>
  <outline>
    <contour>
      <point x="616" y="125" type="curve" smooth="yes" name="hr00"/>
      <point x="528" y="125"/>
      <point x="454" y="140.333"/>
      <point x="382" y="171" type="curve" smooth="yes"/>
      <point x="308.667" y="201.667"/>
      <point x="239.667" y="248.333"/>
      <point x="181" y="307" type="curve" smooth="yes"/>
      <point x="125" y="363"/>
      <point x="75.6667" y="433.333"/>
      <point x="45" y="508" type="curve" smooth="yes"/>
      <point x="15" y="578.667"/>
      <point x="0" y="656.333"/>
      <point x="0" y="741" type="curve" smooth="yes" name="dh01"/>
      <point x="0" y="825"/>
      <point x="15.3333" y="903.667"/>
      <point x="46" y="977" type="curve" smooth="yes"/>
      <point x="76.6667" y="1049"/>
      <point x="120.667" y="1115.33"/>
      <point x="182" y="1178" type="curve" smooth="yes"/>
      <point x="244.667" y="1242"/>
      <point x="311.667" y="1285"/>
      <point x="381" y="1313" type="curve" smooth="yes"/>
      <point x="453.667" y="1343"/>
      <point x="532" y="1358"/>
      <point x="616" y="1358" type="curve" smooth="yes" name="dv03"/>
      <point x="700" y="1358"/>
      <point x="778.667" y="1343"/>
      <point x="852" y="1313" type="curve" smooth="yes"/>
      <point x="928" y="1282.33"/>
      <point x="995" y="1235.33"/>
      <point x="1051" y="1178" type="curve" smooth="yes"/>
      <point x="1116.33" y="1111.33"/>
      <point x="1160.33" y="1041"/>
      <point x="1187" y="977" type="curve" smooth="yes"/>
      <point x="1217.67" y="905"/>
      <point x="1233" y="826.667"/>
      <point x="1233" y="742" type="curve" smooth="yes" name="dh06"/>
      <point x="1233" y="656.667"/>
      <point x="1218" y="578.667"/>
      <point x="1188" y="508" type="curve" smooth="yes"/>
      <point x="1158.67" y="438.667"/>
      <point x="1112" y="367"/>
      <point x="1052" y="307" type="curve" smooth="yes"/>
      <point x="996" y="251"/>
      <point x="927" y="203"/>
      <point x="851" y="171" type="curve" smooth="yes"/>
      <point x="779" y="140.333"/>
      <point x="700.667" y="125"/>
    </contour>
    <contour>
      <point x="616" y="256" type="curve" smooth="yes" name="dv01"/>
      <point x="684" y="256"/>
      <point x="740.667" y="266.333"/>
      <point x="802" y="293" type="curve" smooth="yes"/>
      <point x="852.667" y="315.667"/>
      <point x="907.333" y="349.333"/>
      <point x="958" y="400" type="curve" smooth="yes"/>
      <point x="1003.33" y="445.333"/>
      <point x="1042" y="500.667"/>
      <point x="1066" y="558" type="curve" smooth="yes"/>
      <point x="1090" y="614.667"/>
      <point x="1102" y="676.333"/>
      <point x="1102" y="743" type="curve" smooth="yes" name="dh05"/>
      <point x="1102" y="815"/>
      <point x="1088.67" y="871"/>
      <point x="1066" y="927" type="curve" smooth="yes"/>
      <point x="1016.27" y="1044.77"/>
      <point x="917.969" y="1146.06"/>
      <point x="802" y="1193" type="curve" smooth="yes"/>
      <point x="738" y="1219.67"/>
      <point x="680.333" y="1229"/>
      <point x="619" y="1229" type="curve" smooth="yes" name="dv02"/>
      <point x="544.333" y="1229"/>
      <point x="485.667" y="1215.67"/>
      <point x="431" y="1193" type="curve" smooth="yes"/>
      <point x="317.785" y="1144.48"/>
      <point x="215.452" y="1041"/>
      <point x="167" y="927" type="curve" smooth="yes"/>
      <point x="143" y="871"/>
      <point x="131" y="809.333"/>
      <point x="131" y="742" type="curve" smooth="yes" name="dh02"/>
      <point x="131" y="676"/>
      <point x="143" y="614.667"/>
      <point x="167" y="558" type="curve" smooth="yes"/>
      <point x="192.333" y="498"/>
      <point x="227.333" y="447.667"/>
      <point x="274" y="401" type="curve" smooth="yes"/>
      <point x="324.667" y="350.333"/>
      <point x="375" y="315.667"/>
      <point x="431" y="293" type="curve"/>
      <point x="492.333" y="266.333"/>
      <point x="549.333" y="256"/>
    </contour>
    <contour>
      <point x="637" y="399" type="curve" smooth="yes" name="dv04"/>
      <point x="414.913" y="399"/>
      <point x="266" y="536.896"/>
      <point x="266" y="741" type="curve" smooth="yes" name="dh03"/>
      <point x="266" y="850.333"/>
      <point x="305.667" y="935"/>
      <point x="367" y="991" type="curve" smooth="yes"/>
      <point x="429.667" y="1048.33"/>
      <point x="521.333" y="1083"/>
      <point x="636" y="1083" type="curve" smooth="yes" name="dv07"/>
      <point x="670.667" y="1083"/>
      <point x="713" y="1080.33"/>
      <point x="745" y="1075" type="curve" smooth="yes"/>
      <point x="775.667" y="1069.67"/>
      <point x="817.333" y="1059.67"/>
      <point x="848" y="1049" type="curve"/>
      <point x="848" y="881" type="line" name="ih01"/>
      <point x="812.667" y="902.333"/>
      <point x="780.333" y="917.333"/>
      <point x="751" y="926" type="curve" smooth="yes"/>
      <point x="720.333" y="935.333"/>
      <point x="689.667" y="940"/>
      <point x="655" y="940" type="curve" smooth="yes" name="dv06"/>
      <point x="589.667" y="940"/>
      <point x="541.667" y="922.667"/>
      <point x="507" y="888" type="curve" smooth="yes"/>
      <point x="471" y="852.667"/>
      <point x="453" y="803.667"/>
      <point x="453" y="741" type="curve" smooth="yes" name="dh04"/>
      <point x="453" y="677.667"/>
      <point x="470.667" y="629"/>
      <point x="506" y="595" type="curve" smooth="yes"/>
      <point x="540.667" y="560.333"/>
      <point x="591.333" y="543"/>
      <point x="658" y="543" type="curve" smooth="yes" name="dv05"/>
      <point x="733.113" y="543"/>
      <point x="786.017" y="559.089"/>
      <point x="848" y="602" type="curve" name="ih02"/>
      <point x="848" y="434" type="line"/>
      <point x="810.667" y="423.333"/>
      <point x="774.667" y="414.667"/>
      <point x="740" y="408" type="curve" smooth="yes"/>
      <point x="704.667" y="402"/>
      <point x="670.333" y="399"/>
    </contour>
  </outline>
</glyph>
<glyph name="ordfeminine" format="1">
  <advance width="1233"/>
  <unicode hex="00AA"/>
  <outline>
    <contour>
      <point x="537" y="698" type="curve" smooth="yes" name="hr00"/>
      <point x="451.667" y="698"/>
      <point x="383.333" y="720.667"/>
      <point x="332" y="766" type="curve" smooth="yes"/>
      <point x="281.333" y="811.333"/>
      <point x="256" y="873.667"/>
      <point x="256" y="953" type="curve" smooth="yes" name="sh01"/>
      <point x="256" y="1042.33"/>
      <point x="289" y="1110.33"/>
      <point x="349" y="1153" type="curve" smooth="yes"/>
      <point x="409.667" y="1197"/>
      <point x="503" y="1219"/>
      <point x="629" y="1219" type="curve" smooth="yes"/>
      <point x="786" y="1219" type="line" name="ah01"/>
      <point x="786" y="1245" type="line" smooth="yes"/>
      <point x="786" y="1281"/>
      <point x="767.667" y="1304.33"/>
      <point x="741" y="1319" type="curve" smooth="yes"/>
      <point x="713" y="1333.67"/>
      <point x="669" y="1343"/>
      <point x="601" y="1343" type="curve" smooth="yes" name="sv01"/>
      <point x="550.333" y="1343"/>
      <point x="497.667" y="1337.67"/>
      <point x="451" y="1327" type="curve" smooth="yes"/>
      <point x="403.667" y="1316.33"/>
      <point x="358.333" y="1299.33"/>
      <point x="315" y="1276" type="curve" name="ih01"/>
      <point x="315" y="1464" type="line"/>
      <point x="351" y="1478.67"/>
      <point x="406" y="1495.33"/>
      <point x="462" y="1506" type="curve" smooth="yes" name="sh03"/>
      <point x="511.333" y="1515.33"/>
      <point x="561" y="1520"/>
      <point x="613" y="1520" type="curve" smooth="yes" name="at01"/>
      <point x="863.667" y="1520"/>
      <point x="979" y="1409"/>
      <point x="979" y="1165" type="curve" smooth="yes" name="sh04"/>
      <point x="979" y="717" type="line"/>
      <point x="805" y="717" type="line" name="dv02"/>
      <point x="786" y="809" type="line" name="sh05"/>
      <point x="753.333" y="771"/>
      <point x="716.667" y="743"/>
      <point x="676" y="725" type="curve" smooth="yes"/>
      <point x="634.667" y="707"/>
      <point x="588.333" y="698"/>
    </contour>
    <contour>
      <point x="593" y="866" type="curve" smooth="yes" name="dv03"/>
      <point x="649" y="866"/>
      <point x="698.667" y="887.333"/>
      <point x="732" y="918" type="curve" smooth="yes"/>
      <point x="768" y="952.667"/>
      <point x="786" y="998.333"/>
      <point x="786" y="1049" type="curve" smooth="yes" name="sh06"/>
      <point x="786" y="1079" type="line" name="dv04"/>
      <point x="684" y="1079" type="line" smooth="yes"/>
      <point x="538.667" y="1079"/>
      <point x="475" y="1046"/>
      <point x="475" y="970" type="curve" smooth="yes" name="sh02"/>
      <point x="475" y="940.667"/>
      <point x="485" y="912.667"/>
      <point x="505" y="894" type="curve" smooth="yes"/>
      <point x="523.667" y="876.667"/>
      <point x="551.667" y="866"/>
    </contour>
    <contour>
      <point x="293" y="598" type="line"/>
      <point x="981" y="598" type="line" name="sh07"/>
      <point x="981" y="428" type="line" name="dv01"/>
      <point x="293" y="428" type="line"/>
    </contour>
  </outline>
</glyph>
<glyph name="degree" format="1">
  <advance width="1233"/>
  <unicode hex="00B0"/>
  <outline>
    <contour>
      <point x="613" y="854" type="curve" smooth="yes" name="hr00"/>
      <point x="518.333" y="854"/>
      <point x="436.667" y="889.333"/>
      <point x="378" y="948" type="curve" smooth="yes"/>
      <point x="315.333" y="1010.67"/>
      <point x="283" y="1093"/>
      <point x="283" y="1185" type="curve" smooth="yes" name="sh01"/>
      <point x="283" y="1372.84"/>
      <point x="428.32" y="1520"/>
      <point x="616" y="1520" type="curve" smooth="yes" name="at01"/>
      <point x="661.333" y="1520"/>
      <point x="704" y="1511.67"/>
      <point x="744" y="1495" type="curve" smooth="yes"/>
      <point x="822.872" y="1462.36"/>
      <point x="892.822" y="1392.36"/>
      <point x="924" y="1313" type="curve" smooth="yes"/>
      <point x="940" y="1273.67"/>
      <point x="948" y="1232"/>
      <point x="948" y="1188" type="curve" smooth="yes" name="sh02"/>
      <point x="948" y="1142"/>
      <point x="939.667" y="1099"/>
      <point x="923" y="1059" type="curve" smooth="yes"/>
      <point x="907" y="1020.33"/>
      <point x="884" y="984"/>
      <point x="852" y="952" type="curve" smooth="yes"/>
      <point x="821.333" y="921.333"/>
      <point x="781.667" y="896"/>
      <point x="743" y="880" type="curve" smooth="yes"/>
      <point x="701.667" y="862.667"/>
      <point x="659.667" y="854"/>
    </contour>
    <contour>
      <point x="614" y="1016" type="curve" smooth="yes" name="dv01"/>
      <point x="710" y="1016"/>
      <point x="786" y="1092.33"/>
      <point x="786" y="1187" type="curve" smooth="yes" name="ah01"/>
      <point x="786" y="1235"/>
      <point x="769.667" y="1275.33"/>
      <point x="737" y="1308" type="curve" smooth="yes"/>
      <point x="703.667" y="1341.33"/>
      <point x="663.333" y="1358"/>
      <point x="616" y="1358" type="curve" smooth="yes" name="sv01"/>
      <point x="520" y="1358"/>
      <point x="444" y="1282.33"/>
      <point x="444" y="1185" type="curve" smooth="yes" name="sh03"/>
      <point x="444" y="1090.33"/>
      <point x="518" y="1016"/>
    </contour>
  </outline>
</glyph>
<glyph name="twosuperior" format="1">
  <advance width="1233"/>
  <unicode hex="00B2"/>
  <outline>
    <contour>
      <point x="274" y="1261" type="line" name="hr00"/>
      <point x="308.667" y="1290.33"/>
      <point x="355" y="1328.33"/>
      <point x="415" y="1379" type="curve" smooth="yes"/>
      <point x="627" y="1556.33"/>
      <point x="729" y="1664.33"/>
      <point x="729" y="1727" type="curve" smooth="yes" name="dh01"/>
      <point x="729" y="1749.67"/>
      <point x="716.667" y="1780.67"/>
      <point x="686" y="1802" type="curve" smooth="yes"/>
      <point x="656.667" y="1822"/>
      <point x="617.667" y="1832"/>
      <point x="569" y="1832" type="curve" smooth="yes" name="dv02"/>
      <point x="487.195" y="1832"/>
      <point x="404.7" y="1812.91"/>
      <point x="299" y="1763" type="curve"/>
      <point x="299" y="1927" type="line"/>
      <point x="341.667" y="1940.33"/>
      <point x="401" y="1954.33"/>
      <point x="445" y="1961" type="curve" smooth="yes"/>
      <point x="482.333" y="1967.67"/>
      <point x="535" y="1972"/>
      <point x="587" y="1972" type="curve" smooth="yes" name="dv03"/>
      <point x="695" y="1972"/>
      <point x="783.667" y="1951.67"/>
      <point x="845" y="1909" type="curve" smooth="yes"/>
      <point x="907.667" y="1866.33"/>
      <point x="938" y="1806.33"/>
      <point x="938" y="1753" type="curve" smooth="yes" name="dh02"/>
      <point x="938" y="1656.18"/>
      <point x="836.21" y="1527.24"/>
      <point x="583" y="1330" type="curve" smooth="yes"/>
      <point x="507.832" y="1270.94"/>
      <point x="559.02" y="1310.61"/>
      <point x="500" y="1265" type="curve"/>
      <point x="940" y="1265" type="line" name="sh01"/>
      <point x="940" y="1120" type="line" name="dv01"/>
      <point x="274" y="1120" type="line"/>
    </contour>
  </outline>
</glyph>
<glyph name="threesuperior" format="1">
  <advance width="1233"/>
  <unicode hex="00B3"/>
  <outline>
    <contour>
      <point x="588" y="1113" type="curve" smooth="yes" name="dv01"/>
      <point x="534.667" y="1113"/>
      <point x="486.667" y="1117.33"/>
      <point x="436" y="1124" type="curve" smooth="yes" name="sv01"/>
      <point x="385.333" y="1131.33"/>
      <point x="335.667" y="1141.33"/>
      <point x="287" y="1154" type="curve"/>
      <point x="287" y="1308" type="line"/>
      <point x="327" y="1292"/>
      <point x="374" y="1277.67"/>
      <point x="430" y="1267" type="curve" smooth="yes"/>
      <point x="480.667" y="1257.67"/>
      <point x="536" y="1253"/>
      <point x="580" y="1253" type="curve" smooth="yes" name="dv02"/>
      <point x="646.667" y="1253"/>
      <point x="687" y="1263.67"/>
      <point x="719" y="1285" type="curve" smooth="yes" name="hr01"/>
      <point x="750.333" y="1306.33"/>
      <point x="766" y="1336"/>
      <point x="766" y="1374" type="curve" smooth="yes" name="dh01"/>
      <point x="766" y="1454"/>
      <point x="696.667" y="1502"/>
      <point x="582" y="1502" type="curve" smooth="yes" name="dv05"/>
      <point x="471" y="1502" type="line"/>
      <point x="471" y="1648" type="line"/>
      <point x="582" y="1648" type="line" smooth="yes" name="dv06"/>
      <point x="631.333" y="1648"/>
      <point x="670.333" y="1656.33"/>
      <point x="699" y="1673" type="curve" smooth="yes"/>
      <point x="727" y="1689.67"/>
      <point x="741" y="1713"/>
      <point x="741" y="1743" type="curve" smooth="yes" name="sh01"/>
      <point x="741" y="1768.33"/>
      <point x="731.333" y="1794.33"/>
      <point x="702" y="1813" type="curve" smooth="yes"/>
      <point x="675.333" y="1830.33"/>
      <point x="640.667" y="1838"/>
      <point x="586" y="1838" type="curve" smooth="yes" name="dv03"/>
      <point x="505.364" y="1838"/>
      <point x="405.818" y="1821.74"/>
      <point x="317" y="1793" type="curve"/>
      <point x="317" y="1945" type="line"/>
      <point x="359.667" y="1955.67"/>
      <point x="406.667" y="1964.33"/>
      <point x="456" y="1971" type="curve" smooth="yes" name="sv02"/>
      <point x="502.667" y="1977.67"/>
      <point x="548.333" y="1980"/>
      <point x="591" y="1980" type="curve" smooth="yes" name="dv04"/>
      <point x="692.333" y="1980"/>
      <point x="783" y="1963.33"/>
      <point x="847" y="1922" type="curve" smooth="yes" name="hr02"/>
      <point x="907" y="1883.33"/>
      <point x="938" y="1830"/>
      <point x="938" y="1762" type="curve" smooth="yes" name="ih01"/>
      <point x="938" y="1664.67"/>
      <point x="867" y="1602.67"/>
      <point x="735" y="1580" type="curve" name="iv01"/>
      <point x="809" y="1570"/>
      <point x="865.667" y="1546.33"/>
      <point x="905" y="1509" type="curve" smooth="yes"/>
      <point x="943.667" y="1472.33"/>
      <point x="963" y="1422.67"/>
      <point x="963" y="1360" type="curve" smooth="yes" name="dh02"/>
      <point x="963" y="1280"/>
      <point x="931" y="1219"/>
      <point x="867" y="1177" type="curve" smooth="yes"/>
      <point x="802.333" y="1134.33"/>
      <point x="709.333" y="1113"/>
    </contour>
  </outline>
</glyph>
<glyph name="mu" format="1">
  <advance width="1233"/>
  <unicode hex="00B5"/>
  <outline>
    <contour>
      <point x="154" y="1120" type="line" name="hr00"/>
      <point x="441" y="1120" type="line" name="sh01"/>
      <point x="441" y="440" type="line" smooth="yes"/>
      <point x="441" y="364.667"/>
      <point x="454.667" y="307.667"/>
      <point x="482" y="269" type="curve" smooth="yes"/>
      <point x="508.667" y="231.667"/>
      <point x="546.667" y="211"/>
      <point x="604" y="211" type="curve" smooth="yes" name="sv01"/>
      <point x="658" y="211"/>
      <point x="698.667" y="230"/>
      <point x="726" y="268" type="curve" smooth="yes"/>
      <point x="752.667" y="305.333"/>
      <point x="766" y="362.667"/>
      <point x="766" y="440" type="curve" smooth="yes" name="ah01"/>
      <point x="766" y="1120" type="line" name="at01"/>
      <point x="1055" y="1120" type="line"/>
      <point x="1055" y="344" type="line" smooth="yes" name="sh02"/>
      <point x="1055" y="298"/>
      <point x="1059.67" y="264"/>
      <point x="1069" y="242" type="curve" smooth="yes" name="sh03"/>
      <point x="1077.67" y="221.333"/>
      <point x="1092.33" y="211"/>
      <point x="1113" y="211" type="curve" smooth="yes" name="dv02"/>
      <point x="1123.67" y="211"/>
      <point x="1129.33" y="213"/>
      <point x="1140" y="217" type="curve" smooth="yes"/>
      <point x="1152" y="222.333"/>
      <point x="1154.67" y="223.667"/>
      <point x="1168" y="233" type="curve" name="iv01"/>
      <point x="1168" y="16" type="line"/>
      <point x="1134.67" y="-1.33333"/>
      <point x="1114.67" y="-10"/>
      <point x="1088" y="-18" type="curve" smooth="yes"/>
      <point x="1062.67" y="-24.6667"/>
      <point x="1040.67" y="-29"/>
      <point x="1014" y="-29" type="curve" smooth="yes" name="dv01"/>
      <point x="962" y="-29"/>
      <point x="927" y="-13.6667"/>
      <point x="899" y="9" type="curve" smooth="yes"/>
      <point x="864.333" y="37"/>
      <point x="844.667" y="74.3333"/>
      <point x="826" y="129" type="curve" name="ih01"/>
      <point x="800.667" y="77"/>
      <point x="770" y="37.6667"/>
      <point x="734" y="11" type="curve" smooth="yes"/>
      <point x="697.333" y="-15.6667"/>
      <point x="655.333" y="-29"/>
      <point x="608" y="-29" type="curve" smooth="yes" name="sv02"/>
      <point x="569.333" y="-29"/>
      <point x="536.333" y="-21.3333"/>
      <point x="509" y="-6" type="curve" smooth="yes"/>
      <point x="481" y="9.33333"/>
      <point x="458.333" y="33.3333"/>
      <point x="441" y="66" type="curve" name="sh04"/>
      <point x="443" y="-428" type="line" name="ab01"/>
      <point x="154" y="-428" type="line"/>
    </contour>
  </outline>
</glyph>
<glyph name="paragraph" format="1">
  <advance width="1233"/>
  <unicode hex="00B6"/>
  <outline>
    <contour>
      <point x="496" y="649" type="line" name="hr00"/>
      <point x="353.333" y="667.667"/>
      <point x="254.333" y="712"/>
      <point x="181" y="784" type="curve" smooth="yes"/>
      <point x="107" y="856.667"/>
      <point x="70" y="952"/>
      <point x="70" y="1070" type="curve" smooth="yes"/>
      <point x="70" y="1198"/>
      <point x="113.333" y="1300.33"/>
      <point x="200" y="1377" type="curve" smooth="yes"/>
      <point x="287.333" y="1454.33"/>
      <point x="402.333" y="1493"/>
      <point x="545" y="1493" type="curve" smooth="yes" name="at01"/>
      <point x="1065" y="1493" type="line"/>
      <point x="1065" y="-197" type="line" name="sh01"/>
      <point x="874" y="-197" type="line" name="ah01"/>
      <point x="874" y="1346" type="line" name="sv01"/>
      <point x="684" y="1346" type="line" name="sh02"/>
      <point x="684" y="-197" type="line" name="av01"/>
      <point x="496" y="-197" type="line"/>
    </contour>
  </outline>
</glyph>
<glyph name="periodcentered" format="1">
  <advance width="1233"/>
  <unicode hex="00B7"/>
  <outline>
    <contour>
      <point x="614" y="344" type="curve" smooth="yes" name="hr00"/>
      <point x="516.667" y="344"/>
      <point x="426.667" y="383"/>
      <point x="360" y="451" type="curve" smooth="yes"/>
      <point x="292" y="519"/>
      <point x="256" y="608.667"/>
      <point x="256" y="706" type="curve" smooth="yes"/>
      <point x="256" y="806"/>
      <point x="294" y="893"/>
      <point x="362" y="961" type="curve" smooth="yes"/>
      <point x="428.667" y="1026.33"/>
      <point x="519.667" y="1065"/>
      <point x="617" y="1065" type="curve" smooth="yes" name="av01"/>
      <point x="713" y="1065"/>
      <point x="802" y="1027.33"/>
      <point x="870" y="962" type="curve" smooth="yes"/>
      <point x="942" y="891.333"/>
      <point x="977" y="801.333"/>
      <point x="977" y="708" type="curve" smooth="yes"/>
      <point x="977" y="612"/>
      <point x="938" y="518"/>
      <point x="870" y="450" type="curve" smooth="yes"/>
      <point x="803.333" y="383.333"/>
      <point x="711.333" y="344"/>
    </contour>
  </outline>
</glyph>
<glyph name="cedilla" format="1">
  <advance width="1233"/>
  <unicode hex="00B8"/>
  <outline>
    <contour>
      <point x="573" y="-401" type="curve" smooth="yes" name="dv01"/>
      <point x="542.333" y="-401"/>
      <point x="501.667" y="-399"/>
      <point x="471" y="-395" type="curve" smooth="yes" name="sv01"/>
      <point x="422.135" y="-389.571"/>
      <point x="401.277" y="-382.91"/>
      <point x="367" y="-375" type="curve"/>
      <point x="367" y="-219" type="line" name="dh01"/>
      <point x="397.667" y="-229.667"/>
      <point x="426" y="-238.333"/>
      <point x="454" y="-245" type="curve" smooth="yes"/>
      <point x="482" y="-251"/>
      <point x="508" y="-254"/>
      <point x="532" y="-254" type="curve" smooth="yes" name="dv02"/>
      <point x="570" y="-254"/>
      <point x="600.333" y="-246.333"/>
      <point x="623" y="-231" type="curve" smooth="yes"/>
      <point x="644.333" y="-215.667"/>
      <point x="655" y="-195.333"/>
      <point x="655" y="-170" type="curve" smooth="yes"/>
      <point x="655" y="-151.333"/>
      <point x="648" y="-128.333"/>
      <point x="634" y="-101" type="curve" smooth="yes"/>
      <point x="619.333" y="-74.3333"/>
      <point x="597.667" y="-40"/>
      <point x="567" y="0" type="curve" name="hr01"/>
      <point x="707" y="0" type="line"/>
      <point x="747" y="-42.6667"/>
      <point x="776" y="-84.3333"/>
      <point x="792" y="-115" type="curve" smooth="yes"/>
      <point x="810" y="-149"/>
      <point x="819" y="-184.333"/>
      <point x="819" y="-221" type="curve" smooth="yes" name="dh02"/>
      <point x="819" y="-282.333"/>
      <point x="795.667" y="-326.667"/>
      <point x="757" y="-356" type="curve" smooth="yes"/>
      <point x="722.333" y="-382.667"/>
      <point x="667.667" y="-401"/>
    </contour>
  </outline>
</glyph>
<glyph name="ordmasculine" format="1">
  <advance width="1233"/>
  <unicode hex="00BA"/>
  <outline>
    <contour>
      <point x="637" y="698" type="curve" smooth="yes" name="hr00"/>
      <point x="414.429" y="698"/>
      <point x="274" y="855.147"/>
      <point x="274" y="1107" type="curve" smooth="yes" name="sh01"/>
      <point x="274" y="1233"/>
      <point x="307" y="1333.67"/>
      <point x="373" y="1409" type="curve" smooth="yes"/>
      <point x="437.667" y="1483"/>
      <point x="525.667" y="1520"/>
      <point x="637" y="1520" type="curve" smooth="yes" name="at01"/>
      <point x="747.667" y="1520"/>
      <point x="835.667" y="1483"/>
      <point x="901" y="1409" type="curve" smooth="yes"/>
      <point x="966.333" y="1334.33"/>
      <point x="999" y="1233.67"/>
      <point x="999" y="1107" type="curve" smooth="yes" name="sh02"/>
      <point x="999" y="981.667"/>
      <point x="968.667" y="885"/>
      <point x="902" y="809" type="curve" smooth="yes"/>
      <point x="836.667" y="735"/>
      <point x="748.333" y="698"/>
    </contour>
    <contour>
      <point x="637" y="874" type="curve" smooth="yes" name="dv03"/>
      <point x="683.667" y="874"/>
      <point x="723.667" y="894.333"/>
      <point x="753" y="937" type="curve" smooth="yes"/>
      <point x="781" y="977.667"/>
      <point x="795" y="1034.67"/>
      <point x="795" y="1108" type="curve" smooth="yes" name="ah01"/>
      <point x="795" y="1180.67"/>
      <point x="781" y="1238"/>
      <point x="753" y="1280" type="curve" smooth="yes"/>
      <point x="726.333" y="1320"/>
      <point x="687.667" y="1343"/>
      <point x="637" y="1343" type="curve" smooth="yes" name="sv01"/>
      <point x="582.333" y="1343"/>
      <point x="546" y="1315.67"/>
      <point x="522" y="1281" type="curve" smooth="yes"/>
      <point x="493.333" y="1238.33"/>
      <point x="479" y="1180.67"/>
      <point x="479" y="1108" type="curve" smooth="yes" name="sh03"/>
      <point x="479" y="1035.33"/>
      <point x="493" y="978.333"/>
      <point x="521" y="937" type="curve" smooth="yes"/>
      <point x="546.333" y="899.667"/>
      <point x="585" y="874"/>
    </contour>
    <contour>
      <point x="293" y="598" type="line"/>
      <point x="981" y="598" type="line" name="dv02"/>
      <point x="981" y="428" type="line" name="dv01"/>
      <point x="293" y="428" type="line"/>
    </contour>
  </outline>
</glyph>
<glyph name="threequarters" format="1">
  <advance width="1233"/>
  <unicode hex="00BE"/>
  <outline>
    <contour>
      <point x="361" y="809" type="curve" smooth="yes" name="dv05"/>
      <point x="307.667" y="809"/>
      <point x="259.667" y="813.333"/>
      <point x="209" y="820" type="curve" smooth="yes" name="sv01"/>
      <point x="158.333" y="827.333"/>
      <point x="108.667" y="837.333"/>
      <point x="60" y="850" type="curve"/>
      <point x="60" y="1004" type="line"/>
      <point x="100" y="988"/>
      <point x="147" y="973.667"/>
      <point x="203" y="963" type="curve" smooth="yes"/>
      <point x="253.667" y="953.667"/>
      <point x="309" y="949"/>
      <point x="353" y="949" type="curve" smooth="yes" name="dv06"/>
      <point x="419.667" y="949"/>
      <point x="460" y="959.667"/>
      <point x="492" y="981" type="curve" smooth="yes"/>
      <point x="523.333" y="1002.33"/>
      <point x="539" y="1032"/>
      <point x="539" y="1070" type="curve" smooth="yes" name="dh03"/>
      <point x="539" y="1150"/>
      <point x="469.667" y="1198"/>
      <point x="355" y="1198" type="curve" smooth="yes" name="dv03"/>
      <point x="244" y="1198" type="line"/>
      <point x="244" y="1344" type="line"/>
      <point x="355" y="1344" type="line" smooth="yes" name="dv04"/>
      <point x="404.333" y="1344"/>
      <point x="443.333" y="1352.33"/>
      <point x="472" y="1369" type="curve" smooth="yes"/>
      <point x="500" y="1385.67"/>
      <point x="514" y="1409"/>
      <point x="514" y="1439" type="curve" smooth="yes" name="sh01"/>
      <point x="514" y="1464.33"/>
      <point x="504.333" y="1490.33"/>
      <point x="475" y="1509" type="curve" smooth="yes"/>
      <point x="448.333" y="1526.33"/>
      <point x="413.667" y="1534"/>
      <point x="359" y="1534" type="curve" smooth="yes" name="dv01"/>
      <point x="278.364" y="1534"/>
      <point x="178.818" y="1517.74"/>
      <point x="90" y="1489" type="curve"/>
      <point x="90" y="1641" type="line"/>
      <point x="132.667" y="1651.67"/>
      <point x="179.667" y="1660.33"/>
      <point x="229" y="1667" type="curve" smooth="yes" name="sv02"/>
      <point x="275.667" y="1673.67"/>
      <point x="321.333" y="1676"/>
      <point x="364" y="1676" type="curve" smooth="yes" name="dv02"/>
      <point x="465.333" y="1676"/>
      <point x="556" y="1659.33"/>
      <point x="620" y="1618" type="curve" smooth="yes"/>
      <point x="680" y="1579.33"/>
      <point x="711" y="1526"/>
      <point x="711" y="1458" type="curve" smooth="yes" name="ih01"/>
      <point x="711" y="1360.67"/>
      <point x="640" y="1298.67"/>
      <point x="508" y="1276" type="curve" name="iv01"/>
      <point x="582" y="1266"/>
      <point x="638.667" y="1242.33"/>
      <point x="678" y="1205" type="curve" smooth="yes"/>
      <point x="716.667" y="1168.33"/>
      <point x="736" y="1118.67"/>
      <point x="736" y="1056" type="curve" smooth="yes" name="dh04"/>
      <point x="736" y="976"/>
      <point x="704" y="915"/>
      <point x="640" y="873" type="curve" smooth="yes"/>
      <point x="575.333" y="830.333"/>
      <point x="482.333" y="809"/>
    </contour>
    <contour>
      <point x="47" y="618" type="line"/>
      <point x="1106" y="881" type="line"/>
      <point x="1143" y="762" type="line"/>
      <point x="84" y="500" type="line"/>
    </contour>
    <contour>
      <point x="823" y="-90" type="line" name="dh01"/>
      <point x="430" y="-90" type="line"/>
      <point x="430" y="72" type="line"/>
      <point x="805" y="565" type="line"/>
      <point x="1009" y="565" type="line" name="sh02"/>
      <point x="1009" y="53" type="line" name="sv03"/>
      <point x="1118" y="53" type="line"/>
      <point x="1118" y="-90" type="line" name="hr02"/>
      <point x="1009" y="-90" type="line" name="dh02"/>
      <point x="1009" y="-270" type="line" name="av01"/>
      <point x="823" y="-270" type="line"/>
    </contour>
    <contour>
      <point x="823" y="53" type="line" name="sh03"/>
      <point x="823" y="383" type="line" name="ih02"/>
      <point x="573" y="53" type="line" name="ih03"/>
    </contour>
  </outline>
</glyph>
<glyph name="questiondown" format="1">
  <advance width="1233"/>
  <unicode hex="00BF"/>
  <outline>
    <contour>
      <point x="667" y="1222" type="curve" smooth="yes" name="dv02"/>
      <point x="577.667" y="1222"/>
      <point x="506" y="1291.67"/>
      <point x="506" y="1389" type="curve" smooth="yes" name="dh03"/>
      <point x="506" y="1438.33"/>
      <point x="522.333" y="1480.33"/>
      <point x="553" y="1511" type="curve" smooth="yes"/>
      <point x="585" y="1541.67"/>
      <point x="627" y="1556"/>
      <point x="667" y="1556" type="curve" smooth="yes" name="at01"/>
      <point x="677.667" y="1556"/>
      <point x="688.667" y="1555"/>
      <point x="700" y="1553" type="curve" smooth="yes" name="at02"/>
      <point x="705.333" y="1551.67"/>
      <point x="718.333" y="1549.33"/>
      <point x="729" y="1544" type="curve" smooth="yes" name="at03"/>
      <point x="753.537" y="1533.48"/>
      <point x="759.056" y="1530.94"/>
      <point x="781" y="1509" type="curve" smooth="yes"/>
      <point x="794.333" y="1495.67"/>
      <point x="806.667" y="1478.67"/>
      <point x="816" y="1456" type="curve" smooth="yes"/>
      <point x="824" y="1436"/>
      <point x="828" y="1414"/>
      <point x="828" y="1390" type="curve" smooth="yes" name="dh04"/>
      <point x="828" y="1291.33"/>
      <point x="756.333" y="1222"/>
    </contour>
    <contour>
      <point x="606" y="-27" type="curve" smooth="yes" name="ab01"/>
      <point x="338.589" y="-27"/>
      <point x="176" y="109.961"/>
      <point x="176" y="323" type="curve" smooth="yes" name="dh01"/>
      <point x="176" y="379"/>
      <point x="187.333" y="424"/>
      <point x="210" y="468" type="curve" smooth="yes"/>
      <point x="232.667" y="510.667"/>
      <point x="271.333" y="561"/>
      <point x="338" y="625" type="curve" smooth="yes"/>
      <point x="426" y="711" type="line" smooth="yes"/>
      <point x="470" y="753.667"/>
      <point x="498.333" y="789"/>
      <point x="511" y="817" type="curve" smooth="yes"/>
      <point x="523.667" y="844.333"/>
      <point x="530" y="879.333"/>
      <point x="530" y="922" type="curve" name="sh01"/>
      <point x="530" y="924"/>
      <point x="530.333" y="926"/>
      <point x="531" y="928" type="curve" smooth="yes" name="sh02"/>
      <point x="532.333" y="942.667"/>
      <point x="532" y="955.667"/>
      <point x="532" y="969" type="curve" smooth="yes" name="ih01"/>
      <point x="532" y="1092" type="line"/>
      <point x="799" y="1092" type="line" name="dv01"/>
      <point x="799" y="938" type="line" smooth="yes" name="sh03"/>
      <point x="799" y="871.333"/>
      <point x="788.667" y="815"/>
      <point x="768" y="769" type="curve" smooth="yes"/>
      <point x="745.333" y="718.333"/>
      <point x="709" y="671.667"/>
      <point x="657" y="621" type="curve" smooth="yes"/>
      <point x="567" y="532" type="line" smooth="yes" name="hr01"/>
      <point x="513.686" y="478.686"/>
      <point x="497.327" y="457.989"/>
      <point x="484" y="434" type="curve" smooth="yes"/>
      <point x="468.667" y="405.333"/>
      <point x="461" y="376.333"/>
      <point x="461" y="347" type="curve" smooth="yes" name="dh02"/>
      <point x="461" y="259.675"/>
      <point x="524.346" y="213"/>
      <point x="642" y="213" type="curve" smooth="yes" name="sv01"/>
      <point x="702" y="213"/>
      <point x="757.667" y="225"/>
      <point x="819" y="249" type="curve" smooth="yes"/>
      <point x="883" y="274.333"/>
      <point x="938" y="306"/>
      <point x="1006" y="354" type="curve" name="iv01"/>
      <point x="1006" y="86" type="line"/>
      <point x="940.667" y="48.6667"/>
      <point x="878.667" y="22"/>
      <point x="808" y="2" type="curve" smooth="yes"/>
      <point x="741.333" y="-16.6667"/>
      <point x="680.667" y="-27"/>
    </contour>
  </outline>
</glyph>
<glyph name="Ccedilla" format="1">
  <advance width="1233"/>
  <unicode hex="00C7"/>
  <outline>
    <contour>
      <point x="774" y="1255" type="curve" smooth="yes" name="hr00"/>
      <point x="667.333" y="1255"/>
      <point x="586.333" y="1212.33"/>
      <point x="531" y="1127" type="curve" smooth="yes"/>
      <point x="475.667" y="1040.33"/>
      <point x="448" y="913"/>
      <point x="448" y="745" type="curve" smooth="yes" name="sh02"/>
      <point x="448" y="577"/>
      <point x="475.667" y="450.333"/>
      <point x="531" y="365" type="curve" smooth="yes"/>
      <point x="585.667" y="279"/>
      <point x="666.667" y="236"/>
      <point x="774" y="236" type="curve" smooth="yes" name="sv01"/>
      <point x="825.333" y="236"/>
      <point x="875" y="247"/>
      <point x="923" y="269" type="curve" smooth="yes" name="sh04"/>
      <point x="969.667" y="290.333"/>
      <point x="1012.67" y="319"/>
      <point x="1070" y="371" type="curve" name="iv01"/>
      <point x="1070" y="43" type="line"/>
      <point x="1022.67" y="19"/>
      <point x="973.667" y="1"/>
      <point x="923" y="-11" type="curve" smooth="yes" name="sh05"/>
      <point x="895" y="-17.6667"/>
      <point x="866.667" y="-22.3333"/>
      <point x="836" y="-25" type="curve" name="ih01"/>
      <point x="864" y="-59.6667"/>
      <point x="884.667" y="-91"/>
      <point x="898" y="-115" type="curve" smooth="yes"/>
      <point x="916" y="-149"/>
      <point x="925" y="-184.333"/>
      <point x="925" y="-221" type="curve" smooth="yes" name="sh03"/>
      <point x="925" y="-282.333"/>
      <point x="901.667" y="-326.667"/>
      <point x="863" y="-356" type="curve" smooth="yes"/>
      <point x="828.333" y="-382.667"/>
      <point x="774.333" y="-401"/>
      <point x="677" y="-401" type="curve" smooth="yes" name="dv01"/>
      <point x="645" y="-401"/>
      <point x="610.333" y="-399"/>
      <point x="577" y="-395" type="curve" smooth="yes" name="sv02"/>
      <point x="526.333" y="-388.333"/>
      <point x="503.667" y="-381.667"/>
      <point x="473" y="-375" type="curve"/>
      <point x="473" y="-219" type="line" name="ah01"/>
      <point x="503.667" y="-229.667"/>
      <point x="532" y="-238.333"/>
      <point x="560" y="-245" type="curve" smooth="yes"/>
      <point x="588" y="-251"/>
      <point x="614" y="-254"/>
      <point x="638" y="-254" type="curve" smooth="yes" name="dv02"/>
      <point x="676" y="-254"/>
      <point x="706.333" y="-246.333"/>
      <point x="729" y="-231" type="curve" smooth="yes"/>
      <point x="750.333" y="-215.667"/>
      <point x="761" y="-195.333"/>
      <point x="761" y="-170" type="curve" smooth="yes"/>
      <point x="761" y="-151.333"/>
      <point x="754" y="-128.333"/>
      <point x="740" y="-101" type="curve" smooth="yes"/>
      <point x="729.333" y="-79.6667"/>
      <point x="714.333" y="-55.3333"/>
      <point x="693" y="-26" type="curve" name="ab01"/>
      <point x="524.333" y="-12.6667"/>
      <point x="393.333" y="52.6667"/>
      <point x="300" y="170" type="curve" smooth="yes"/>
      <point x="194" y="302.667"/>
      <point x="141" y="494.333"/>
      <point x="141" y="745" type="curve" smooth="yes" name="sh01"/>
      <point x="141" y="995.667"/>
      <point x="194" y="1187.67"/>
      <point x="300" y="1321" type="curve" smooth="yes"/>
      <point x="406.667" y="1454.33"/>
      <point x="560.333" y="1520"/>
      <point x="759" y="1520" type="curve" smooth="yes" name="at01"/>
      <point x="819" y="1520"/>
      <point x="872" y="1514"/>
      <point x="924" y="1502" type="curve" smooth="yes" name="sh06"/>
      <point x="976.667" y="1490"/>
      <point x="1025.33" y="1472"/>
      <point x="1070" y="1448" type="curve"/>
      <point x="1070" y="1120" type="line" name="iv02"/>
      <point x="1010" y="1176"/>
      <point x="964.667" y="1204.33"/>
      <point x="922" y="1223" type="curve" smooth="yes" name="sh07"/>
      <point x="871.333" y="1245.67"/>
      <point x="823.333" y="1255"/>
    </contour>
  </outline>
</glyph>
<glyph name="Ntilde" format="1">
  <advance width="1233"/>
  <unicode hex="00D1"/>
  <outline>
    <contour>
      <point x="268" y="1618" type="line" smooth="yes" name="hr00"/>
      <point x="268" y="1691.33"/>
      <point x="288.667" y="1750.33"/>
      <point x="322" y="1789" type="curve" smooth="yes"/>
      <point x="359.333" y="1833"/>
      <point x="411.333" y="1854"/>
      <point x="466" y="1854" type="curve" smooth="yes" name="sv01"/>
      <point x="490.667" y="1854"/>
      <point x="515" y="1850"/>
      <point x="539" y="1842" type="curve" smooth="yes"/>
      <point x="561.667" y="1834"/>
      <point x="588.667" y="1821"/>
      <point x="614" y="1805" type="curve" smooth="yes"/>
      <point x="674" y="1766" type="line" smooth="yes"/>
      <point x="684.667" y="1759.33"/>
      <point x="700.333" y="1751.67"/>
      <point x="715" y="1745" type="curve" smooth="yes"/>
      <point x="728.333" y="1739.67"/>
      <point x="738" y="1737"/>
      <point x="750" y="1737" type="curve" smooth="yes"/>
      <point x="774" y="1737"/>
      <point x="792.667" y="1747"/>
      <point x="806" y="1767" type="curve" smooth="yes"/>
      <point x="818.667" y="1786.33"/>
      <point x="825" y="1815.33"/>
      <point x="825" y="1854" type="curve" name="dv02"/>
      <point x="965" y="1854" type="line"/>
      <point x="965" y="1851.33"/>
      <point x="965.333" y="1845.67"/>
      <point x="964" y="1839" type="curve"/>
      <point x="964" y="1836.33"/>
      <point x="963" y="1838"/>
      <point x="963" y="1822" type="curve" smooth="yes"/>
      <point x="963" y="1755.33"/>
      <point x="944.667" y="1695.67"/>
      <point x="910" y="1653" type="curve" smooth="yes"/>
      <point x="871.333" y="1606.33"/>
      <point x="822.667" y="1588"/>
      <point x="768" y="1588" type="curve" smooth="yes" name="dv01"/>
      <point x="744" y="1588"/>
      <point x="720" y="1591.67"/>
      <point x="696" y="1599" type="curve" smooth="yes"/>
      <point x="669.333" y="1607"/>
      <point x="646" y="1618.33"/>
      <point x="618" y="1637" type="curve" smooth="yes"/>
      <point x="564" y="1671" type="line" smooth="yes"/>
      <point x="558.667" y="1674.33"/>
      <point x="556" y="1676"/>
      <point x="556" y="1676" type="curve"/>
      <point x="556" y="1676"/>
      <point x="554.667" y="1676.67"/>
      <point x="552" y="1678" type="curve" smooth="yes"/>
      <point x="522.667" y="1694"/>
      <point x="500.333" y="1704"/>
      <point x="479" y="1704" type="curve" smooth="yes"/>
      <point x="457.667" y="1704"/>
      <point x="440.667" y="1694"/>
      <point x="428" y="1674" type="curve" smooth="yes"/>
      <point x="414.667" y="1653.33"/>
      <point x="408" y="1626.67"/>
      <point x="408" y="1594" type="curve" smooth="yes"/>
      <point x="408" y="1588" type="line" name="sv02"/>
      <point x="268" y="1588" type="line"/>
    </contour>
    <contour>
      <point x="119" y="1493" type="line" name="sh01"/>
      <point x="436" y="1493" type="line"/>
      <point x="852" y="408" type="line" name="ah01"/>
      <point x="852" y="1493" type="line" name="at01"/>
      <point x="1112" y="1493" type="line"/>
      <point x="1112" y="0" type="line" name="sh02"/>
      <point x="797" y="0" type="line"/>
      <point x="379" y="1085" type="line" name="sh03"/>
      <point x="379" y="0" type="line" name="ab01"/>
      <point x="119" y="0" type="line"/>
    </contour>
  </outline>
</glyph>
<glyph name="Ograve" format="1">
  <advance width="1233"/>
  <unicode hex="00D2"/>
  <outline>
    <contour>
      <point x="283" y="1852" type="line" name="hr00"/>
      <point x="567" y="1852" type="line"/>
      <point x="766" y="1588" type="line" name="ih01"/>
      <point x="569" y="1588" type="line"/>
    </contour>
    <contour>
      <point x="616" y="-29" type="curve" smooth="yes" name="dv01"/>
      <point x="436" y="-29"/>
      <point x="309" y="40.6667"/>
      <point x="225" y="166" type="curve" smooth="yes"/>
      <point x="136.333" y="297.333"/>
      <point x="92" y="490.333"/>
      <point x="92" y="745" type="curve" smooth="yes" name="sh01"/>
      <point x="92" y="999.667"/>
      <point x="135.667" y="1191.67"/>
      <point x="225" y="1325" type="curve" smooth="yes"/>
      <point x="317" y="1461"/>
      <point x="453.333" y="1520"/>
      <point x="616" y="1520" type="curve" smooth="yes" name="at01"/>
      <point x="790.667" y="1520"/>
      <point x="921" y="1453.33"/>
      <point x="1009" y="1324" type="curve" smooth="yes"/>
      <point x="1097" y="1192.67"/>
      <point x="1141" y="999.667"/>
      <point x="1141" y="745" type="curve" smooth="yes" name="sh03"/>
      <point x="1141" y="490.333"/>
      <point x="1097" y="297.667"/>
      <point x="1009" y="167" type="curve" smooth="yes"/>
      <point x="923.667" y="40.3333"/>
      <point x="794.667" y="-29"/>
    </contour>
    <contour>
      <point x="616" y="236" type="curve" smooth="yes" name="dv02"/>
      <point x="692" y="236"/>
      <point x="747.333" y="276.333"/>
      <point x="782" y="357" type="curve" smooth="yes"/>
      <point x="816.667" y="436.333"/>
      <point x="834" y="566"/>
      <point x="834" y="746" type="curve" smooth="yes" name="ah01"/>
      <point x="834" y="925.333"/>
      <point x="816.667" y="1054.67"/>
      <point x="782" y="1134" type="curve" smooth="yes"/>
      <point x="747.333" y="1214.67"/>
      <point x="692" y="1255"/>
      <point x="616" y="1255" type="curve" name="sv01"/>
      <point x="461.523" y="1246.87"/>
      <point x="401.634" y="1113.09"/>
      <point x="399" y="747" type="curve" name="sh02"/>
      <point x="399" y="566.333"/>
      <point x="416.333" y="436.333"/>
      <point x="451" y="357" type="curve" smooth="yes"/>
      <point x="485.667" y="276.333"/>
      <point x="540.667" y="236"/>
    </contour>
  </outline>
</glyph>
<glyph name="Otilde" format="1">
  <advance width="1233"/>
  <unicode hex="00D5"/>
  <outline>
    <contour>
      <point x="268" y="1618" type="line" smooth="yes" name="hr00"/>
      <point x="268" y="1691.33"/>
      <point x="288.667" y="1750.33"/>
      <point x="322" y="1789" type="curve" smooth="yes"/>
      <point x="359.333" y="1833"/>
      <point x="411.333" y="1854"/>
      <point x="466" y="1854" type="curve" smooth="yes" name="sv01"/>
      <point x="490.667" y="1854"/>
      <point x="515" y="1850"/>
      <point x="539" y="1842" type="curve" smooth="yes"/>
      <point x="559" y="1835.33"/>
      <point x="586" y="1823.67"/>
      <point x="614" y="1805" type="curve" smooth="yes"/>
      <point x="674" y="1766" type="line" smooth="yes"/>
      <point x="684.667" y="1759.33"/>
      <point x="696.333" y="1753"/>
      <point x="715" y="1745" type="curve" smooth="yes"/>
      <point x="728.333" y="1739.67"/>
      <point x="738" y="1737"/>
      <point x="750" y="1737" type="curve" smooth="yes"/>
      <point x="774" y="1737"/>
      <point x="792.667" y="1747"/>
      <point x="806" y="1767" type="curve" smooth="yes"/>
      <point x="818.667" y="1786.33"/>
      <point x="825" y="1815.33"/>
      <point x="825" y="1854" type="curve" name="sh01"/>
      <point x="965" y="1854" type="line"/>
      <point x="965" y="1851.33"/>
      <point x="965.333" y="1845.67"/>
      <point x="964" y="1839" type="curve" smooth="yes"/>
      <point x="962.667" y="1833.67"/>
      <point x="963" y="1829.67"/>
      <point x="963" y="1827" type="curve" smooth="yes"/>
      <point x="963" y="1754.33"/>
      <point x="945.333" y="1696.33"/>
      <point x="910" y="1653" type="curve" smooth="yes"/>
      <point x="871.333" y="1606.33"/>
      <point x="822.667" y="1588"/>
      <point x="768" y="1588" type="curve" smooth="yes" name="dv03"/>
      <point x="744" y="1588"/>
      <point x="720" y="1591.67"/>
      <point x="696" y="1599" type="curve" smooth="yes"/>
      <point x="669.333" y="1607"/>
      <point x="646" y="1618.33"/>
      <point x="618" y="1637" type="curve" smooth="yes"/>
      <point x="564" y="1671" type="line"/>
      <point x="552" y="1678" type="line" smooth="yes" name="hr01"/>
      <point x="524" y="1692.67"/>
      <point x="501.667" y="1704"/>
      <point x="479" y="1704" type="curve" smooth="yes"/>
      <point x="457.667" y="1704"/>
      <point x="440.667" y="1694"/>
      <point x="428" y="1674" type="curve" smooth="yes"/>
      <point x="414.667" y="1653.33"/>
      <point x="408" y="1626.67"/>
      <point x="408" y="1594" type="curve" smooth="yes" name="sh02"/>
      <point x="408" y="1588" type="line" name="sv02"/>
      <point x="268" y="1588" type="line" name="sh03"/>
    </contour>
    <contour>
      <point x="616" y="-29" type="curve" smooth="yes" name="dv01"/>
      <point x="436" y="-29"/>
      <point x="309" y="40.6667"/>
      <point x="225" y="166" type="curve" smooth="yes"/>
      <point x="136.333" y="297.333"/>
      <point x="92" y="490.333"/>
      <point x="92" y="745" type="curve" smooth="yes" name="dh01"/>
      <point x="92" y="999.667"/>
      <point x="135.667" y="1191.67"/>
      <point x="225" y="1325" type="curve" smooth="yes"/>
      <point x="317" y="1461"/>
      <point x="453.333" y="1520"/>
      <point x="616" y="1520" type="curve" smooth="yes" name="at01"/>
      <point x="790.667" y="1520"/>
      <point x="921" y="1453.33"/>
      <point x="1009" y="1324" type="curve" smooth="yes"/>
      <point x="1097" y="1192.67"/>
      <point x="1141" y="999.667"/>
      <point x="1141" y="745" type="curve" smooth="yes" name="dh04"/>
      <point x="1141" y="490.333"/>
      <point x="1097" y="297.667"/>
      <point x="1009" y="167" type="curve" smooth="yes"/>
      <point x="923.667" y="40.3333"/>
      <point x="794.667" y="-29"/>
    </contour>
    <contour>
      <point x="616" y="236" type="curve" smooth="yes" name="dv02"/>
      <point x="692" y="236"/>
      <point x="747.333" y="276.333"/>
      <point x="782" y="357" type="curve" smooth="yes"/>
      <point x="816.667" y="436.333"/>
      <point x="834" y="566"/>
      <point x="834" y="746" type="curve" smooth="yes" name="dh03"/>
      <point x="834" y="925.333"/>
      <point x="816.667" y="1054.67"/>
      <point x="782" y="1134" type="curve" smooth="yes"/>
      <point x="747.333" y="1214.67"/>
      <point x="692" y="1255"/>
      <point x="616" y="1255" type="curve" name="sv03"/>
      <point x="461.523" y="1246.87"/>
      <point x="401.634" y="1113.09"/>
      <point x="399" y="747" type="curve" name="dh02"/>
      <point x="399" y="566.333"/>
      <point x="416.333" y="436.333"/>
      <point x="451" y="357" type="curve" smooth="yes"/>
      <point x="485.667" y="276.333"/>
      <point x="540.667" y="236"/>
    </contour>
  </outline>
</glyph>
<glyph name="Oslash" format="1">
  <advance width="1233"/>
  <unicode hex="00D8"/>
  <outline>
    <contour>
      <point x="-6" y="51" type="line" name="hr00"/>
      <point x="162" y="289" type="line"/>
      <point x="136.667" y="354.333"/>
      <point x="122" y="411"/>
      <point x="110" y="491" type="curve" smooth="yes"/>
      <point x="99.3333" y="563"/>
      <point x="92" y="639"/>
      <point x="92" y="743" type="curve" smooth="yes" name="sh01"/>
      <point x="92" y="999.667"/>
      <point x="136.333" y="1193.33"/>
      <point x="225" y="1324" type="curve" smooth="yes"/>
      <point x="313" y="1454.67"/>
      <point x="438.667" y="1520"/>
      <point x="616" y="1520" type="curve" smooth="yes" name="at02"/>
      <point x="686" y="1520"/>
      <point x="748" y="1509.67"/>
      <point x="802" y="1489" type="curve" smooth="yes"/>
      <point x="860.667" y="1466.33"/>
      <point x="907.333" y="1435.67"/>
      <point x="946" y="1397" type="curve"/>
      <point x="1059" y="1559" type="line" name="at01"/>
      <point x="1221" y="1444" type="line"/>
      <point x="1063" y="1221" type="line"/>
      <point x="1089.67" y="1156.33"/>
      <point x="1109.33" y="1085.33"/>
      <point x="1122" y="1008" type="curve" smooth="yes"/>
      <point x="1135.33" y="928"/>
      <point x="1141" y="841"/>
      <point x="1141" y="745" type="curve" smooth="yes" name="sh02"/>
      <point x="1141" y="490.333"/>
      <point x="1097" y="297.667"/>
      <point x="1009" y="167" type="curve" smooth="yes"/>
      <point x="917" y="31"/>
      <point x="784.333" y="-29"/>
      <point x="615" y="-29" type="curve" smooth="yes" name="dv01"/>
      <point x="469.522" y="-29"/>
      <point x="365.397" y="14.6028"/>
      <point x="276" y="104" type="curve"/>
      <point x="156" y="-63" type="line" name="av01"/>
    </contour>
    <contour>
      <point x="772" y="1153" type="line"/>
      <point x="754.667" y="1187"/>
      <point x="733" y="1212.67"/>
      <point x="707" y="1230" type="curve" smooth="yes"/>
      <point x="681.667" y="1246.67"/>
      <point x="651.667" y="1255"/>
      <point x="617" y="1255" type="curve" smooth="yes" name="sv01"/>
      <point x="538.333" y="1255"/>
      <point x="486.667" y="1213.67"/>
      <point x="452" y="1135" type="curve" smooth="yes"/>
      <point x="416.667" y="1054.33"/>
      <point x="399" y="928"/>
      <point x="399" y="756" type="curve" smooth="yes" name="sh03"/>
      <point x="399" y="629" type="line" name="iv01"/>
    </contour>
    <contour>
      <point x="618" y="236" type="curve" smooth="yes" name="dv02"/>
      <point x="698" y="236"/>
      <point x="747.667" y="279.667"/>
      <point x="781" y="357" type="curve" smooth="yes"/>
      <point x="815.027" y="435.524"/>
      <point x="834" y="559.932"/>
      <point x="834" y="781" type="curve" name="ah01"/>
      <point x="833" y="804" type="line" smooth="yes"/>
      <point x="830.373" y="840.779"/>
      <point x="831.644" y="829.823"/>
      <point x="829" y="888" type="curve" name="sh04"/>
      <point x="451" y="354" type="line"/>
      <point x="465.667" y="316.667"/>
      <point x="490.333" y="285.667"/>
      <point x="517" y="267" type="curve" smooth="yes"/>
      <point x="545.667" y="246.333"/>
      <point x="579.333" y="236"/>
    </contour>
  </outline>
</glyph>
<glyph name="Ucircumflex" format="1">
  <advance width="1233"/>
  <unicode hex="00DB"/>
  <outline>
    <contour>
      <point x="461" y="1852" type="line" name="hr00"/>
      <point x="770" y="1852" type="line"/>
      <point x="993" y="1588" type="line" name="ih01"/>
      <point x="815" y="1588" type="line"/>
      <point x="616" y="1749" type="line"/>
      <point x="418" y="1588" type="line"/>
      <point x="240" y="1588" type="line" name="ih02"/>
    </contour>
    <contour>
      <point x="616" y="-29" type="curve" smooth="yes" name="dv01"/>
      <point x="438" y="-29"/>
      <point x="308.667" y="17"/>
      <point x="228" y="109" type="curve" smooth="yes"/>
      <point x="146.667" y="201.667"/>
      <point x="106" y="349"/>
      <point x="106" y="551" type="curve" smooth="yes" name="sh02"/>
      <point x="106" y="1493" type="line" name="at01"/>
      <point x="401" y="1493" type="line"/>
      <point x="401" y="477" type="line" smooth="yes" name="sh03"/>
      <point x="401" y="401"/>
      <point x="422" y="341"/>
      <point x="458" y="301" type="curve" smooth="yes"/>
      <point x="496.667" y="258.333"/>
      <point x="552" y="238"/>
      <point x="616" y="238" type="curve" smooth="yes" name="dv02"/>
      <point x="680" y="238"/>
      <point x="735.333" y="258.333"/>
      <point x="774" y="301" type="curve" smooth="yes"/>
      <point x="810" y="341"/>
      <point x="831" y="401"/>
      <point x="831" y="477" type="curve" smooth="yes" name="ah01"/>
      <point x="831" y="1493" type="line" name="at02"/>
      <point x="1126" y="1493" type="line"/>
      <point x="1126" y="551" type="line" smooth="yes" name="sh01"/>
      <point x="1126" y="347.667"/>
      <point x="1085.67" y="200.333"/>
      <point x="1005" y="109" type="curve" smooth="yes"/>
      <point x="923.667" y="17"/>
      <point x="794" y="-29"/>
    </contour>
  </outline>
</glyph>
<glyph name="Udieresis" format="1">
  <advance width="1233"/>
  <unicode hex="00DC"/>
  <outline>
    <contour>
      <point x="331" y="1606" type="line" smooth="yes" name="dv02"/>
      <point x="311" y="1606"/>
      <point x="301" y="1616"/>
      <point x="301" y="1636" type="curve" smooth="yes" name="ih01"/>
      <point x="301" y="1822" type="line" smooth="yes"/>
      <point x="301" y="1842"/>
      <point x="311" y="1852"/>
      <point x="331" y="1852" type="curve" smooth="yes" name="dv03"/>
      <point x="507" y="1852" type="line" smooth="yes"/>
      <point x="527" y="1852"/>
      <point x="537" y="1842"/>
      <point x="537" y="1822" type="curve" smooth="yes"/>
      <point x="537" y="1636" type="line" smooth="yes" name="sh01"/>
      <point x="537" y="1616"/>
      <point x="527" y="1606"/>
      <point x="507" y="1606" type="curve" smooth="yes"/>
    </contour>
    <contour>
      <point x="726" y="1606" type="line" smooth="yes" name="sv01"/>
      <point x="706" y="1606"/>
      <point x="696" y="1616"/>
      <point x="696" y="1636" type="curve" smooth="yes" name="dh03"/>
      <point x="696" y="1822" type="line" smooth="yes"/>
      <point x="696" y="1842"/>
      <point x="706" y="1852"/>
      <point x="726" y="1852" type="curve" smooth="yes" name="sv02"/>
      <point x="902" y="1852" type="line" smooth="yes"/>
      <point x="922" y="1852"/>
      <point x="932" y="1842"/>
      <point x="932" y="1822" type="curve" smooth="yes"/>
      <point x="932" y="1636" type="line" smooth="yes" name="dh04"/>
      <point x="932" y="1616"/>
      <point x="922" y="1606"/>
      <point x="902" y="1606" type="curve" smooth="yes"/>
    </contour>
    <contour>
      <point x="616" y="-29" type="curve" smooth="yes" name="hr01"/>
      <point x="438" y="-29"/>
      <point x="308.667" y="17"/>
      <point x="228" y="109" type="curve" smooth="yes"/>
      <point x="146.667" y="201.667"/>
      <point x="106" y="349"/>
      <point x="106" y="551" type="curve" smooth="yes" name="dh01"/>
      <point x="106" y="1493" type="line" name="at01"/>
      <point x="401" y="1493" type="line"/>
      <point x="401" y="477" type="line" smooth="yes" name="dh02"/>
      <point x="401" y="401"/>
      <point x="422" y="341"/>
      <point x="458" y="301" type="curve" smooth="yes"/>
      <point x="496.667" y="258.333"/>
      <point x="552" y="238"/>
      <point x="616" y="238" type="curve" smooth="yes" name="dv01"/>
      <point x="680" y="238"/>
      <point x="735.333" y="258.333"/>
      <point x="774" y="301" type="curve" smooth="yes"/>
      <point x="810" y="341"/>
      <point x="831" y="401"/>
      <point x="831" y="477" type="curve" smooth="yes" name="ih02"/>
      <point x="831" y="1493" type="line" name="at02"/>
      <point x="1126" y="1493" type="line"/>
      <point x="1126" y="551" type="line" smooth="yes" name="sh02"/>
      <point x="1126" y="347.667"/>
      <point x="1085.67" y="200.333"/>
      <point x="1005" y="109" type="curve" smooth="yes"/>
      <point x="923.667" y="17"/>
      <point x="794" y="-29"/>
    </contour>
  </outline>
</glyph>
<glyph name="germandbls" format="1">
  <advance width="1233"/>
  <unicode hex="00DF"/>
  <outline>
    <contour>
      <point x="759" y="-29" type="curve" smooth="yes" name="dv01"/>
      <point x="716.333" y="-29"/>
      <point x="671.667" y="-25"/>
      <point x="633" y="-17" type="curve" smooth="yes"/>
      <point x="598.333" y="-10.3333"/>
      <point x="549.333" y="4"/>
      <point x="504" y="20" type="curve"/>
      <point x="504" y="270" type="line" name="ih01"/>
      <point x="542.667" y="248.667"/>
      <point x="581.333" y="233.667"/>
      <point x="620" y="223" type="curve" smooth="yes"/>
      <point x="656" y="212.333"/>
      <point x="690.333" y="207"/>
      <point x="729" y="207" type="curve" smooth="yes" name="dv02"/>
      <point x="833.035" y="207"/>
      <point x="889" y="256.996"/>
      <point x="889" y="328" type="curve" smooth="yes" name="dh05"/>
      <point x="889" y="384"/>
      <point x="850" y="432"/>
      <point x="774" y="492" type="curve" smooth="yes"/>
      <point x="752.452" y="508.161"/>
      <point x="765.333" y="497.453"/>
      <point x="729" y="526" type="curve" smooth="yes"/>
      <point x="643" y="594" type="line" smooth="yes"/>
      <point x="604.333" y="624.667"/>
      <point x="574" y="663.333"/>
      <point x="554" y="706" type="curve" smooth="yes"/>
      <point x="534" y="748"/>
      <point x="524" y="795"/>
      <point x="524" y="847" type="curve" smooth="yes" name="dh03"/>
      <point x="524" y="930.333"/>
      <point x="548.667" y="1000.67"/>
      <point x="598" y="1058" type="curve" smooth="yes"/>
      <point x="650" y="1118"/>
      <point x="719.667" y="1152.67"/>
      <point x="809" y="1174" type="curve"/>
      <point x="802.333" y="1226"/>
      <point x="780.333" y="1263.67"/>
      <point x="751" y="1285" type="curve" smooth="yes" name="hr01"/>
      <point x="717.667" y="1309"/>
      <point x="670" y="1321"/>
      <point x="614" y="1321" type="curve" smooth="yes" name="sv01"/>
      <point x="552.667" y="1321"/>
      <point x="502.667" y="1307"/>
      <point x="468" y="1271" type="curve" smooth="yes"/>
      <point x="436" y="1237"/>
      <point x="420" y="1187.33"/>
      <point x="420" y="1122" type="curve" smooth="yes"/>
      <point x="420" y="0" type="line" name="dh02"/>
      <point x="127" y="0" type="line" name="dh01"/>
      <point x="127" y="1126" type="line" smooth="yes"/>
      <point x="127" y="1267.33"/>
      <point x="167.333" y="1374.33"/>
      <point x="248" y="1447" type="curve" smooth="yes"/>
      <point x="332" y="1523"/>
      <point x="448.667" y="1556"/>
      <point x="594" y="1556" type="curve" smooth="yes" name="at01"/>
      <point x="750" y="1556"/>
      <point x="856" y="1518"/>
      <point x="928" y="1438" type="curve" smooth="yes"/>
      <point x="998.667" y="1359.33"/>
      <point x="1034" y="1237.67"/>
      <point x="1034" y="1073" type="curve" smooth="yes"/>
      <point x="1034" y="1059" type="line" name="sv02"/>
      <point x="938" y="1053.67"/>
      <point x="884.667" y="1034.67"/>
      <point x="846" y="1008" type="curve" smooth="yes"/>
      <point x="803.333" y="977.333"/>
      <point x="780" y="935.667"/>
      <point x="780" y="889" type="curve" smooth="yes" name="dh04"/>
      <point x="780" y="832.274"/>
      <point x="815.112" y="792.71"/>
      <point x="896" y="728" type="curve" smooth="yes"/>
      <point x="913.333" y="713.333"/>
      <point x="913.667" y="714.333"/>
      <point x="915" y="713" type="curve" name="hr02"/>
      <point x="1012" y="639" type="line" smooth="yes"/>
      <point x="1072" y="593.667"/>
      <point x="1107.33" y="551.667"/>
      <point x="1134" y="501" type="curve" smooth="yes"/>
      <point x="1159.33" y="453"/>
      <point x="1174" y="398"/>
      <point x="1174" y="330" type="curve" smooth="yes" name="dh06"/>
      <point x="1174" y="224.667"/>
      <point x="1139" y="132.333"/>
      <point x="1063" y="67" type="curve" smooth="yes"/>
      <point x="987" y="3"/>
      <point x="880.333" y="-29"/>
    </contour>
  </outline>
</glyph>
<glyph name="atilde" format="1">
  <advance width="1233"/>
  <unicode hex="00E3"/>
  <outline>
    <contour>
      <point x="768" y="1317" type="curve" smooth="yes" name="sv01"/>
      <point x="720" y="1317"/>
      <point x="682" y="1330"/>
      <point x="618" y="1374" type="curve" smooth="yes"/>
      <point x="551" y="1419" type="line" smooth="yes"/>
      <point x="521.667" y="1437.67"/>
      <point x="500.333" y="1448"/>
      <point x="479" y="1448" type="curve" smooth="yes"/>
      <point x="453.667" y="1448"/>
      <point x="437.667" y="1435.67"/>
      <point x="427" y="1417" type="curve" smooth="yes"/>
      <point x="414.333" y="1396.33"/>
      <point x="408" y="1366.33"/>
      <point x="408" y="1327" type="curve" smooth="yes" name="sh01"/>
      <point x="408" y="1319" type="line" name="dv02"/>
      <point x="268" y="1319" type="line" name="sh02"/>
      <point x="268" y="1413.67"/>
      <point x="286.667" y="1483.33"/>
      <point x="320" y="1530" type="curve" smooth="yes"/>
      <point x="350.667" y="1574"/>
      <point x="398.333" y="1603"/>
      <point x="465" y="1603" type="curve" smooth="yes" name="av01"/>
      <point x="489.667" y="1603"/>
      <point x="513.667" y="1598.67"/>
      <point x="537" y="1590" type="curve" smooth="yes" name="av02"/>
      <point x="563.667" y="1579.33"/>
      <point x="586" y="1566"/>
      <point x="614" y="1546" type="curve" smooth="yes"/>
      <point x="676" y="1503" type="line" smooth="yes" name="hr01"/>
      <point x="693.333" y="1491"/>
      <point x="701.333" y="1486.67"/>
      <point x="716" y="1480" type="curve" smooth="yes"/>
      <point x="728.667" y="1474.67"/>
      <point x="740.333" y="1472"/>
      <point x="751" y="1472" type="curve" smooth="yes"/>
      <point x="774.333" y="1472"/>
      <point x="792.667" y="1482.67"/>
      <point x="806" y="1504" type="curve" smooth="yes"/>
      <point x="818.667" y="1524.67"/>
      <point x="825" y="1554.33"/>
      <point x="825" y="1593" type="curve" smooth="yes" name="sh03"/>
      <point x="825" y="1601" type="line" name="dv03"/>
      <point x="965" y="1601" type="line" name="av03"/>
      <point x="965" y="1509.67"/>
      <point x="948" y="1439.67"/>
      <point x="914" y="1391" type="curve" smooth="yes"/>
      <point x="882" y="1344.33"/>
      <point x="833.333" y="1317"/>
    </contour>
    <contour>
      <point x="494" y="-29" type="curve" smooth="yes" name="dv01"/>
      <point x="372.667" y="-29"/>
      <point x="274" y="4"/>
      <point x="202" y="72" type="curve" smooth="yes"/>
      <point x="130.667" y="139.333"/>
      <point x="95" y="233.333"/>
      <point x="95" y="354" type="curve" smooth="yes" name="dh01"/>
      <point x="95" y="482"/>
      <point x="134" y="580"/>
      <point x="222" y="644" type="curve" smooth="yes"/>
      <point x="306.667" y="706"/>
      <point x="437.667" y="737"/>
      <point x="615" y="737" type="curve" smooth="yes"/>
      <point x="818" y="737" type="line" name="dh03"/>
      <point x="818" y="786" type="line" smooth="yes"/>
      <point x="818" y="835.333"/>
      <point x="799" y="871.333"/>
      <point x="767" y="894" type="curve" smooth="yes"/>
      <point x="732.333" y="919.333"/>
      <point x="679.333" y="930"/>
      <point x="610" y="930" type="curve" smooth="yes" name="dv05"/>
      <point x="546" y="930"/>
      <point x="477.333" y="921.333"/>
      <point x="412" y="904" type="curve" smooth="yes"/>
      <point x="348" y="886.667"/>
      <point x="278" y="857.667"/>
      <point x="206" y="819" type="curve" name="ih01"/>
      <point x="206" y="1069" type="line"/>
      <point x="262" y="1091.67"/>
      <point x="336.333" y="1116"/>
      <point x="403" y="1128" type="curve" smooth="yes"/>
      <point x="457.667" y="1138.67"/>
      <point x="540" y="1148"/>
      <point x="628" y="1148" type="curve" smooth="yes" name="hr02"/>
      <point x="814.925" y="1148"/>
      <point x="927.16" y="1102.15"/>
      <point x="997" y="1035" type="curve"/>
      <point x="1069.39" y="962.615"/>
      <point x="1109" y="852.114"/>
      <point x="1109" y="644" type="curve" smooth="yes" name="dh04"/>
      <point x="1109" y="569.831"/>
      <point x="1104" y="322.547"/>
      <point x="1104" y="274" type="curve" smooth="yes" name="sh04"/>
      <point x="1104" y="246"/>
      <point x="1104.67" y="215.667"/>
      <point x="1106" y="197" type="curve" smooth="yes" name="sh05"/>
      <point x="1108.67" y="170.333"/>
      <point x="1110.33" y="142.333"/>
      <point x="1113" y="125" type="curve" smooth="yes"/>
      <point x="1117" y="98.3333"/>
      <point x="1123" y="71.3333"/>
      <point x="1127" y="58" type="curve" smooth="yes"/>
      <point x="1133.67" y="38"/>
      <point x="1144.33" y="14.6667"/>
      <point x="1155" y="0" type="curve" name="ab01"/>
      <point x="865" y="0" type="line"/>
      <point x="853" y="20"/>
      <point x="842.333" y="43.3333"/>
      <point x="837" y="58" type="curve" smooth="yes"/>
      <point x="833" y="71.3333"/>
      <point x="826.667" y="98.3333"/>
      <point x="824" y="125" type="curve" name="sh06"/>
      <point x="787.333" y="76.3333"/>
      <point x="740" y="38.3333"/>
      <point x="682" y="11" type="curve" smooth="yes" name="ab02"/>
      <point x="626" y="-15.6667"/>
      <point x="570" y="-29"/>
    </contour>
    <contour>
      <point x="576" y="174" type="curve" smooth="yes" name="hr03"/>
      <point x="650.667" y="174"/>
      <point x="711.333" y="202"/>
      <point x="754" y="262" type="curve"/>
      <point x="796.667" y="319.333"/>
      <point x="818" y="400.667"/>
      <point x="818" y="506" type="curve" smooth="yes" name="hr04"/>
      <point x="818" y="526" type="line" name="dv04"/>
      <point x="701" y="526" type="line" smooth="yes"/>
      <point x="591" y="526"/>
      <point x="514.667" y="512"/>
      <point x="472" y="484" type="curve" smooth="yes"/>
      <point x="428.667" y="456"/>
      <point x="407" y="408.667"/>
      <point x="407" y="342" type="curve" smooth="yes" name="dh02"/>
      <point x="407" y="287.333"/>
      <point x="421.333" y="249.667"/>
      <point x="452" y="219" type="curve" smooth="yes"/>
      <point x="482" y="189"/>
      <point x="523.333" y="174"/>
    </contour>
  </outline>
</glyph>
<glyph name="aring" format="1">
  <advance width="1233"/>
  <unicode hex="00E5"/>
  <outline>
    <contour>
      <point x="617" y="1249" type="curve" smooth="yes" name="dv06"/>
      <point x="541" y="1249"/>
      <point x="468.667" y="1277.33"/>
      <point x="414" y="1332" type="curve" smooth="yes"/>
      <point x="367.333" y="1378.67"/>
      <point x="332" y="1451"/>
      <point x="332" y="1535" type="curve" smooth="yes" name="ih01"/>
      <point x="332" y="1620.33"/>
      <point x="368.333" y="1690.33"/>
      <point x="415" y="1737" type="curve" smooth="yes"/>
      <point x="469.667" y="1791.67"/>
      <point x="540" y="1819"/>
      <point x="616" y="1819" type="curve" smooth="yes" name="dv04"/>
      <point x="698.667" y="1819"/>
      <point x="768.667" y="1786.33"/>
      <point x="818" y="1737" type="curve" smooth="yes"/>
      <point x="866" y="1689"/>
      <point x="901" y="1618"/>
      <point x="901" y="1534" type="curve" smooth="yes" name="dh03"/>
      <point x="901" y="1458"/>
      <point x="873.667" y="1389"/>
      <point x="819" y="1333" type="curve" smooth="yes"/>
      <point x="763" y="1277"/>
      <point x="693" y="1249"/>
    </contour>
    <contour>
      <point x="617" y="1403" type="curve" smooth="yes" name="dv07"/>
      <point x="653" y="1403"/>
      <point x="684" y="1416"/>
      <point x="710" y="1442" type="curve" smooth="yes"/>
      <point x="735.333" y="1467.33"/>
      <point x="748" y="1498"/>
      <point x="748" y="1534" type="curve" smooth="yes" name="dh02"/>
      <point x="748" y="1570"/>
      <point x="735" y="1601"/>
      <point x="709" y="1627" type="curve" smooth="yes"/>
      <point x="682.333" y="1652.33"/>
      <point x="651.333" y="1665"/>
      <point x="616" y="1665" type="curve" smooth="yes" name="dv03"/>
      <point x="580" y="1665"/>
      <point x="549.333" y="1652.33"/>
      <point x="524" y="1627" type="curve" smooth="yes" name="hr01"/>
      <point x="498" y="1601"/>
      <point x="485" y="1570"/>
      <point x="485" y="1534" type="curve" smooth="yes" name="sh01"/>
      <point x="485" y="1497.33"/>
      <point x="497.667" y="1466.33"/>
      <point x="523" y="1441" type="curve" smooth="yes"/>
      <point x="544.333" y="1419.67"/>
      <point x="577" y="1403"/>
    </contour>
    <contour>
      <point x="494" y="-29" type="curve" smooth="yes" name="dv01"/>
      <point x="372.667" y="-29"/>
      <point x="274" y="4"/>
      <point x="202" y="72" type="curve" smooth="yes"/>
      <point x="130.667" y="139.333"/>
      <point x="95" y="233.333"/>
      <point x="95" y="354" type="curve" smooth="yes" name="dh01"/>
      <point x="95" y="482"/>
      <point x="134" y="580"/>
      <point x="222" y="644" type="curve" smooth="yes"/>
      <point x="306.667" y="706"/>
      <point x="437.667" y="737"/>
      <point x="615" y="737" type="curve" smooth="yes"/>
      <point x="818" y="737" type="line" name="ih02"/>
      <point x="818" y="786" type="line" smooth="yes"/>
      <point x="818" y="835.333"/>
      <point x="799" y="871.333"/>
      <point x="767" y="894" type="curve" smooth="yes"/>
      <point x="732.333" y="919.333"/>
      <point x="679.333" y="930"/>
      <point x="610" y="930" type="curve" smooth="yes" name="dv08"/>
      <point x="546" y="930"/>
      <point x="477.333" y="921.333"/>
      <point x="412" y="904" type="curve" smooth="yes"/>
      <point x="348" y="886.667"/>
      <point x="278" y="857.667"/>
      <point x="206" y="819" type="curve" name="ih03"/>
      <point x="206" y="1069" type="line"/>
      <point x="262" y="1091.67"/>
      <point x="336.333" y="1116"/>
      <point x="403" y="1128" type="curve" smooth="yes"/>
      <point x="457.667" y="1138.67"/>
      <point x="540" y="1148"/>
      <point x="628" y="1148" type="curve" smooth="yes" name="dv09"/>
      <point x="814.925" y="1148"/>
      <point x="927.16" y="1102.15"/>
      <point x="997" y="1035" type="curve"/>
      <point x="1069.39" y="962.615"/>
      <point x="1109" y="852.114"/>
      <point x="1109" y="644" type="curve" smooth="yes" name="sh02"/>
      <point x="1109" y="569.831"/>
      <point x="1104" y="322.547"/>
      <point x="1104" y="274" type="curve" smooth="yes" name="sh03"/>
      <point x="1104" y="246"/>
      <point x="1104.67" y="215.667"/>
      <point x="1106" y="197" type="curve" smooth="yes" name="sh04"/>
      <point x="1108.67" y="170.333"/>
      <point x="1110.33" y="142.333"/>
      <point x="1113" y="125" type="curve" smooth="yes" name="hr02"/>
      <point x="1117" y="98.3333"/>
      <point x="1123" y="71.3333"/>
      <point x="1127" y="58" type="curve" smooth="yes"/>
      <point x="1133.67" y="38"/>
      <point x="1144.33" y="14.6667"/>
      <point x="1155" y="0" type="curve" name="ab01"/>
      <point x="865" y="0" type="line"/>
      <point x="853" y="20"/>
      <point x="842.333" y="43.3333"/>
      <point x="837" y="58" type="curve" smooth="yes"/>
      <point x="833" y="71.3333"/>
      <point x="826.667" y="98.3333"/>
      <point x="824" y="125" type="curve" name="sh05"/>
      <point x="787.333" y="76.3333"/>
      <point x="740" y="38.3333"/>
      <point x="682" y="11" type="curve" smooth="yes" name="ab02"/>
      <point x="626" y="-15.6667"/>
      <point x="570" y="-29"/>
    </contour>
    <contour>
      <point x="576" y="174" type="curve" smooth="yes" name="dv02"/>
      <point x="650.667" y="174"/>
      <point x="711.333" y="202"/>
      <point x="754" y="262" type="curve"/>
      <point x="796.667" y="319.333"/>
      <point x="818" y="400.667"/>
      <point x="818" y="506" type="curve" smooth="yes" name="sh06"/>
      <point x="818" y="526" type="line" name="dv05"/>
      <point x="701" y="526" type="line" smooth="yes"/>
      <point x="591" y="526"/>
      <point x="514.667" y="512"/>
      <point x="472" y="484" type="curve" smooth="yes"/>
      <point x="428.667" y="456"/>
      <point x="407" y="408.667"/>
      <point x="407" y="342" type="curve" smooth="yes" name="hr03"/>
      <point x="407" y="287.333"/>
      <point x="421.333" y="249.667"/>
      <point x="452" y="219" type="curve" smooth="yes"/>
      <point x="482" y="189"/>
      <point x="523.333" y="174"/>
    </contour>
  </outline>
</glyph>
<glyph name="ae" format="1">
  <advance width="1233"/>
  <unicode hex="00E6"/>
  <outline>
    <contour>
      <point x="346" y="-29" type="curve" smooth="yes" name="hr00"/>
      <point x="240.667" y="-29"/>
      <point x="159" y="1.66667"/>
      <point x="101" y="63" type="curve" smooth="yes"/>
      <point x="43" y="125"/>
      <point x="14" y="212.667"/>
      <point x="14" y="326" type="curve" smooth="yes" name="dh01"/>
      <point x="14" y="449.333"/>
      <point x="47.6667" y="541.667"/>
      <point x="115" y="603" type="curve" smooth="yes"/>
      <point x="181.667" y="663.667"/>
      <point x="283.333" y="694"/>
      <point x="420" y="694" type="curve" smooth="yes"/>
      <point x="496" y="694" type="line" name="dh03"/>
      <point x="496" y="745" type="line" smooth="yes"/>
      <point x="496" y="869"/>
      <point x="443" y="932"/>
      <point x="343" y="932" type="curve" smooth="yes" name="sv01"/>
      <point x="258.156" y="932"/>
      <point x="181.362" y="901.346"/>
      <point x="76" y="823" type="curve" name="ih01"/>
      <point x="76" y="1069" type="line"/>
      <point x="176" y="1122.33"/>
      <point x="266.333" y="1147"/>
      <point x="357" y="1147" type="curve" smooth="yes" name="at01"/>
      <point x="418.333" y="1147"/>
      <point x="472.333" y="1137.33"/>
      <point x="515" y="1116" type="curve" smooth="yes"/>
      <point x="556.333" y="1095.33"/>
      <point x="588.667" y="1063.33"/>
      <point x="612" y="1020" type="curve" name="ih02"/>
      <point x="630.667" y="1060.67"/>
      <point x="662.333" y="1092"/>
      <point x="707" y="1114" type="curve" smooth="yes"/>
      <point x="751" y="1136"/>
      <point x="803.667" y="1147"/>
      <point x="865" y="1147" type="curve" smooth="yes" name="at02"/>
      <point x="986.333" y="1147"/>
      <point x="1064.67" y="1108"/>
      <point x="1114" y="1028" type="curve" smooth="yes"/>
      <point x="1161.23" y="951.914"/>
      <point x="1188" y="828.369"/>
      <point x="1188" y="606" type="curve" smooth="yes"/>
      <point x="1188" y="479" type="line"/>
      <point x="737" y="479" type="line" name="sh01"/>
      <point x="737" y="383.667"/>
      <point x="753.667" y="310.667"/>
      <point x="787" y="260" type="curve" smooth="yes"/>
      <point x="817.667" y="213.333"/>
      <point x="862.667" y="184"/>
      <point x="932" y="184" type="curve" smooth="yes" name="sv02"/>
      <point x="977.333" y="184"/>
      <point x="1014.67" y="195.333"/>
      <point x="1052" y="214" type="curve" smooth="yes"/>
      <point x="1086.67" y="231.333"/>
      <point x="1125.67" y="255.667"/>
      <point x="1171" y="301" type="curve" name="dh06"/>
      <point x="1171" y="57" type="line"/>
      <point x="1137.67" y="27.6667"/>
      <point x="1100.33" y="6"/>
      <point x="1059" y="-8" type="curve" smooth="yes"/>
      <point x="1016.33" y="-22.6667"/>
      <point x="966.667" y="-29"/>
      <point x="916" y="-29" type="curve" smooth="yes" name="sv03"/>
      <point x="842.667" y="-29"/>
      <point x="785.667" y="-15"/>
      <point x="735" y="13" type="curve" smooth="yes"/>
      <point x="685" y="41"/>
      <point x="646" y="81.6667"/>
      <point x="618" y="135" type="curve" name="ih03"/>
      <point x="591.333" y="79"/>
      <point x="554.667" y="37.6667"/>
      <point x="512" y="11" type="curve" smooth="yes"/>
      <point x="468.667" y="-15.6667"/>
      <point x="413.333" y="-29"/>
    </contour>
    <contour>
      <point x="963" y="690" type="line" name="dh05"/>
      <point x="963" y="713" type="line" smooth="yes"/>
      <point x="963" y="797"/>
      <point x="954.667" y="854.333"/>
      <point x="938" y="885" type="curve" smooth="yes"/>
      <point x="920.667" y="916.333"/>
      <point x="891.333" y="932"/>
      <point x="850" y="932" type="curve" smooth="yes" name="sv04"/>
      <point x="808.667" y="932"/>
      <point x="779.333" y="916.333"/>
      <point x="762" y="885" type="curve" smooth="yes"/>
      <point x="745.333" y="854.333"/>
      <point x="737" y="797"/>
      <point x="737" y="713" type="curve" smooth="yes"/>
      <point x="737" y="690" type="line" name="dh04"/>
    </contour>
    <contour>
      <point x="365" y="184" type="curve" smooth="yes" name="dv01"/>
      <point x="407" y="184"/>
      <point x="438.333" y="198.333"/>
      <point x="459" y="227" type="curve" smooth="yes"/>
      <point x="479" y="255.667"/>
      <point x="489" y="299.333"/>
      <point x="489" y="358" type="curve" smooth="yes" name="sh02"/>
      <point x="489" y="483" type="line" name="sv05"/>
      <point x="416" y="483" type="line" smooth="yes"/>
      <point x="301.333" y="483"/>
      <point x="240" y="430.333"/>
      <point x="240" y="329" type="curve" smooth="yes" name="dh02"/>
      <point x="240" y="237"/>
      <point x="283.667" y="184"/>
    </contour>
  </outline>
</glyph>
